%TF.GenerationSoftware,KiCad,Pcbnew,10.0.0-rc1.1*%
%TF.CreationDate,2026-02-23T16:24:08-05:00*%
%TF.ProjectId,cm4-VS035ZSM-driver,636d342d-5653-4303-9335-5a534d2d6472,rev?*%
%TF.SameCoordinates,Original*%
%TF.FileFunction,Legend,Bot*%
%TF.FilePolarity,Positive*%
%FSLAX46Y46*%
G04 Gerber Fmt 4.6, Leading zero omitted, Abs format (unit mm)*
G04 Created by KiCad (PCBNEW 10.0.0-rc1.1) date 2026-02-23 16:24:08*
%MOMM*%
%LPD*%
G01*
G04 APERTURE LIST*
%ADD10C,0.000000*%
%ADD11C,3.600000*%
%ADD12C,5.600000*%
%ADD13C,2.000000*%
G04 APERTURE END LIST*
D10*
%TO.C,kibuzzard-685CA659*%
G36*
X228000057Y-143080741D02*
G01*
X227876452Y-143080741D01*
X227819799Y-143060140D01*
X227792904Y-142997193D01*
X227817511Y-142937679D01*
X227877596Y-142913645D01*
X228000057Y-142913645D01*
X228000057Y-143080741D01*
G37*
G36*
X228258823Y-142597513D02*
G01*
X228307577Y-142604745D01*
X228355387Y-142616720D01*
X228401794Y-142633326D01*
X228446349Y-142654399D01*
X228488625Y-142679739D01*
X228528213Y-142709098D01*
X228564733Y-142742198D01*
X228597832Y-142778717D01*
X228627192Y-142818306D01*
X228652532Y-142860581D01*
X228673605Y-142905137D01*
X228690209Y-142951543D01*
X228702185Y-142999354D01*
X228709417Y-143048108D01*
X228711836Y-143097336D01*
X228709417Y-143146564D01*
X228702185Y-143195318D01*
X228690209Y-143243129D01*
X228673605Y-143289535D01*
X228652532Y-143334091D01*
X228627192Y-143376366D01*
X228597832Y-143415955D01*
X228564733Y-143452474D01*
X228528213Y-143485574D01*
X228488625Y-143514933D01*
X228446349Y-143540273D01*
X228401794Y-143561346D01*
X228355387Y-143577952D01*
X228307577Y-143589927D01*
X228258823Y-143597159D01*
X228209593Y-143599577D01*
X228209499Y-143599577D01*
X228105350Y-143599577D01*
X227236681Y-143599577D01*
X226349699Y-143599577D01*
X225590901Y-143599577D01*
X225590807Y-143599577D01*
X225541577Y-143597159D01*
X225492823Y-143589927D01*
X225445013Y-143577952D01*
X225398606Y-143561346D01*
X225354051Y-143540273D01*
X225311775Y-143514933D01*
X225272187Y-143485574D01*
X225235667Y-143452474D01*
X225202568Y-143415954D01*
X225173208Y-143376366D01*
X225147868Y-143334091D01*
X225126795Y-143289535D01*
X225110191Y-143243129D01*
X225098215Y-143195318D01*
X225090983Y-143146564D01*
X225088564Y-143097336D01*
X225090983Y-143048108D01*
X225098215Y-142999354D01*
X225110191Y-142951543D01*
X225126795Y-142905137D01*
X225147868Y-142860581D01*
X225173208Y-142818306D01*
X225178893Y-142810641D01*
X225590901Y-142810641D01*
X225590901Y-143401199D01*
X225593190Y-143440111D01*
X225604635Y-143471013D01*
X225636108Y-143496192D01*
X225696194Y-143504203D01*
X225755708Y-143496192D01*
X225787754Y-143469868D01*
X225798626Y-143438396D01*
X225800343Y-143398910D01*
X225800343Y-143073874D01*
X225934249Y-143255847D01*
X225941116Y-143265004D01*
X225951988Y-143277594D01*
X225966867Y-143289038D01*
X225990901Y-143299339D01*
X226022375Y-143302772D01*
X226073877Y-143291042D01*
X226111645Y-143255847D01*
X226244406Y-143075018D01*
X226244406Y-143401199D01*
X226246123Y-143439539D01*
X226256995Y-143470440D01*
X226289041Y-143496192D01*
X226349699Y-143504202D01*
X226408641Y-143496192D01*
X226439542Y-143470440D01*
X226450415Y-143438968D01*
X226452705Y-143398910D01*
X226452704Y-142808352D01*
X226450987Y-142770011D01*
X226447162Y-142759140D01*
X226507067Y-142759140D01*
X226513362Y-142842687D01*
X226718226Y-143433244D01*
X226753991Y-143486463D01*
X226817797Y-143504203D01*
X226866437Y-143493903D01*
X226898483Y-143468151D01*
X226913362Y-143444117D01*
X226919656Y-143427522D01*
X227027239Y-143075018D01*
X227134821Y-143426377D01*
X227171730Y-143484747D01*
X227236681Y-143504202D01*
X227293904Y-143487608D01*
X227324807Y-143457851D01*
X227335107Y-143433244D01*
X227486819Y-142998337D01*
X227584606Y-142998337D01*
X227591759Y-143066006D01*
X227613219Y-143127093D01*
X227645980Y-143179024D01*
X227687038Y-143219224D01*
X227733390Y-143249553D01*
X227782031Y-143271871D01*
X227830815Y-143285605D01*
X227877596Y-143290183D01*
X228000057Y-143290183D01*
X228000057Y-143400054D01*
X228001774Y-143439540D01*
X228012646Y-143470439D01*
X228044692Y-143496192D01*
X228105350Y-143504203D01*
X228164864Y-143496192D01*
X228196910Y-143469867D01*
X228207782Y-143438395D01*
X228209499Y-143398910D01*
X228209499Y-142808352D01*
X228207782Y-142770011D01*
X228196910Y-142738538D01*
X228164864Y-142712214D01*
X228104206Y-142704203D01*
X227876451Y-142704203D01*
X227829813Y-142708781D01*
X227781459Y-142722515D01*
X227733390Y-142744832D01*
X227687611Y-142775161D01*
X227646838Y-142815648D01*
X227613791Y-142868438D01*
X227591902Y-142930383D01*
X227584606Y-142998337D01*
X227486819Y-142998337D01*
X227541116Y-142842687D01*
X227546266Y-142757994D01*
X227474736Y-142709925D01*
X227389471Y-142704775D01*
X227343118Y-142775161D01*
X227224091Y-143123087D01*
X227130243Y-142780885D01*
X227095336Y-142723373D01*
X227029528Y-142704203D01*
X226996337Y-142707064D01*
X226971158Y-142716792D01*
X226953419Y-142729382D01*
X226940829Y-142744261D01*
X226933389Y-142758566D01*
X226927668Y-142772872D01*
X226924234Y-142782028D01*
X226830386Y-143125376D01*
X226711359Y-142775161D01*
X226665006Y-142704203D01*
X226578598Y-142708781D01*
X226507067Y-142759140D01*
X226447162Y-142759140D01*
X226440114Y-142739110D01*
X226408068Y-142713359D01*
X226347410Y-142705346D01*
X226317082Y-142707064D01*
X226296480Y-142709926D01*
X226281602Y-142715076D01*
X226271874Y-142720798D01*
X226263290Y-142729382D01*
X226255851Y-142737392D01*
X226022375Y-143037250D01*
X225790043Y-142738538D01*
X225755708Y-142712215D01*
X225695050Y-142705347D01*
X225635536Y-142713359D01*
X225604063Y-142739110D01*
X225593190Y-142770583D01*
X225590901Y-142810641D01*
X225178893Y-142810641D01*
X225202568Y-142778718D01*
X225235667Y-142742198D01*
X225272187Y-142709098D01*
X225311775Y-142679739D01*
X225354051Y-142654399D01*
X225398606Y-142633326D01*
X225445013Y-142616720D01*
X225492823Y-142604745D01*
X225541577Y-142597513D01*
X225590807Y-142595095D01*
X225590901Y-142595095D01*
X228209499Y-142595095D01*
X228209593Y-142595095D01*
X228258823Y-142597513D01*
G37*
%TO.C,kibuzzard-685CA6E7*%
G36*
X224155065Y-116328727D02*
G01*
X224047483Y-116328727D01*
X224101274Y-116217711D01*
X224155065Y-116328727D01*
G37*
G36*
X225015724Y-116081518D02*
G01*
X225015724Y-116462633D01*
X224923020Y-116462633D01*
X224850631Y-116448756D01*
X224789114Y-116407125D01*
X224747054Y-116345751D01*
X224733034Y-116272647D01*
X224747054Y-116199400D01*
X224789114Y-116137597D01*
X224850917Y-116095537D01*
X224924164Y-116081517D01*
X225015724Y-116081518D01*
G37*
G36*
X226857131Y-115765432D02*
G01*
X226906829Y-115772804D01*
X226955566Y-115785011D01*
X227002871Y-115801938D01*
X227048290Y-115823419D01*
X227091384Y-115849249D01*
X227131739Y-115879178D01*
X227168966Y-115912919D01*
X227202707Y-115950146D01*
X227232636Y-115990501D01*
X227258466Y-116033596D01*
X227279947Y-116079014D01*
X227296873Y-116126318D01*
X227309081Y-116175056D01*
X227316454Y-116224754D01*
X227318919Y-116274936D01*
X227316454Y-116325118D01*
X227309081Y-116374816D01*
X227296873Y-116423554D01*
X227279947Y-116470858D01*
X227258466Y-116516276D01*
X227232636Y-116559371D01*
X227202707Y-116599726D01*
X227168966Y-116636953D01*
X227131739Y-116670694D01*
X227091384Y-116700623D01*
X227048290Y-116726453D01*
X227002871Y-116747934D01*
X226955566Y-116764861D01*
X226906829Y-116777068D01*
X226857131Y-116784440D01*
X226806949Y-116786905D01*
X226806854Y-116786905D01*
X226403993Y-116786905D01*
X225888971Y-116786905D01*
X225121017Y-116786905D01*
X223850631Y-116786905D01*
X223691546Y-116786905D01*
X223691451Y-116786905D01*
X223641269Y-116784440D01*
X223591571Y-116777068D01*
X223542834Y-116764861D01*
X223495529Y-116747934D01*
X223450110Y-116726453D01*
X223407016Y-116700623D01*
X223366661Y-116670694D01*
X223329434Y-116636953D01*
X223304215Y-116609128D01*
X223702419Y-116609128D01*
X223765937Y-116665208D01*
X223850631Y-116681803D01*
X223906711Y-116615995D01*
X223959357Y-116507268D01*
X224240902Y-116507268D01*
X224293549Y-116617139D01*
X224350774Y-116680658D01*
X224434322Y-116664063D01*
X224498413Y-116608555D01*
X224483535Y-116527870D01*
X224358131Y-116268069D01*
X224523592Y-116268069D01*
X224530961Y-116348577D01*
X224553063Y-116423005D01*
X224589901Y-116491352D01*
X224641475Y-116553620D01*
X224703492Y-116605444D01*
X224771661Y-116642460D01*
X224845981Y-116664671D01*
X224926453Y-116672075D01*
X225121017Y-116672075D01*
X225178814Y-116664063D01*
X225210287Y-116639457D01*
X225222304Y-116607411D01*
X225225166Y-116566781D01*
X225225165Y-115978513D01*
X225289257Y-115978513D01*
X225289257Y-116569071D01*
X225290974Y-116608555D01*
X225301847Y-116639457D01*
X225333892Y-116665208D01*
X225394551Y-116673219D01*
X225453492Y-116666925D01*
X225487254Y-116642318D01*
X225783678Y-116250901D01*
X225783678Y-116569070D01*
X225785395Y-116608555D01*
X225796267Y-116639457D01*
X225828313Y-116665208D01*
X225888971Y-116673219D01*
X225947912Y-116665208D01*
X225978814Y-116639457D01*
X225989686Y-116607983D01*
X225991975Y-116567926D01*
X225991975Y-116281803D01*
X226075523Y-116281803D01*
X226075523Y-116516424D01*
X226102990Y-116582232D01*
X226135323Y-116613563D01*
X226177383Y-116640029D01*
X226240712Y-116664826D01*
X226316248Y-116679705D01*
X226403993Y-116684663D01*
X226483535Y-116676867D01*
X226557355Y-116653477D01*
X226625452Y-116614493D01*
X226687826Y-116559915D01*
X226739901Y-116494464D01*
X226777097Y-116422862D01*
X226799415Y-116345109D01*
X226806854Y-116261202D01*
X226799307Y-116181195D01*
X226776668Y-116107125D01*
X226738935Y-116038992D01*
X226686110Y-115976796D01*
X226622698Y-115924972D01*
X226553206Y-115887956D01*
X226477633Y-115865744D01*
X226395981Y-115858341D01*
X226336611Y-115862490D01*
X226272948Y-115874936D01*
X226212719Y-115894822D01*
X226163649Y-115921288D01*
X226131603Y-115944178D01*
X226110430Y-115968212D01*
X226099558Y-116001402D01*
X226125881Y-116065494D01*
X226168227Y-116110988D01*
X226210573Y-116126152D01*
X226272376Y-116099829D01*
X226331031Y-116075794D01*
X226401704Y-116067783D01*
X226476954Y-116081946D01*
X226540187Y-116124435D01*
X226583106Y-116187525D01*
X226597412Y-116263491D01*
X226582533Y-116341889D01*
X226537898Y-116409986D01*
X226473520Y-116457196D01*
X226399415Y-116472933D01*
X226333606Y-116469214D01*
X226284965Y-116458055D01*
X226284965Y-116359628D01*
X226369658Y-116359628D01*
X226400559Y-116357912D01*
X226424593Y-116348756D01*
X226444050Y-116321860D01*
X226449772Y-116270357D01*
X226443478Y-116219999D01*
X226422304Y-116193105D01*
X226397126Y-116183949D01*
X226366224Y-116182232D01*
X226165938Y-116182232D01*
X226121875Y-116190244D01*
X226094980Y-116205122D01*
X226081246Y-116228012D01*
X226076096Y-116253191D01*
X226075523Y-116281803D01*
X225991975Y-116281803D01*
X225991975Y-115973935D01*
X225989686Y-115935594D01*
X225978241Y-115905265D01*
X225946768Y-115880658D01*
X225886682Y-115873219D01*
X225834608Y-115880086D01*
X225805423Y-115894392D01*
X225784822Y-115917854D01*
X225498699Y-116302404D01*
X225498699Y-115973935D01*
X225496409Y-115936166D01*
X225484965Y-115905838D01*
X225452920Y-115881231D01*
X225393406Y-115873219D01*
X225333892Y-115881231D01*
X225301847Y-115907554D01*
X225290974Y-115939028D01*
X225289257Y-115978513D01*
X225225165Y-115978513D01*
X225225165Y-115975079D01*
X225223449Y-115936739D01*
X225212576Y-115905265D01*
X225180530Y-115879513D01*
X225119872Y-115872075D01*
X224923020Y-115872075D01*
X224844050Y-115879371D01*
X224770802Y-115901259D01*
X224703278Y-115937740D01*
X224641475Y-115988813D01*
X224589901Y-116050043D01*
X224553063Y-116116996D01*
X224530960Y-116189671D01*
X224523592Y-116268069D01*
X224358131Y-116268069D01*
X224196267Y-115932733D01*
X224156210Y-115888670D01*
X224100130Y-115872075D01*
X224044336Y-115887526D01*
X224005137Y-115933876D01*
X223717870Y-116527869D01*
X223702419Y-116609128D01*
X223304215Y-116609128D01*
X223295693Y-116599726D01*
X223265764Y-116559371D01*
X223239934Y-116516276D01*
X223218453Y-116470858D01*
X223201527Y-116423554D01*
X223189319Y-116374816D01*
X223181946Y-116325118D01*
X223179481Y-116274936D01*
X223181946Y-116224754D01*
X223189319Y-116175056D01*
X223201527Y-116126318D01*
X223218453Y-116079014D01*
X223239934Y-116033596D01*
X223265764Y-115990501D01*
X223295693Y-115950146D01*
X223329434Y-115912919D01*
X223366661Y-115879178D01*
X223407016Y-115849249D01*
X223450110Y-115823419D01*
X223495529Y-115801938D01*
X223542834Y-115785011D01*
X223591571Y-115772804D01*
X223641269Y-115765432D01*
X223691451Y-115762967D01*
X223691546Y-115762967D01*
X226806854Y-115762967D01*
X226806949Y-115762967D01*
X226857131Y-115765432D01*
G37*
%TO.C,kibuzzard-685CA70B*%
G36*
X237834870Y-116526296D02*
G01*
X237833726Y-116525151D01*
X237838304Y-116521718D01*
X237840593Y-116521718D01*
X237834870Y-116526296D01*
G37*
G36*
X238091236Y-116352905D02*
G01*
X238106115Y-116388957D01*
X238090092Y-116424436D01*
X238045457Y-116437026D01*
X238000821Y-116425008D01*
X237985943Y-116388957D01*
X238001966Y-116353478D01*
X238046602Y-116340888D01*
X238091236Y-116352905D01*
G37*
G36*
X238109548Y-116648757D02*
G01*
X238131295Y-116699114D01*
X238108403Y-116751189D01*
X238045457Y-116770073D01*
X237984799Y-116751190D01*
X237963053Y-116699114D01*
X237985370Y-116648184D01*
X238047746Y-116630445D01*
X238109548Y-116648757D01*
G37*
G36*
X238259477Y-116525151D02*
G01*
X238258332Y-116526296D01*
X238259477Y-116527440D01*
X238253754Y-116532018D01*
X238253754Y-116530874D01*
X238258332Y-116526296D01*
X238249176Y-116518284D01*
X238250321Y-116518284D01*
X238259477Y-116525151D01*
G37*
G36*
X239668210Y-116045401D02*
G01*
X239717853Y-116052765D01*
X239766535Y-116064959D01*
X239813787Y-116081867D01*
X239859155Y-116103324D01*
X239902201Y-116129125D01*
X239942511Y-116159021D01*
X239979697Y-116192724D01*
X240013399Y-116229909D01*
X240043295Y-116270219D01*
X240069096Y-116313265D01*
X240090554Y-116358633D01*
X240107461Y-116405885D01*
X240119655Y-116454567D01*
X240127019Y-116504210D01*
X240129482Y-116554336D01*
X240127019Y-116604462D01*
X240119655Y-116654105D01*
X240107461Y-116702787D01*
X240090554Y-116750039D01*
X240069096Y-116795407D01*
X240043295Y-116838453D01*
X240013399Y-116878763D01*
X239979697Y-116915948D01*
X239942511Y-116949651D01*
X239902201Y-116979547D01*
X239859155Y-117005348D01*
X239813787Y-117026805D01*
X239766535Y-117043713D01*
X239717853Y-117055907D01*
X239668210Y-117063271D01*
X239618084Y-117065733D01*
X239617989Y-117065733D01*
X239327288Y-117065733D01*
X238771065Y-117065733D01*
X238044312Y-117065733D01*
X237753611Y-117065733D01*
X237753516Y-117065733D01*
X237703390Y-117063271D01*
X237653747Y-117055907D01*
X237605065Y-117043713D01*
X237557813Y-117026805D01*
X237512445Y-117005348D01*
X237469399Y-116979547D01*
X237429089Y-116949651D01*
X237391903Y-116915948D01*
X237358201Y-116878763D01*
X237328305Y-116838453D01*
X237302504Y-116795407D01*
X237281046Y-116750039D01*
X237264139Y-116702787D01*
X237262072Y-116694536D01*
X237753611Y-116694536D01*
X237763657Y-116771662D01*
X237793796Y-116838234D01*
X237844025Y-116894250D01*
X237906464Y-116936533D01*
X237973226Y-116961902D01*
X238044312Y-116970359D01*
X238123727Y-116961584D01*
X238194113Y-116935261D01*
X238255471Y-116891389D01*
X238302840Y-116834419D01*
X238331262Y-116768801D01*
X238340736Y-116694535D01*
X238331707Y-116634260D01*
X238304621Y-116578561D01*
X238259477Y-116527440D01*
X238260621Y-116526296D01*
X238259477Y-116525151D01*
X238303254Y-116463921D01*
X238317846Y-116390101D01*
X238308945Y-116323467D01*
X238282239Y-116263953D01*
X238246481Y-116221861D01*
X238388232Y-116221861D01*
X238401394Y-116300830D01*
X238672639Y-116897111D01*
X238712123Y-116938885D01*
X238771065Y-116954336D01*
X238835156Y-116940030D01*
X238874069Y-116897111D01*
X239145314Y-116300830D01*
X239151242Y-116259629D01*
X239223139Y-116259629D01*
X239223139Y-116854764D01*
X239246029Y-116934880D01*
X239327288Y-116957769D01*
X239407402Y-116934880D01*
X239430292Y-116853621D01*
X239430292Y-116466782D01*
X239441737Y-116477083D01*
X239512123Y-116510273D01*
X239580221Y-116470216D01*
X239615700Y-116394679D01*
X239602538Y-116358056D01*
X239567631Y-116319143D01*
X239422281Y-116188671D01*
X239403969Y-116173792D01*
X239326143Y-116154336D01*
X239246029Y-116177798D01*
X239223139Y-116259629D01*
X239151242Y-116259629D01*
X239156759Y-116221289D01*
X239092666Y-116166925D01*
X239006830Y-116149758D01*
X238954182Y-116214994D01*
X238773354Y-116660203D01*
X238592524Y-116214994D01*
X238538733Y-116150331D01*
X238454040Y-116166925D01*
X238388232Y-116221861D01*
X238246481Y-116221861D01*
X238237731Y-116211561D01*
X238180634Y-116170868D01*
X238116161Y-116146452D01*
X238044312Y-116138313D01*
X237973354Y-116146579D01*
X237910025Y-116171376D01*
X237854326Y-116212704D01*
X237811090Y-116265988D01*
X237785148Y-116326646D01*
X237776501Y-116394679D01*
X237790807Y-116459915D01*
X237833726Y-116525151D01*
X237832581Y-116526296D01*
X237833726Y-116527440D01*
X237789218Y-116580087D01*
X237762513Y-116635786D01*
X237753611Y-116694536D01*
X237262072Y-116694536D01*
X237251945Y-116654105D01*
X237244581Y-116604462D01*
X237242118Y-116554336D01*
X237244581Y-116504210D01*
X237251945Y-116454567D01*
X237264139Y-116405885D01*
X237281046Y-116358633D01*
X237302504Y-116313265D01*
X237328305Y-116270219D01*
X237358201Y-116229909D01*
X237391903Y-116192724D01*
X237429089Y-116159021D01*
X237469399Y-116129125D01*
X237512445Y-116103324D01*
X237557813Y-116081867D01*
X237605065Y-116064959D01*
X237653747Y-116052765D01*
X237703390Y-116045401D01*
X237753516Y-116042939D01*
X237753611Y-116042939D01*
X239617989Y-116042939D01*
X239618084Y-116042939D01*
X239668210Y-116045401D01*
G37*
%TO.C,kibuzzard-685CA653*%
G36*
X222802047Y-142606967D02*
G01*
X222852357Y-142614430D01*
X222901693Y-142626788D01*
X222949580Y-142643922D01*
X222995556Y-142665668D01*
X223039181Y-142691815D01*
X223080032Y-142722112D01*
X223117718Y-142756268D01*
X223151872Y-142793953D01*
X223182169Y-142834804D01*
X223208317Y-142878428D01*
X223230062Y-142924405D01*
X223247196Y-142972292D01*
X223259554Y-143021628D01*
X223267017Y-143071937D01*
X223269514Y-143122736D01*
X223267017Y-143173535D01*
X223259554Y-143223844D01*
X223247196Y-143273180D01*
X223230062Y-143321067D01*
X223208317Y-143367044D01*
X223182169Y-143410668D01*
X223151872Y-143451519D01*
X223117718Y-143489204D01*
X223080032Y-143523360D01*
X223039181Y-143553657D01*
X222995556Y-143579804D01*
X222949580Y-143601550D01*
X222901693Y-143618684D01*
X222852357Y-143631042D01*
X222802047Y-143638505D01*
X222751248Y-143641000D01*
X222751153Y-143641000D01*
X222647004Y-143641000D01*
X221581481Y-143641000D01*
X221166031Y-143641000D01*
X220810094Y-143641000D01*
X220736847Y-143641000D01*
X220736752Y-143641000D01*
X220685953Y-143638505D01*
X220635643Y-143631042D01*
X220586307Y-143618684D01*
X220538420Y-143601550D01*
X220492444Y-143579804D01*
X220448819Y-143553657D01*
X220407968Y-143523360D01*
X220370282Y-143489204D01*
X220336128Y-143451519D01*
X220329530Y-143442622D01*
X220736847Y-143442622D01*
X220743142Y-143502135D01*
X220762598Y-143533609D01*
X220784916Y-143543909D01*
X220810094Y-143545626D01*
X220874186Y-143543766D01*
X220922255Y-143538187D01*
X220993213Y-143506141D01*
X221031119Y-143442622D01*
X221092784Y-143442622D01*
X221099079Y-143502136D01*
X221118535Y-143533610D01*
X221140853Y-143543909D01*
X221166031Y-143545626D01*
X221230123Y-143543766D01*
X221278192Y-143538187D01*
X221349150Y-143506141D01*
X221386373Y-143443766D01*
X221477332Y-143443766D01*
X221477906Y-143474095D01*
X221484200Y-143500418D01*
X221500223Y-143523880D01*
X221531124Y-143538187D01*
X221581482Y-143544481D01*
X221649866Y-143531034D01*
X221681053Y-143490690D01*
X221736847Y-143530175D01*
X221798936Y-143543337D01*
X221868877Y-143534054D01*
X221930679Y-143506204D01*
X221984343Y-143459789D01*
X222025672Y-143399767D01*
X222050470Y-143331096D01*
X222058735Y-143253780D01*
X222058735Y-143067228D01*
X222057019Y-143027743D01*
X222046146Y-142996842D01*
X222014100Y-142971091D01*
X221954587Y-142963079D01*
X221895073Y-142971091D01*
X221863027Y-142997414D01*
X221852156Y-143028888D01*
X221850438Y-143068374D01*
X221850438Y-143253780D01*
X221828692Y-143314438D01*
X221768034Y-143336184D01*
X221707949Y-143313866D01*
X221685631Y-143253780D01*
X221685631Y-143066084D01*
X221683914Y-143027743D01*
X221673041Y-142996842D01*
X221641568Y-142971091D01*
X221581482Y-142963079D01*
X221521969Y-142971091D01*
X221489922Y-142997414D01*
X221479051Y-143028888D01*
X221477333Y-143067228D01*
X221477332Y-143443766D01*
X221386373Y-143443766D01*
X221391496Y-143435182D01*
X221400080Y-143380962D01*
X221402941Y-143311005D01*
X221402941Y-142849775D01*
X222121682Y-142849775D01*
X222129694Y-142909860D01*
X222156017Y-142941333D01*
X222187491Y-142952207D01*
X222226976Y-142953923D01*
X222541711Y-142953923D01*
X222541711Y-143055783D01*
X222331123Y-143055783D01*
X222293928Y-143057500D01*
X222266461Y-143067228D01*
X222244715Y-143094696D01*
X222238421Y-143147343D01*
X222244715Y-143197128D01*
X222267033Y-143223451D01*
X222295073Y-143232607D01*
X222332269Y-143234325D01*
X222541710Y-143234324D01*
X222541711Y-143441477D01*
X222543428Y-143480962D01*
X222554300Y-143511863D01*
X222586347Y-143537614D01*
X222647004Y-143545626D01*
X222706518Y-143537614D01*
X222738564Y-143511291D01*
X222749437Y-143479818D01*
X222751153Y-143440333D01*
X222751153Y-142848630D01*
X222727691Y-142766799D01*
X222643571Y-142744481D01*
X222224687Y-142744481D01*
X222186345Y-142746198D01*
X222155445Y-142757071D01*
X222129694Y-142789117D01*
X222121682Y-142849775D01*
X221402941Y-142849775D01*
X221402941Y-142803995D01*
X221401225Y-142764509D01*
X221390352Y-142733609D01*
X221358306Y-142707858D01*
X221298793Y-142699847D01*
X221239851Y-142707858D01*
X221208950Y-142734182D01*
X221198077Y-142766227D01*
X221195789Y-142805139D01*
X221195788Y-143298416D01*
X221191783Y-143339045D01*
X221164887Y-143345340D01*
X221140853Y-143347056D01*
X221118535Y-143356785D01*
X221099079Y-143386541D01*
X221092784Y-143442622D01*
X221031119Y-143442622D01*
X221035559Y-143435182D01*
X221044143Y-143380962D01*
X221047004Y-143311005D01*
X221047003Y-142803995D01*
X221045288Y-142764510D01*
X221034415Y-142733609D01*
X221002369Y-142707858D01*
X220942856Y-142699846D01*
X220883913Y-142707858D01*
X220853013Y-142734181D01*
X220842140Y-142766227D01*
X220839851Y-142805139D01*
X220839852Y-143298416D01*
X220835845Y-143339045D01*
X220808950Y-143345340D01*
X220784916Y-143347056D01*
X220762598Y-143356786D01*
X220743142Y-143386541D01*
X220736847Y-143442622D01*
X220329530Y-143442622D01*
X220305831Y-143410668D01*
X220279683Y-143367044D01*
X220257938Y-143321067D01*
X220240804Y-143273180D01*
X220228446Y-143223844D01*
X220220983Y-143173535D01*
X220218486Y-143122736D01*
X220220983Y-143071937D01*
X220228446Y-143021628D01*
X220240804Y-142972292D01*
X220257938Y-142924405D01*
X220279683Y-142878428D01*
X220305831Y-142834804D01*
X220336128Y-142793953D01*
X220370282Y-142756268D01*
X220407968Y-142722112D01*
X220448819Y-142691815D01*
X220492444Y-142665668D01*
X220538420Y-142643922D01*
X220586307Y-142626788D01*
X220635643Y-142614430D01*
X220685953Y-142606967D01*
X220736752Y-142604472D01*
X220736847Y-142604472D01*
X222751153Y-142604472D01*
X222751248Y-142604472D01*
X222802047Y-142606967D01*
G37*
%TO.C,kibuzzard-685CA72C*%
G36*
X253625006Y-120006096D02*
G01*
X253623861Y-120004951D01*
X253628439Y-120001518D01*
X253630728Y-120001518D01*
X253625006Y-120006096D01*
G37*
G36*
X253881372Y-119832705D02*
G01*
X253896251Y-119868757D01*
X253880227Y-119904236D01*
X253835592Y-119916826D01*
X253790957Y-119904808D01*
X253776079Y-119868757D01*
X253792101Y-119833278D01*
X253836738Y-119820688D01*
X253881372Y-119832705D01*
G37*
G36*
X253899684Y-120128557D02*
G01*
X253921429Y-120178914D01*
X253898539Y-120230989D01*
X253835592Y-120249874D01*
X253774934Y-120230989D01*
X253753189Y-120178914D01*
X253775506Y-120127984D01*
X253837881Y-120110245D01*
X253899684Y-120128557D01*
G37*
G36*
X254049612Y-120004952D02*
G01*
X254048468Y-120006096D01*
X254049612Y-120007240D01*
X254043890Y-120011818D01*
X254043890Y-120010673D01*
X254048468Y-120006096D01*
X254039312Y-119998084D01*
X254040456Y-119998084D01*
X254049612Y-120004952D01*
G37*
G36*
X255458346Y-119525201D02*
G01*
X255507988Y-119532565D01*
X255556671Y-119544759D01*
X255603923Y-119561667D01*
X255649291Y-119583124D01*
X255692337Y-119608925D01*
X255732647Y-119638821D01*
X255769832Y-119672524D01*
X255803535Y-119709709D01*
X255833431Y-119750019D01*
X255859232Y-119793065D01*
X255880688Y-119838433D01*
X255897596Y-119885685D01*
X255909791Y-119934367D01*
X255917155Y-119984010D01*
X255919617Y-120034136D01*
X255917155Y-120084262D01*
X255909791Y-120133905D01*
X255897596Y-120182587D01*
X255880688Y-120229839D01*
X255859232Y-120275207D01*
X255833431Y-120318253D01*
X255803535Y-120358563D01*
X255769832Y-120395748D01*
X255732647Y-120429451D01*
X255692337Y-120459347D01*
X255649291Y-120485148D01*
X255603923Y-120506605D01*
X255556671Y-120523513D01*
X255507988Y-120535707D01*
X255458346Y-120543071D01*
X255408220Y-120545533D01*
X255408124Y-120545533D01*
X255117423Y-120545533D01*
X254561200Y-120545533D01*
X253834448Y-120545533D01*
X253111129Y-120545533D01*
X252433589Y-120545533D01*
X251833876Y-120545533D01*
X251833780Y-120545533D01*
X251783654Y-120543071D01*
X251734012Y-120535707D01*
X251685329Y-120523513D01*
X251638077Y-120506605D01*
X251592709Y-120485148D01*
X251549663Y-120459347D01*
X251509353Y-120429451D01*
X251472168Y-120395748D01*
X251438465Y-120358563D01*
X251408569Y-120318253D01*
X251382768Y-120275207D01*
X251361312Y-120229839D01*
X251344404Y-120182587D01*
X251332209Y-120133905D01*
X251324845Y-120084262D01*
X251322383Y-120034136D01*
X251324845Y-119984010D01*
X251332209Y-119934367D01*
X251344404Y-119885685D01*
X251361312Y-119838433D01*
X251382768Y-119793065D01*
X251408569Y-119750019D01*
X251415574Y-119740574D01*
X251833876Y-119740574D01*
X251833876Y-120331131D01*
X251835592Y-120370617D01*
X251846465Y-120401518D01*
X251878511Y-120427269D01*
X251939169Y-120435281D01*
X251998110Y-120428987D01*
X252031873Y-120404379D01*
X252328296Y-120012963D01*
X252328296Y-120331132D01*
X252330013Y-120370617D01*
X252340886Y-120401518D01*
X252372931Y-120427269D01*
X252433589Y-120435280D01*
X252492531Y-120427269D01*
X252523432Y-120401518D01*
X252534305Y-120370044D01*
X252536529Y-120331132D01*
X252584661Y-120331132D01*
X252592674Y-120390645D01*
X252618997Y-120422691D01*
X252650471Y-120433564D01*
X252689956Y-120435280D01*
X253111129Y-120435280D01*
X253170642Y-120427269D01*
X253202688Y-120400946D01*
X253213561Y-120369471D01*
X253215278Y-120329987D01*
X253215278Y-120174335D01*
X253543747Y-120174335D01*
X253553793Y-120251462D01*
X253583931Y-120318034D01*
X253634161Y-120374050D01*
X253696600Y-120416333D01*
X253763362Y-120441702D01*
X253834448Y-120450159D01*
X253913863Y-120441384D01*
X253984249Y-120415061D01*
X254045607Y-120371189D01*
X254092976Y-120314219D01*
X254121397Y-120248601D01*
X254130871Y-120174336D01*
X254121842Y-120114060D01*
X254094756Y-120058361D01*
X254049612Y-120007240D01*
X254050757Y-120006096D01*
X254049612Y-120004952D01*
X254093389Y-119943720D01*
X254107981Y-119869901D01*
X254099081Y-119803267D01*
X254072375Y-119743753D01*
X254036617Y-119701661D01*
X254178368Y-119701661D01*
X254191529Y-119780631D01*
X254462775Y-120376911D01*
X254502259Y-120418685D01*
X254561200Y-120434136D01*
X254625292Y-120419830D01*
X254664205Y-120376911D01*
X254935449Y-119780631D01*
X254941377Y-119739429D01*
X255013275Y-119739429D01*
X255013275Y-120334564D01*
X255036165Y-120414680D01*
X255117423Y-120437569D01*
X255197538Y-120414680D01*
X255220428Y-120333421D01*
X255220427Y-119946582D01*
X255231873Y-119956883D01*
X255302259Y-119990073D01*
X255370356Y-119950016D01*
X255405834Y-119874479D01*
X255392674Y-119837856D01*
X255357767Y-119798943D01*
X255212416Y-119668471D01*
X255194104Y-119653592D01*
X255116279Y-119634136D01*
X255036165Y-119657598D01*
X255013275Y-119739429D01*
X254941377Y-119739429D01*
X254946894Y-119701089D01*
X254882803Y-119646726D01*
X254796966Y-119629558D01*
X254744319Y-119694793D01*
X254563489Y-120140002D01*
X254382660Y-119694794D01*
X254328868Y-119630130D01*
X254244176Y-119646725D01*
X254178368Y-119701661D01*
X254036617Y-119701661D01*
X254027867Y-119691361D01*
X253970770Y-119650668D01*
X253906296Y-119626252D01*
X253834448Y-119618113D01*
X253763489Y-119626379D01*
X253700161Y-119651176D01*
X253644463Y-119692505D01*
X253601226Y-119745788D01*
X253575284Y-119806446D01*
X253566637Y-119874479D01*
X253580943Y-119939715D01*
X253623861Y-120004951D01*
X253622717Y-120006096D01*
X253623861Y-120007240D01*
X253579353Y-120059887D01*
X253552648Y-120115586D01*
X253543747Y-120174335D01*
X253215278Y-120174335D01*
X253215278Y-119738285D01*
X253191815Y-119656454D01*
X253107695Y-119634136D01*
X252688811Y-119634136D01*
X252649326Y-119635853D01*
X252618424Y-119646725D01*
X252592674Y-119678771D01*
X252584662Y-119739429D01*
X252592674Y-119798943D01*
X252618997Y-119830988D01*
X252650470Y-119841861D01*
X252689956Y-119843579D01*
X253005835Y-119843578D01*
X253005835Y-119945438D01*
X252794104Y-119945438D01*
X252756908Y-119947155D01*
X252729441Y-119956311D01*
X252707695Y-119983778D01*
X252701401Y-120035853D01*
X252707695Y-120086783D01*
X252730013Y-120113106D01*
X252758625Y-120122262D01*
X252796393Y-120123979D01*
X253005835Y-120123979D01*
X253005835Y-120225838D01*
X252688811Y-120225838D01*
X252649326Y-120227555D01*
X252618425Y-120238428D01*
X252592674Y-120270474D01*
X252584661Y-120331132D01*
X252536529Y-120331132D01*
X252536594Y-120329987D01*
X252536594Y-119735996D01*
X252534306Y-119697655D01*
X252522860Y-119667326D01*
X252491386Y-119642720D01*
X252431300Y-119635280D01*
X252379226Y-119642147D01*
X252350041Y-119656454D01*
X252329441Y-119679917D01*
X252043318Y-120064465D01*
X252043318Y-119735996D01*
X252041029Y-119698228D01*
X252029584Y-119667899D01*
X251997538Y-119643293D01*
X251938024Y-119635280D01*
X251878511Y-119643292D01*
X251846465Y-119669615D01*
X251835592Y-119701089D01*
X251833876Y-119740574D01*
X251415574Y-119740574D01*
X251438465Y-119709709D01*
X251472168Y-119672524D01*
X251509353Y-119638821D01*
X251549663Y-119608925D01*
X251592709Y-119583124D01*
X251638077Y-119561667D01*
X251685329Y-119544759D01*
X251734012Y-119532565D01*
X251783654Y-119525201D01*
X251833780Y-119522739D01*
X251833876Y-119522739D01*
X255408124Y-119522739D01*
X255408220Y-119522739D01*
X255458346Y-119525201D01*
G37*
%TO.C,kibuzzard-685CA5ED*%
G36*
X228872188Y-132903833D02*
G01*
X228764606Y-132903833D01*
X228818397Y-132792818D01*
X228872188Y-132903833D01*
G37*
G36*
X226226694Y-132860915D02*
G01*
X226253590Y-132911845D01*
X226125407Y-132911845D01*
X226094506Y-132884376D01*
X226112817Y-132850614D01*
X226162030Y-132838597D01*
X226226694Y-132860915D01*
G37*
G36*
X226875049Y-132899255D02*
G01*
X226899084Y-132957624D01*
X226873905Y-133015421D01*
X226815536Y-133040028D01*
X226758311Y-133015420D01*
X226734277Y-132957624D01*
X226758311Y-132899255D01*
X226816680Y-132875221D01*
X226875049Y-132899255D01*
G37*
G36*
X227510815Y-132889527D02*
G01*
X227537710Y-132956480D01*
X227507953Y-133026294D01*
X227445006Y-133049184D01*
X227380915Y-133026293D01*
X227350013Y-132955335D01*
X227376337Y-132887809D01*
X227446151Y-132862632D01*
X227510815Y-132889527D01*
G37*
G36*
X229277515Y-132311995D02*
G01*
X229328603Y-132319574D01*
X229378701Y-132332123D01*
X229427328Y-132349521D01*
X229474016Y-132371602D01*
X229518314Y-132398154D01*
X229559797Y-132428919D01*
X229598064Y-132463603D01*
X229632748Y-132501870D01*
X229663514Y-132543353D01*
X229690066Y-132587651D01*
X229712147Y-132634339D01*
X229729546Y-132682966D01*
X229742095Y-132733066D01*
X229749673Y-132784152D01*
X229752207Y-132835736D01*
X229749673Y-132887320D01*
X229742095Y-132938406D01*
X229729546Y-132988506D01*
X229712147Y-133037133D01*
X229690066Y-133083821D01*
X229663514Y-133128119D01*
X229632748Y-133169602D01*
X229598064Y-133207869D01*
X229559797Y-133242553D01*
X229518314Y-133273318D01*
X229474016Y-133299870D01*
X229427328Y-133321951D01*
X229378701Y-133339349D01*
X229328603Y-133351898D01*
X229277515Y-133359477D01*
X229225931Y-133362012D01*
X229225836Y-133362012D01*
X228567753Y-133362012D01*
X227899370Y-133362012D01*
X227442717Y-133362012D01*
X226627839Y-133362012D01*
X226160886Y-133362012D01*
X225895364Y-133362012D01*
X225895269Y-133362012D01*
X225843685Y-133359477D01*
X225792597Y-133351898D01*
X225742499Y-133339349D01*
X225693872Y-133321951D01*
X225647184Y-133299870D01*
X225602885Y-133273318D01*
X225561403Y-133242553D01*
X225523136Y-133207869D01*
X225488452Y-133169602D01*
X225457686Y-133128119D01*
X225431134Y-133083821D01*
X225409053Y-133037133D01*
X225391654Y-132988506D01*
X225379105Y-132938406D01*
X225371527Y-132887320D01*
X225371439Y-132885521D01*
X225895364Y-132885521D01*
X225903232Y-132942317D01*
X225926837Y-132984520D01*
X225963318Y-133010700D01*
X226009813Y-133019427D01*
X226253590Y-133019427D01*
X226219255Y-133062918D01*
X226151730Y-133078940D01*
X226059026Y-133064062D01*
X226006380Y-133049184D01*
X225968611Y-133062918D01*
X225937710Y-133104119D01*
X225922833Y-133156766D01*
X225937710Y-133202331D01*
X225982345Y-133234878D01*
X226056737Y-133254406D01*
X226160886Y-133260915D01*
X226237567Y-133253906D01*
X226305092Y-133232875D01*
X226361029Y-133200400D01*
X226402946Y-133159055D01*
X226433561Y-133112131D01*
X226455593Y-133062918D01*
X226468898Y-133011988D01*
X226473332Y-132959913D01*
X226463604Y-132875412D01*
X226434420Y-132801972D01*
X226385779Y-132739599D01*
X226321751Y-132692229D01*
X226246405Y-132663808D01*
X226159742Y-132654334D01*
X226080962Y-132662599D01*
X226015536Y-132687397D01*
X225963461Y-132728726D01*
X225912388Y-132805121D01*
X225895364Y-132885521D01*
X225371439Y-132885521D01*
X225368993Y-132835736D01*
X225371527Y-132784152D01*
X225379105Y-132733066D01*
X225391654Y-132682966D01*
X225409053Y-132634339D01*
X225431134Y-132587651D01*
X225457686Y-132543353D01*
X225484025Y-132507839D01*
X226524835Y-132507839D01*
X226524835Y-133143033D01*
X226526551Y-133181373D01*
X226537424Y-133212846D01*
X226568898Y-133239169D01*
X226627839Y-133247181D01*
X226689069Y-133236594D01*
X226721687Y-133204834D01*
X226777195Y-133235736D01*
X226843003Y-133246036D01*
X226909193Y-133236245D01*
X226970424Y-133206869D01*
X227026694Y-133157912D01*
X227071520Y-133096235D01*
X227098416Y-133028710D01*
X227107241Y-132956480D01*
X227140572Y-132956480D01*
X227151063Y-133040791D01*
X227182536Y-133113657D01*
X227234991Y-133175078D01*
X227300038Y-133221493D01*
X227369279Y-133249343D01*
X227442718Y-133258626D01*
X227516855Y-133249152D01*
X227586669Y-133220729D01*
X227652159Y-133173361D01*
X227704933Y-133111495D01*
X227736597Y-133039583D01*
X227747152Y-132957624D01*
X227747009Y-132956480D01*
X227795221Y-132956480D01*
X227795221Y-133144177D01*
X227796938Y-133182517D01*
X227807809Y-133213418D01*
X227839284Y-133239169D01*
X227899370Y-133247181D01*
X227960028Y-133239169D01*
X227992073Y-133212847D01*
X228002946Y-133181373D01*
X228004663Y-133143032D01*
X228004663Y-132956480D01*
X228025836Y-132895822D01*
X228085922Y-132874076D01*
X228146580Y-132896394D01*
X228169470Y-132956480D01*
X228169470Y-133144177D01*
X228171187Y-133182517D01*
X228182058Y-133213418D01*
X228214105Y-133239169D01*
X228273619Y-133247181D01*
X228332560Y-133239169D01*
X228364032Y-133213418D01*
X228374302Y-133184234D01*
X228419541Y-133184234D01*
X228483061Y-133240314D01*
X228567753Y-133256909D01*
X228623833Y-133191101D01*
X228676480Y-133082374D01*
X228958025Y-133082374D01*
X229010671Y-133192245D01*
X229067896Y-133255765D01*
X229151444Y-133239169D01*
X229215536Y-133183662D01*
X229200657Y-133102975D01*
X228913390Y-132507839D01*
X228873332Y-132463776D01*
X228817252Y-132447181D01*
X228761458Y-132462632D01*
X228722259Y-132508983D01*
X228434992Y-133102975D01*
X228419541Y-133184234D01*
X228374302Y-133184234D01*
X228374906Y-133182517D01*
X228376622Y-133143032D01*
X228376623Y-132766494D01*
X228374334Y-132728726D01*
X228363461Y-132698970D01*
X228331988Y-132674363D01*
X228272474Y-132666923D01*
X228218683Y-132673790D01*
X228187783Y-132692674D01*
X228175192Y-132714420D01*
X228171759Y-132737882D01*
X228110528Y-132688669D01*
X228027553Y-132666923D01*
X227959138Y-132675952D01*
X227901913Y-132703038D01*
X227855879Y-132748182D01*
X227822180Y-132807442D01*
X227801961Y-132876874D01*
X227795221Y-132956480D01*
X227747009Y-132956480D01*
X227737233Y-132878337D01*
X227707476Y-132806805D01*
X227657882Y-132743032D01*
X227594553Y-132693120D01*
X227523595Y-132663172D01*
X227445006Y-132653190D01*
X227364574Y-132662981D01*
X227292662Y-132692357D01*
X227229269Y-132741315D01*
X227179993Y-132804390D01*
X227150426Y-132876111D01*
X227140572Y-132956480D01*
X227107241Y-132956480D01*
X227107381Y-132955335D01*
X227098352Y-132883868D01*
X227071266Y-132817488D01*
X227026122Y-132756194D01*
X226969661Y-132707235D01*
X226908621Y-132677860D01*
X226843003Y-132668068D01*
X226780342Y-132677510D01*
X226727410Y-132705836D01*
X226727410Y-132508983D01*
X226727982Y-132479227D01*
X226723404Y-132450615D01*
X226708526Y-132426580D01*
X226678769Y-132410557D01*
X226628983Y-132404835D01*
X226568898Y-132412846D01*
X226537424Y-132438597D01*
X226526551Y-132469499D01*
X226524835Y-132507839D01*
X225484025Y-132507839D01*
X225488452Y-132501870D01*
X225523136Y-132463603D01*
X225561403Y-132428919D01*
X225602885Y-132398154D01*
X225647184Y-132371602D01*
X225693872Y-132349521D01*
X225742499Y-132332123D01*
X225792597Y-132319574D01*
X225843685Y-132311995D01*
X225895269Y-132309460D01*
X225895364Y-132309460D01*
X229225836Y-132309460D01*
X229225931Y-132309460D01*
X229277515Y-132311995D01*
G37*
%TO.C,kibuzzard-685CA6D3*%
G36*
X230709392Y-114169860D02*
G01*
X230774773Y-114211062D01*
X230818979Y-114271434D01*
X230833714Y-114342679D01*
X230818978Y-114414782D01*
X230774773Y-114475440D01*
X230709392Y-114516642D01*
X230631139Y-114530375D01*
X230554458Y-114516499D01*
X230489222Y-114474868D01*
X230444587Y-114414353D01*
X230429708Y-114343823D01*
X230444157Y-114271005D01*
X230487505Y-114210490D01*
X230552311Y-114169717D01*
X230631139Y-114156127D01*
X230709392Y-114169860D01*
G37*
G36*
X230684126Y-112292018D02*
G01*
X230733769Y-112299382D01*
X230782451Y-112311576D01*
X230829703Y-112328483D01*
X230875071Y-112349940D01*
X230918117Y-112375741D01*
X230958427Y-112405637D01*
X230995612Y-112439340D01*
X231029314Y-112476526D01*
X231059211Y-112516835D01*
X231085012Y-112559882D01*
X231106469Y-112605248D01*
X231123377Y-112652502D01*
X231135571Y-112701184D01*
X231142935Y-112750827D01*
X231145397Y-112800953D01*
X231145397Y-112801048D01*
X231145397Y-117564424D01*
X231145397Y-117564520D01*
X231142935Y-117614645D01*
X231135571Y-117664288D01*
X231123377Y-117712970D01*
X231106469Y-117760224D01*
X231085012Y-117805590D01*
X231059211Y-117848637D01*
X231029314Y-117888946D01*
X230995612Y-117926132D01*
X230958427Y-117959835D01*
X230918117Y-117989731D01*
X230875071Y-118015532D01*
X230829703Y-118036989D01*
X230782451Y-118053896D01*
X230733769Y-118066090D01*
X230684126Y-118073454D01*
X230634000Y-118075917D01*
X230583874Y-118073454D01*
X230534231Y-118066090D01*
X230485549Y-118053896D01*
X230438297Y-118036989D01*
X230392929Y-118015532D01*
X230349883Y-117989731D01*
X230309573Y-117959835D01*
X230272388Y-117926132D01*
X230238686Y-117888946D01*
X230208789Y-117848637D01*
X230182988Y-117805590D01*
X230161531Y-117760224D01*
X230144623Y-117712970D01*
X230132429Y-117664288D01*
X230125065Y-117614645D01*
X230122603Y-117564520D01*
X230122603Y-117564424D01*
X230122603Y-117300046D01*
X230270624Y-117300046D01*
X230278063Y-117353837D01*
X230302097Y-117382450D01*
X230330710Y-117392178D01*
X230365617Y-117393895D01*
X230440009Y-117393895D01*
X230440009Y-117476298D01*
X230441725Y-117508916D01*
X230451454Y-117535240D01*
X230480066Y-117557557D01*
X230535001Y-117564424D01*
X230589937Y-117556985D01*
X230618549Y-117532950D01*
X230628278Y-117503766D01*
X230629994Y-117468287D01*
X230629994Y-117393895D01*
X230705532Y-117393895D01*
X230740438Y-117392177D01*
X230768478Y-117382450D01*
X230791368Y-117353838D01*
X230798235Y-117298902D01*
X230790795Y-117245111D01*
X230767333Y-117216499D01*
X230739293Y-117206770D01*
X230704386Y-117205054D01*
X230629994Y-117205054D01*
X230629994Y-117129517D01*
X230628278Y-117094610D01*
X230618549Y-117066570D01*
X230589365Y-117043108D01*
X230533857Y-117035669D01*
X230480066Y-117042536D01*
X230451454Y-117064853D01*
X230441725Y-117091178D01*
X230440009Y-117123795D01*
X230440009Y-117205054D01*
X230364472Y-117205054D01*
X230329565Y-117206770D01*
X230301525Y-117216499D01*
X230278063Y-117245111D01*
X230270624Y-117300046D01*
X230122603Y-117300046D01*
X230122603Y-116749546D01*
X230217977Y-116749546D01*
X230222984Y-116811348D01*
X230238006Y-116868573D01*
X230277491Y-116946397D01*
X230298092Y-116970433D01*
X230367906Y-117013923D01*
X230445731Y-116971577D01*
X230484644Y-116900619D01*
X230446876Y-116822793D01*
X230428564Y-116756413D01*
X230445731Y-116701477D01*
X230493800Y-116682021D01*
X230541296Y-116702622D01*
X230560180Y-116752979D01*
X230544157Y-116797614D01*
X230516690Y-116861706D01*
X230539579Y-116936098D01*
X230573914Y-116987028D01*
X230607104Y-117001334D01*
X230932140Y-116958988D01*
X230964186Y-116953265D01*
X230995660Y-116940104D01*
X231025989Y-116908058D01*
X231036289Y-116853695D01*
X231035144Y-116591606D01*
X231032856Y-116552121D01*
X231021983Y-116521221D01*
X230989937Y-116495468D01*
X230927562Y-116487457D01*
X230870338Y-116494896D01*
X230840008Y-116519503D01*
X230829708Y-116549260D01*
X230827991Y-116585883D01*
X230827991Y-116762135D01*
X230767333Y-116770147D01*
X230769622Y-116750690D01*
X230769622Y-116744968D01*
X230760658Y-116675408D01*
X230733762Y-116611698D01*
X230688936Y-116553838D01*
X230632283Y-116508058D01*
X230569908Y-116480589D01*
X230501811Y-116471434D01*
X230425957Y-116480336D01*
X230358622Y-116507041D01*
X230299809Y-116551549D01*
X230254347Y-116609155D01*
X230227069Y-116675154D01*
X230217977Y-116749546D01*
X230122603Y-116749546D01*
X230122603Y-116036527D01*
X230234000Y-116036527D01*
X230248306Y-116100619D01*
X230291225Y-116139531D01*
X230887506Y-116410776D01*
X230967047Y-116422221D01*
X231021411Y-116358128D01*
X231038578Y-116272293D01*
X230973342Y-116219646D01*
X230528133Y-116038816D01*
X230973342Y-115857986D01*
X231038006Y-115804194D01*
X231021411Y-115719504D01*
X230966475Y-115653695D01*
X230887506Y-115666856D01*
X230291225Y-115938101D01*
X230249451Y-115977586D01*
X230234000Y-116036527D01*
X230122603Y-116036527D01*
X230122603Y-115401334D01*
X230232855Y-115401334D01*
X230238578Y-115461420D01*
X230259179Y-115492894D01*
X230286647Y-115504338D01*
X230324415Y-115506627D01*
X230407247Y-115498615D01*
X230493227Y-115474581D01*
X230573485Y-115440962D01*
X230639150Y-115404195D01*
X230696661Y-115365855D01*
X230752455Y-115327514D01*
X230823413Y-115283451D01*
X230823413Y-115512350D01*
X230825702Y-115551262D01*
X230837147Y-115582736D01*
X230869193Y-115608487D01*
X230928707Y-115616499D01*
X230987647Y-115608487D01*
X231019122Y-115584453D01*
X231030567Y-115554696D01*
X231032856Y-115518072D01*
X231032856Y-115134667D01*
X231024843Y-115075154D01*
X230998521Y-115043108D01*
X230967047Y-115032235D01*
X230927562Y-115030519D01*
X230860896Y-115040962D01*
X230782212Y-115072293D01*
X230700810Y-115115926D01*
X230625989Y-115163280D01*
X230550881Y-115210633D01*
X230468620Y-115254267D01*
X230389079Y-115285597D01*
X230322126Y-115296041D01*
X230286074Y-115298330D01*
X230259179Y-115310347D01*
X230239149Y-115342393D01*
X230232855Y-115401334D01*
X230122603Y-115401334D01*
X230122603Y-114338101D01*
X230220266Y-114338101D01*
X230227705Y-114418072D01*
X230250023Y-114492035D01*
X230287219Y-114559989D01*
X230339293Y-114621935D01*
X230401883Y-114673510D01*
X230470624Y-114710347D01*
X230545516Y-114732450D01*
X230626561Y-114739818D01*
X230710252Y-114732664D01*
X230787362Y-114711205D01*
X230857891Y-114675440D01*
X230921840Y-114625368D01*
X230974916Y-114565068D01*
X231012827Y-114498616D01*
X231035574Y-114426012D01*
X231043156Y-114347257D01*
X231035680Y-114266856D01*
X231013256Y-114192750D01*
X230975881Y-114124939D01*
X230923557Y-114063423D01*
X230860431Y-114012350D01*
X230790652Y-113975869D01*
X230714223Y-113953981D01*
X230631139Y-113946685D01*
X230549486Y-113953873D01*
X230473914Y-113975440D01*
X230404422Y-114011384D01*
X230341010Y-114061706D01*
X230288185Y-114122114D01*
X230250452Y-114188315D01*
X230227812Y-114260311D01*
X230220266Y-114338101D01*
X230122603Y-114338101D01*
X230122603Y-113419074D01*
X230234000Y-113419074D01*
X230247448Y-113487457D01*
X230287791Y-113518644D01*
X230248306Y-113574438D01*
X230235144Y-113636527D01*
X230244428Y-113706468D01*
X230272277Y-113768271D01*
X230318692Y-113821935D01*
X230378715Y-113863264D01*
X230447384Y-113888061D01*
X230524700Y-113896327D01*
X230711254Y-113896327D01*
X230750738Y-113894610D01*
X230781640Y-113883737D01*
X230807391Y-113851692D01*
X230815403Y-113792178D01*
X230807391Y-113732664D01*
X230781067Y-113700619D01*
X230749594Y-113689746D01*
X230710109Y-113688029D01*
X230524700Y-113688029D01*
X230464043Y-113666284D01*
X230442298Y-113605626D01*
X230464615Y-113545540D01*
X230524701Y-113523221D01*
X230712398Y-113523222D01*
X230750738Y-113521506D01*
X230781639Y-113510633D01*
X230807391Y-113479159D01*
X230815402Y-113419074D01*
X230807391Y-113359560D01*
X230781067Y-113327514D01*
X230749594Y-113316642D01*
X230711253Y-113314925D01*
X230334715Y-113314925D01*
X230304386Y-113315497D01*
X230278063Y-113321791D01*
X230254601Y-113337815D01*
X230240295Y-113368716D01*
X230234000Y-113419074D01*
X230122603Y-113419074D01*
X230122603Y-112934953D01*
X230232856Y-112934953D01*
X230239087Y-113008773D01*
X230257780Y-113068478D01*
X230288935Y-113114066D01*
X230333189Y-113146176D01*
X230391177Y-113165441D01*
X230462899Y-113171863D01*
X230608249Y-113171863D01*
X230608249Y-113200476D01*
X230633429Y-113253695D01*
X230708964Y-113269145D01*
X230782784Y-113250833D01*
X230807391Y-113195897D01*
X230807391Y-113171863D01*
X230906962Y-113171863D01*
X230945302Y-113170147D01*
X230975059Y-113159274D01*
X230999093Y-113127800D01*
X231006532Y-113067715D01*
X230998521Y-113009918D01*
X230972770Y-112978444D01*
X230940724Y-112966999D01*
X230902383Y-112964710D01*
X230810824Y-112964710D01*
X230813113Y-112904052D01*
X230812541Y-112873723D01*
X230806246Y-112846828D01*
X230790223Y-112822221D01*
X230758750Y-112807343D01*
X230707820Y-112801048D01*
X230651167Y-112809632D01*
X230619695Y-112834810D01*
X230607677Y-112866284D01*
X230604815Y-112905197D01*
X230605960Y-112964710D01*
X230473199Y-112964710D01*
X230438864Y-112958416D01*
X230429708Y-112933809D01*
X230427419Y-112891463D01*
X230416546Y-112860561D01*
X230388506Y-112837672D01*
X230335860Y-112830805D01*
X230276918Y-112839388D01*
X230245445Y-112866284D01*
X230234572Y-112897757D01*
X230232856Y-112934953D01*
X230122603Y-112934953D01*
X230122603Y-112801048D01*
X230122603Y-112800953D01*
X230125065Y-112750827D01*
X230132429Y-112701184D01*
X230144623Y-112652502D01*
X230161531Y-112605248D01*
X230182988Y-112559882D01*
X230208789Y-112516835D01*
X230238686Y-112476526D01*
X230272388Y-112439340D01*
X230309573Y-112405637D01*
X230349883Y-112375741D01*
X230392929Y-112349940D01*
X230438297Y-112328483D01*
X230485549Y-112311576D01*
X230534231Y-112299382D01*
X230583874Y-112292018D01*
X230634000Y-112289555D01*
X230684126Y-112292018D01*
G37*
%TO.C,kibuzzard-686202C6*%
G36*
X246479672Y-137347132D02*
G01*
X246453921Y-137415802D01*
X246375237Y-137448706D01*
X246300845Y-137417948D01*
X246270803Y-137344271D01*
X246270803Y-137189765D01*
X246479672Y-137189765D01*
X246479672Y-137347132D01*
G37*
G36*
X247143955Y-139411510D02*
G01*
X247143955Y-139530728D01*
X247140897Y-139592964D01*
X247131754Y-139654602D01*
X247116614Y-139715046D01*
X247095622Y-139773715D01*
X247068980Y-139830043D01*
X247036946Y-139883490D01*
X246999827Y-139933539D01*
X246957981Y-139979709D01*
X246911811Y-140021555D01*
X246861762Y-140058673D01*
X246808316Y-140090708D01*
X246751987Y-140117350D01*
X246693318Y-140138342D01*
X246632874Y-140153482D01*
X246571236Y-140162625D01*
X246509000Y-140165683D01*
X246446764Y-140162625D01*
X246385126Y-140153482D01*
X246324682Y-140138342D01*
X246266013Y-140117350D01*
X246209684Y-140090708D01*
X246156238Y-140058673D01*
X246106189Y-140021555D01*
X246060019Y-139979709D01*
X246018173Y-139933539D01*
X245981054Y-139883490D01*
X245949020Y-139830043D01*
X245922378Y-139773715D01*
X245901386Y-139715046D01*
X245886246Y-139654602D01*
X245877103Y-139592964D01*
X245874045Y-139530728D01*
X245874045Y-139411510D01*
X245874045Y-138648992D01*
X246007569Y-138648992D01*
X246007569Y-139302783D01*
X246009715Y-139343556D01*
X246021160Y-139375745D01*
X246054780Y-139402926D01*
X246117727Y-139411510D01*
X246180673Y-139402926D01*
X246214293Y-139375029D01*
X246225738Y-139342125D01*
X246227884Y-139301353D01*
X246227883Y-139103928D01*
X246883105Y-139103928D01*
X246931031Y-139101782D01*
X246968943Y-139088191D01*
X247000416Y-139048134D01*
X247010431Y-138973742D01*
X247000416Y-138900065D01*
X246968227Y-138861438D01*
X246929601Y-138848563D01*
X246881675Y-138846417D01*
X246227884Y-138846417D01*
X246227884Y-138647561D01*
X246225738Y-138606790D01*
X246214293Y-138574600D01*
X246180674Y-138547418D01*
X246116296Y-138538835D01*
X246054064Y-138547418D01*
X246021160Y-138575315D01*
X246009715Y-138608220D01*
X246007569Y-138648992D01*
X245874045Y-138648992D01*
X245874045Y-138116803D01*
X245993263Y-138116803D01*
X246002801Y-138224735D01*
X246031413Y-138315819D01*
X246079100Y-138390051D01*
X246152777Y-138441553D01*
X246240760Y-138407218D01*
X246310144Y-138322813D01*
X246283678Y-138226961D01*
X246270087Y-138210509D01*
X246253635Y-138190480D01*
X246242906Y-138162583D01*
X246237897Y-138115373D01*
X246255781Y-138062440D01*
X246299415Y-138039551D01*
X246345910Y-138064586D01*
X246370946Y-138121096D01*
X246388828Y-138208363D01*
X246411003Y-138299922D01*
X246448199Y-138380931D01*
X246502562Y-138443699D01*
X246580173Y-138483935D01*
X246687112Y-138497347D01*
X246755423Y-138491267D01*
X246817298Y-138473026D01*
X246913865Y-138410795D01*
X246977526Y-138322812D01*
X247014007Y-138224815D01*
X247024738Y-138129679D01*
X247018299Y-138049564D01*
X247002562Y-137982324D01*
X246978957Y-137927247D01*
X246951775Y-137882898D01*
X246923878Y-137848562D01*
X246898843Y-137823527D01*
X246878814Y-137807791D01*
X246868800Y-137799206D01*
X246775810Y-137763441D01*
X246684250Y-137823527D01*
X246651187Y-137882977D01*
X246660725Y-137944970D01*
X246712863Y-138009507D01*
X246765080Y-138067447D01*
X246778671Y-138123956D01*
X246757927Y-138208362D01*
X246691403Y-138234115D01*
X246647053Y-138196918D01*
X246613435Y-138084614D01*
X246595016Y-138016481D01*
X246575524Y-137962297D01*
X246529744Y-137882182D01*
X246468227Y-137824958D01*
X246390974Y-137790624D01*
X246297984Y-137779178D01*
X246215247Y-137789828D01*
X246142524Y-137821779D01*
X246079815Y-137875029D01*
X246031731Y-137944494D01*
X246002880Y-138025085D01*
X245993263Y-138116803D01*
X245874045Y-138116803D01*
X245874045Y-137059579D01*
X246009000Y-137059579D01*
X246009000Y-137347133D01*
X246014722Y-137405251D01*
X246031890Y-137465158D01*
X246059787Y-137524886D01*
X246097698Y-137582468D01*
X246148306Y-137633792D01*
X246214293Y-137674743D01*
X246291725Y-137701567D01*
X246376669Y-137710509D01*
X246483805Y-137696520D01*
X246576318Y-137654556D01*
X246654207Y-137584614D01*
X246791546Y-137687619D01*
X246890259Y-137726245D01*
X246974665Y-137657576D01*
X247014006Y-137556002D01*
X246947484Y-137475887D01*
X246740044Y-137322812D01*
X246740044Y-137189765D01*
X246878814Y-137189765D01*
X246928170Y-137187618D01*
X246966796Y-137174028D01*
X246998986Y-137133971D01*
X247009000Y-137058148D01*
X246998986Y-136983756D01*
X246966082Y-136943699D01*
X246926740Y-136930108D01*
X246877383Y-136927962D01*
X246139186Y-136927962D01*
X246091260Y-136930108D01*
X246051918Y-136943699D01*
X246019014Y-136983756D01*
X246009000Y-137059579D01*
X245874045Y-137059579D01*
X245874045Y-136927962D01*
X245874045Y-136808744D01*
X245877103Y-136746508D01*
X245886246Y-136684870D01*
X245901386Y-136624426D01*
X245922378Y-136565757D01*
X245949020Y-136509429D01*
X245981054Y-136455982D01*
X246018173Y-136405933D01*
X246060019Y-136359763D01*
X246106189Y-136317917D01*
X246156238Y-136280799D01*
X246209684Y-136248764D01*
X246266013Y-136222122D01*
X246324682Y-136201130D01*
X246385126Y-136185990D01*
X246446764Y-136176847D01*
X246509000Y-136173789D01*
X246571236Y-136176847D01*
X246632874Y-136185990D01*
X246693318Y-136201130D01*
X246751987Y-136222122D01*
X246808316Y-136248764D01*
X246861762Y-136280799D01*
X246911811Y-136317917D01*
X246957981Y-136359763D01*
X246999827Y-136405933D01*
X247036946Y-136455982D01*
X247068980Y-136509429D01*
X247095622Y-136565757D01*
X247116614Y-136624426D01*
X247131754Y-136684870D01*
X247140897Y-136746508D01*
X247143955Y-136808744D01*
X247143955Y-136927962D01*
X247143955Y-137556003D01*
X247143955Y-138129678D01*
X247143955Y-138973742D01*
X247143955Y-139411510D01*
G37*
%TO.C,kibuzzard-68622B1B*%
G36*
X241506643Y-120961987D02*
G01*
X241544071Y-121038868D01*
X241522828Y-121107656D01*
X241409529Y-120994357D01*
X241406494Y-120942766D01*
X241452522Y-120929109D01*
X241506643Y-120961987D01*
G37*
G36*
X246136725Y-125592069D02*
G01*
X246174154Y-125668951D01*
X246152910Y-125737739D01*
X246039612Y-125624440D01*
X246036577Y-125572848D01*
X246082605Y-125559192D01*
X246136725Y-125592069D01*
G37*
G36*
X247703690Y-127159034D02*
G01*
X247741119Y-127235915D01*
X247719875Y-127304704D01*
X247606576Y-127191405D01*
X247603542Y-127139813D01*
X247649570Y-127126157D01*
X247703690Y-127159034D01*
G37*
G36*
X248742601Y-127876257D02*
G01*
X248850842Y-127984498D01*
X248703148Y-128132191D01*
X248593895Y-128022938D01*
X248562030Y-127954656D01*
X248593896Y-127875245D01*
X248668248Y-127844391D01*
X248742601Y-127876257D01*
G37*
G36*
X242643678Y-122141510D02*
G01*
X242677061Y-122222437D01*
X242641655Y-122305388D01*
X242553646Y-122340794D01*
X242477776Y-122305388D01*
X242441359Y-122228507D01*
X242476764Y-122138475D01*
X242559716Y-122102056D01*
X242643678Y-122141510D01*
G37*
G36*
X244343162Y-123863249D02*
G01*
X244373511Y-123936084D01*
X244343163Y-124008919D01*
X244270833Y-124038761D01*
X244198504Y-124009930D01*
X244168661Y-123936589D01*
X244197492Y-123863249D01*
X244270328Y-123832900D01*
X244343162Y-123863249D01*
G37*
G36*
X247149334Y-126667397D02*
G01*
X247179177Y-126741750D01*
X247149334Y-126815091D01*
X247076499Y-126842403D01*
X247001641Y-126811045D01*
X246974328Y-126740232D01*
X247004676Y-126668409D01*
X247077005Y-126637555D01*
X247149334Y-126667397D01*
G37*
G36*
X240811554Y-119584102D02*
G01*
X240889162Y-119595614D01*
X240965267Y-119614678D01*
X241039138Y-119641109D01*
X241110062Y-119674654D01*
X241177356Y-119714988D01*
X241240374Y-119761725D01*
X241298506Y-119814413D01*
X241298590Y-119814497D01*
X249344839Y-127860746D01*
X249344923Y-127860830D01*
X249397611Y-127918962D01*
X249444348Y-127981980D01*
X249484682Y-128049274D01*
X249518227Y-128120198D01*
X249544658Y-128194069D01*
X249563722Y-128270174D01*
X249575234Y-128347782D01*
X249579084Y-128426144D01*
X249575234Y-128504507D01*
X249563722Y-128582114D01*
X249544658Y-128658220D01*
X249518227Y-128732090D01*
X249484682Y-128803015D01*
X249444348Y-128870309D01*
X249397611Y-128933326D01*
X249344923Y-128991459D01*
X249286790Y-129044147D01*
X249223773Y-129090884D01*
X249156479Y-129131218D01*
X249085554Y-129164763D01*
X249011684Y-129191194D01*
X248935578Y-129210258D01*
X248857971Y-129221770D01*
X248779608Y-129225620D01*
X248701246Y-129221770D01*
X248623638Y-129210258D01*
X248547533Y-129191194D01*
X248473662Y-129164763D01*
X248402738Y-129131218D01*
X248335444Y-129090884D01*
X248272426Y-129044147D01*
X248214294Y-128991459D01*
X248214210Y-128991375D01*
X248122155Y-128899319D01*
X247402908Y-128180073D01*
X247051547Y-127828712D01*
X247670307Y-127828712D01*
X247680929Y-127857542D01*
X247701667Y-127881314D01*
X247759961Y-127936320D01*
X247807378Y-127973875D01*
X247898423Y-128008271D01*
X247998570Y-127982980D01*
X248054082Y-127942643D01*
X248093742Y-127906099D01*
X248303314Y-127906099D01*
X248304074Y-127977922D01*
X248318235Y-128045700D01*
X248341502Y-128108419D01*
X248372483Y-128163677D01*
X248409785Y-128209072D01*
X248518026Y-128317313D01*
X248420912Y-128414427D01*
X248387530Y-128450844D01*
X248369827Y-128487767D01*
X248375391Y-128538853D01*
X248421925Y-128599549D01*
X248481609Y-128645071D01*
X248533200Y-128650129D01*
X248570629Y-128631920D01*
X248607047Y-128598538D01*
X249129032Y-128076553D01*
X249161402Y-128041147D01*
X249179611Y-128003718D01*
X249174553Y-127952127D01*
X249128020Y-127891430D01*
X248926711Y-127690122D01*
X248881442Y-127652947D01*
X248826563Y-127622345D01*
X248764351Y-127599585D01*
X248697079Y-127585928D01*
X248625255Y-127585675D01*
X248549385Y-127603125D01*
X248475286Y-127638531D01*
X248408773Y-127692146D01*
X248355285Y-127758279D01*
X248320258Y-127831241D01*
X248303314Y-127906099D01*
X248093742Y-127906099D01*
X248118445Y-127883337D01*
X248566583Y-127435199D01*
X248599966Y-127398783D01*
X248617668Y-127361860D01*
X248612104Y-127310773D01*
X248566583Y-127251089D01*
X248507404Y-127206073D01*
X248456824Y-127202027D01*
X248418889Y-127220741D01*
X248382472Y-127253112D01*
X247946473Y-127689111D01*
X247907021Y-127721482D01*
X247877685Y-127703273D01*
X247854924Y-127683547D01*
X247826599Y-127672420D01*
X247783100Y-127681524D01*
X247727968Y-127725529D01*
X247680929Y-127783696D01*
X247670307Y-127828712D01*
X247051547Y-127828712D01*
X247041768Y-127818933D01*
X246505095Y-127282259D01*
X247183919Y-127282259D01*
X247194604Y-127350479D01*
X247243097Y-127433493D01*
X247329399Y-127531302D01*
X247403372Y-127592883D01*
X247481644Y-127633979D01*
X247559790Y-127654716D01*
X247633384Y-127655223D01*
X247701920Y-127640808D01*
X247764892Y-127616782D01*
X247821668Y-127583526D01*
X247871615Y-127541417D01*
X247937706Y-127458129D01*
X247976822Y-127367423D01*
X247988960Y-127269298D01*
X247974236Y-127170835D01*
X247932760Y-127079117D01*
X247864534Y-126994144D01*
X247787596Y-126931818D01*
X247707848Y-126895906D01*
X247625291Y-126886408D01*
X247512624Y-126908789D01*
X247426512Y-126964807D01*
X247383266Y-127021962D01*
X247366828Y-127080129D01*
X247375932Y-127135515D01*
X247409315Y-127184324D01*
X247624785Y-127399794D01*
X247555997Y-127407887D01*
X247482150Y-127362365D01*
X247413362Y-127267275D01*
X247379978Y-127207590D01*
X247334457Y-127186347D01*
X247270726Y-127195452D01*
X247211042Y-127228835D01*
X247183919Y-127282259D01*
X246505095Y-127282259D01*
X246350847Y-127128011D01*
X246006903Y-126784068D01*
X245939295Y-126716460D01*
X246600542Y-126716460D01*
X246606106Y-126767546D01*
X246651628Y-126827230D01*
X246718141Y-126875534D01*
X246774032Y-126876799D01*
X246795023Y-126952415D01*
X246843832Y-127019433D01*
X246910991Y-127069283D01*
X246991075Y-127097439D01*
X247084087Y-127103901D01*
X247178221Y-127089008D01*
X247261678Y-127053097D01*
X247334456Y-126996167D01*
X247389644Y-126925018D01*
X247424377Y-126842404D01*
X247438651Y-126748326D01*
X247432020Y-126655146D01*
X247404032Y-126575230D01*
X247354689Y-126508576D01*
X247285142Y-126459261D01*
X247208007Y-126442823D01*
X247213318Y-126385920D01*
X247162485Y-126314350D01*
X247103306Y-126269334D01*
X247052221Y-126264781D01*
X247014792Y-126282990D01*
X246979385Y-126315361D01*
X246650616Y-126644131D01*
X246617740Y-126680042D01*
X246600542Y-126716460D01*
X245939295Y-126716460D01*
X245474804Y-126251968D01*
X245464755Y-126241919D01*
X246170067Y-126241919D01*
X246180184Y-126322038D01*
X246222346Y-126406203D01*
X246296557Y-126494414D01*
X246370278Y-126554478D01*
X246459931Y-126603161D01*
X246543261Y-126625290D01*
X246598014Y-126605690D01*
X246624568Y-126560421D01*
X246643536Y-126485310D01*
X246624315Y-126425626D01*
X246529225Y-126380103D01*
X246429077Y-126329523D01*
X246406822Y-126274897D01*
X246439193Y-126271863D01*
X246503429Y-126307774D01*
X246571712Y-126348745D01*
X246650743Y-126378587D01*
X246724969Y-126382127D01*
X246794390Y-126359365D01*
X246859005Y-126310304D01*
X246914138Y-126228112D01*
X246923748Y-126137320D01*
X246904752Y-126072803D01*
X246865300Y-126006037D01*
X246805391Y-125937023D01*
X246726992Y-125875316D01*
X246631396Y-125829795D01*
X246550216Y-125832577D01*
X246508992Y-125917803D01*
X246521132Y-126006824D01*
X246594979Y-126044253D01*
X246675906Y-126088763D01*
X246693104Y-126146424D01*
X246682482Y-126154012D01*
X246670848Y-126156540D01*
X246658710Y-126155528D01*
X246644547Y-126150471D01*
X246629879Y-126142884D01*
X246613187Y-126133274D01*
X246595991Y-126122146D01*
X246577276Y-126108490D01*
X246558561Y-126094833D01*
X246490279Y-126052852D01*
X246418454Y-126027562D01*
X246332469Y-126034643D01*
X246245978Y-126093821D01*
X246191999Y-126165847D01*
X246170067Y-126241919D01*
X245464755Y-126241919D01*
X244938129Y-125715294D01*
X245616954Y-125715294D01*
X245627639Y-125783514D01*
X245676132Y-125866528D01*
X245762434Y-125964337D01*
X245836407Y-126025918D01*
X245914679Y-126067014D01*
X245992825Y-126087752D01*
X246066419Y-126088258D01*
X246134955Y-126073843D01*
X246197927Y-126049817D01*
X246254703Y-126016561D01*
X246304651Y-125974453D01*
X246370741Y-125891165D01*
X246409857Y-125800458D01*
X246421996Y-125702334D01*
X246407272Y-125603871D01*
X246365796Y-125512152D01*
X246297569Y-125427179D01*
X246220631Y-125364853D01*
X246140884Y-125328942D01*
X246058326Y-125319444D01*
X245945660Y-125341825D01*
X245859547Y-125397842D01*
X245816301Y-125454997D01*
X245799863Y-125513164D01*
X245808967Y-125568550D01*
X245842350Y-125617359D01*
X246057820Y-125832829D01*
X245989032Y-125840922D01*
X245915185Y-125795400D01*
X245846397Y-125700310D01*
X245813014Y-125640626D01*
X245767492Y-125619382D01*
X245703761Y-125628487D01*
X245644077Y-125661870D01*
X245616954Y-125715294D01*
X244938129Y-125715294D01*
X244805125Y-125582290D01*
X244397114Y-125174279D01*
X245051280Y-125174279D01*
X245057350Y-125224859D01*
X245102872Y-125284543D01*
X245162051Y-125329559D01*
X245212631Y-125333606D01*
X245250566Y-125314892D01*
X245286983Y-125282520D01*
X245526732Y-125042771D01*
X245552022Y-125068061D01*
X245621316Y-125092846D01*
X245701738Y-125039737D01*
X245750800Y-124958303D01*
X245723994Y-124887997D01*
X245702750Y-124866754D01*
X245743213Y-124826290D01*
X245797840Y-124746374D01*
X245824647Y-124644708D01*
X245823003Y-124588185D01*
X245806944Y-124528880D01*
X245776344Y-124470207D01*
X245731075Y-124415580D01*
X245695669Y-124383210D01*
X245658240Y-124365001D01*
X245606649Y-124370059D01*
X245546964Y-124415580D01*
X245501948Y-124474760D01*
X245497396Y-124525845D01*
X245516110Y-124563780D01*
X245548987Y-124599692D01*
X245561126Y-124640155D01*
X245521674Y-124679608D01*
X245471094Y-124624982D01*
X245443781Y-124598681D01*
X245414444Y-124580471D01*
X245378532Y-124572885D01*
X245337563Y-124587552D01*
X245286983Y-124627005D01*
X245244496Y-124684666D01*
X245238932Y-124734740D01*
X245256129Y-124773181D01*
X245287994Y-124810104D01*
X245340597Y-124860684D01*
X245100849Y-125100432D01*
X245068984Y-125136344D01*
X245051280Y-125174279D01*
X244397114Y-125174279D01*
X244318547Y-125095712D01*
X244122297Y-124899461D01*
X243967185Y-124744350D01*
X244585946Y-124744350D01*
X244596568Y-124773181D01*
X244617306Y-124796954D01*
X244675599Y-124851959D01*
X244723017Y-124889515D01*
X244814061Y-124923909D01*
X244914209Y-124898619D01*
X244969721Y-124858281D01*
X245034084Y-124798977D01*
X245482222Y-124350838D01*
X245515604Y-124314421D01*
X245533307Y-124277498D01*
X245527743Y-124226412D01*
X245482222Y-124166728D01*
X245423043Y-124121712D01*
X245372463Y-124117666D01*
X245334528Y-124136380D01*
X245298111Y-124168751D01*
X244862112Y-124604750D01*
X244822659Y-124637121D01*
X244793324Y-124618912D01*
X244770563Y-124599186D01*
X244742237Y-124588059D01*
X244698739Y-124597163D01*
X244643607Y-124641167D01*
X244596568Y-124699335D01*
X244585946Y-124744350D01*
X243967185Y-124744350D01*
X243878502Y-124655667D01*
X243684444Y-124461609D01*
X243910705Y-124461609D01*
X243917280Y-124511683D01*
X243962801Y-124571367D01*
X244012370Y-124609808D01*
X244051823Y-124623970D01*
X244086216Y-124616889D01*
X244114035Y-124599186D01*
X244141855Y-124572379D01*
X244224301Y-124489933D01*
X244369970Y-124489933D01*
X244375028Y-124540514D01*
X244421055Y-124600703D01*
X244480234Y-124645720D01*
X244530814Y-124650778D01*
X244567738Y-124633075D01*
X244604155Y-124599692D01*
X244933935Y-124269912D01*
X244966307Y-124234505D01*
X244984010Y-124197582D01*
X244978446Y-124146497D01*
X244933799Y-124087960D01*
X244932924Y-124086812D01*
X244873745Y-124041796D01*
X244822659Y-124037244D01*
X244785230Y-124055452D01*
X244748813Y-124088835D01*
X244420043Y-124417604D01*
X244387167Y-124453516D01*
X244369970Y-124489933D01*
X244224301Y-124489933D01*
X244691152Y-124023081D01*
X244723017Y-123988181D01*
X244740720Y-123952269D01*
X244738467Y-123927485D01*
X244932418Y-123927485D01*
X244937476Y-123978065D01*
X244983504Y-124038255D01*
X245042682Y-124083271D01*
X245093768Y-124087824D01*
X245131197Y-124069615D01*
X245166603Y-124037244D01*
X245198975Y-124001837D01*
X245216677Y-123964914D01*
X245211114Y-123913829D01*
X245165591Y-123854145D01*
X245106413Y-123809128D01*
X245055327Y-123804576D01*
X245017898Y-123822785D01*
X244982492Y-123855156D01*
X244949615Y-123891068D01*
X244932418Y-123927485D01*
X244738467Y-123927485D01*
X244736168Y-123902196D01*
X244692164Y-123844029D01*
X244629191Y-123797242D01*
X244571784Y-123788390D01*
X244548011Y-123717578D01*
X244502995Y-123656882D01*
X244436342Y-123607539D01*
X244356426Y-123579552D01*
X244263246Y-123572921D01*
X244169168Y-123587195D01*
X244086554Y-123621927D01*
X244015404Y-123677115D01*
X243959486Y-123748770D01*
X243925260Y-123830203D01*
X243912728Y-123921415D01*
X243921551Y-124011728D01*
X243951394Y-124090465D01*
X244002254Y-124157624D01*
X244060673Y-124202893D01*
X244124657Y-124227424D01*
X243961790Y-124390292D01*
X243928913Y-124424180D01*
X243910705Y-124461609D01*
X243684444Y-124461609D01*
X243083386Y-123860550D01*
X242673857Y-123451022D01*
X243331059Y-123451022D01*
X243336117Y-123501603D01*
X243382144Y-123561792D01*
X243441323Y-123606809D01*
X243491903Y-123611867D01*
X243528827Y-123594164D01*
X243565244Y-123560781D01*
X243895024Y-123231001D01*
X243927396Y-123195594D01*
X243945099Y-123158671D01*
X243939535Y-123107586D01*
X243894888Y-123049049D01*
X243894013Y-123047901D01*
X243834834Y-123002885D01*
X243783748Y-122998333D01*
X243746319Y-123016541D01*
X243709902Y-123049924D01*
X243381132Y-123378693D01*
X243348256Y-123414605D01*
X243331059Y-123451022D01*
X242673857Y-123451022D01*
X242650422Y-123427587D01*
X242279841Y-123057005D01*
X242899613Y-123057005D01*
X242917821Y-123094434D01*
X242949181Y-123128829D01*
X243019937Y-123188569D01*
X243089231Y-123224818D01*
X243157064Y-123237575D01*
X243224560Y-123226841D01*
X243292843Y-123192615D01*
X243361913Y-123134898D01*
X243490385Y-123006425D01*
X243515676Y-123031715D01*
X243584969Y-123056499D01*
X243665392Y-123003391D01*
X243714454Y-122921957D01*
X243701726Y-122888574D01*
X243893507Y-122888574D01*
X243898565Y-122939154D01*
X243944593Y-122999344D01*
X244003771Y-123044360D01*
X244054857Y-123048913D01*
X244092286Y-123030704D01*
X244127692Y-122998333D01*
X244160064Y-122962926D01*
X244177766Y-122926003D01*
X244172203Y-122874918D01*
X244126680Y-122815234D01*
X244067502Y-122770217D01*
X244016416Y-122765665D01*
X243978987Y-122783874D01*
X243943581Y-122816245D01*
X243910704Y-122852157D01*
X243893507Y-122888574D01*
X243701726Y-122888574D01*
X243687647Y-122851650D01*
X243666403Y-122830407D01*
X243754412Y-122742398D01*
X243786784Y-122706993D01*
X243803475Y-122671081D01*
X243796900Y-122622018D01*
X243750366Y-122562334D01*
X243692199Y-122518330D01*
X243641619Y-122513271D01*
X243603178Y-122531480D01*
X243567267Y-122563345D01*
X243486339Y-122644273D01*
X243434747Y-122588635D01*
X243407434Y-122562334D01*
X243378098Y-122544126D01*
X243342186Y-122536539D01*
X243301217Y-122551206D01*
X243250637Y-122590659D01*
X243208150Y-122648320D01*
X243202586Y-122698394D01*
X243219783Y-122736835D01*
X243251648Y-122773758D01*
X243305263Y-122825350D01*
X243187918Y-122942695D01*
X243152007Y-122967479D01*
X243122164Y-122953822D01*
X243082711Y-122918417D01*
X243045788Y-122900713D01*
X243000773Y-122905265D01*
X242948169Y-122945730D01*
X242903659Y-123005414D01*
X242899613Y-123057005D01*
X242279841Y-123057005D01*
X242000977Y-122778141D01*
X241453872Y-122231036D01*
X242180872Y-122231036D01*
X242197339Y-122329554D01*
X242233925Y-122415371D01*
X242290630Y-122488488D01*
X242364534Y-122545642D01*
X242451363Y-122582229D01*
X242551117Y-122598246D01*
X242652445Y-122590209D01*
X242743995Y-122554635D01*
X242825766Y-122491522D01*
X242887080Y-122412674D01*
X242924003Y-122323148D01*
X242936536Y-122222943D01*
X242924677Y-122122851D01*
X242888429Y-122033662D01*
X242827789Y-121955375D01*
X242748041Y-121892937D01*
X242658515Y-121855340D01*
X242559209Y-121842582D01*
X242459905Y-121854778D01*
X242370378Y-121892038D01*
X242290631Y-121954364D01*
X242225383Y-122038158D01*
X242188797Y-122130382D01*
X242180872Y-122231036D01*
X241453872Y-122231036D01*
X241428413Y-122205577D01*
X241074522Y-121851686D01*
X241684178Y-121851686D01*
X241722113Y-121911877D01*
X241782303Y-121949811D01*
X241847551Y-121948294D01*
X242367512Y-121786439D01*
X242454004Y-121728272D01*
X242451474Y-121621548D01*
X242392297Y-121529999D01*
X242285573Y-121538597D01*
X241974001Y-121659989D01*
X242095392Y-121348416D01*
X242111452Y-121284813D01*
X242102979Y-121239670D01*
X242012441Y-121182514D01*
X241933031Y-121171893D01*
X241880428Y-121200218D01*
X241847551Y-121266478D01*
X241685695Y-121786439D01*
X241684178Y-121851686D01*
X241074522Y-121851686D01*
X240844721Y-121621885D01*
X240473464Y-121250629D01*
X240308046Y-121085211D01*
X240986871Y-121085211D01*
X240997556Y-121153431D01*
X241046049Y-121236445D01*
X241132351Y-121334254D01*
X241206324Y-121395835D01*
X241284597Y-121436932D01*
X241362743Y-121457669D01*
X241436336Y-121458175D01*
X241504872Y-121443760D01*
X241567844Y-121419734D01*
X241624620Y-121386478D01*
X241674568Y-121344370D01*
X241740659Y-121261082D01*
X241779774Y-121170375D01*
X241791913Y-121072251D01*
X241777189Y-120973788D01*
X241735713Y-120882070D01*
X241667486Y-120797096D01*
X241590549Y-120734770D01*
X241510801Y-120698859D01*
X241428244Y-120689361D01*
X241315577Y-120711742D01*
X241229465Y-120767759D01*
X241186219Y-120824915D01*
X241169780Y-120883081D01*
X241178884Y-120938467D01*
X241212268Y-120987276D01*
X241427738Y-121202747D01*
X241358949Y-121210839D01*
X241285103Y-121165317D01*
X241216314Y-121070227D01*
X241182931Y-121010543D01*
X241137410Y-120989300D01*
X241073678Y-120998404D01*
X241013994Y-121031787D01*
X240986871Y-121085211D01*
X240308046Y-121085211D01*
X240167961Y-120945126D01*
X240167877Y-120945042D01*
X240115189Y-120886910D01*
X240080464Y-120840089D01*
X240720125Y-120840089D01*
X240725689Y-120891175D01*
X240772222Y-120951870D01*
X240831401Y-120996887D01*
X240882487Y-121001439D01*
X240919916Y-120983230D01*
X240956333Y-120949848D01*
X241286114Y-120620067D01*
X241318991Y-120584155D01*
X241336188Y-120547738D01*
X241331130Y-120497157D01*
X241285103Y-120436968D01*
X241216061Y-120388663D01*
X241156630Y-120391446D01*
X241140444Y-120305460D01*
X241097957Y-120239706D01*
X241065080Y-120211887D01*
X241019558Y-120184574D01*
X240963920Y-120174457D01*
X240912834Y-120200253D01*
X240870980Y-120253236D01*
X240848598Y-120309000D01*
X240870347Y-120400550D01*
X240916881Y-120431909D01*
X240949252Y-120449106D01*
X240984658Y-120513849D01*
X240967461Y-120570499D01*
X240770199Y-120767760D01*
X240737322Y-120803672D01*
X240720125Y-120840089D01*
X240080464Y-120840089D01*
X240068452Y-120823892D01*
X240028118Y-120756598D01*
X239994573Y-120685674D01*
X239968142Y-120611803D01*
X239949078Y-120535698D01*
X239937566Y-120458090D01*
X239933716Y-120379728D01*
X239937566Y-120301365D01*
X239949078Y-120223758D01*
X239968142Y-120147652D01*
X239994573Y-120073782D01*
X240028118Y-120002857D01*
X240068452Y-119935563D01*
X240115189Y-119872546D01*
X240167877Y-119814413D01*
X240226010Y-119761725D01*
X240289027Y-119714988D01*
X240356321Y-119674654D01*
X240427246Y-119641109D01*
X240501116Y-119614678D01*
X240577222Y-119595614D01*
X240654829Y-119584102D01*
X240733192Y-119580252D01*
X240811554Y-119584102D01*
G37*
%TO.C,kibuzzard-685CA698*%
G36*
X228779126Y-125815768D02*
G01*
X228828769Y-125823132D01*
X228877451Y-125835326D01*
X228924703Y-125852233D01*
X228970071Y-125873690D01*
X229013117Y-125899491D01*
X229053427Y-125929387D01*
X229090612Y-125963090D01*
X229124315Y-126000275D01*
X229154211Y-126040585D01*
X229180012Y-126083631D01*
X229201469Y-126128998D01*
X229218377Y-126176252D01*
X229230571Y-126224934D01*
X229237935Y-126274577D01*
X229240397Y-126324702D01*
X229240397Y-126324798D01*
X229240397Y-130558274D01*
X229240397Y-130558370D01*
X229237935Y-130608495D01*
X229230571Y-130658138D01*
X229218377Y-130706820D01*
X229201469Y-130754074D01*
X229180012Y-130799441D01*
X229154211Y-130842487D01*
X229124315Y-130882797D01*
X229090612Y-130919982D01*
X229053427Y-130953685D01*
X229013117Y-130983581D01*
X228970071Y-131009382D01*
X228924703Y-131030839D01*
X228877451Y-131047746D01*
X228828769Y-131059940D01*
X228779126Y-131067304D01*
X228729000Y-131069767D01*
X228678874Y-131067304D01*
X228629231Y-131059940D01*
X228580549Y-131047746D01*
X228533297Y-131030839D01*
X228487929Y-131009382D01*
X228444883Y-130983581D01*
X228404573Y-130953685D01*
X228367388Y-130919982D01*
X228333685Y-130882797D01*
X228303789Y-130842487D01*
X228277988Y-130799441D01*
X228256531Y-130754074D01*
X228239623Y-130706820D01*
X228227429Y-130658138D01*
X228220065Y-130608495D01*
X228217603Y-130558370D01*
X228217603Y-130558274D01*
X228217603Y-130293896D01*
X228365624Y-130293896D01*
X228373064Y-130347688D01*
X228397097Y-130376300D01*
X228425710Y-130386028D01*
X228460617Y-130387745D01*
X228535009Y-130387745D01*
X228535009Y-130470148D01*
X228536725Y-130502766D01*
X228546454Y-130529090D01*
X228575066Y-130551407D01*
X228630001Y-130558274D01*
X228684937Y-130550835D01*
X228713549Y-130526802D01*
X228723278Y-130497616D01*
X228724994Y-130462137D01*
X228724994Y-130387745D01*
X228800531Y-130387746D01*
X228835439Y-130386028D01*
X228863478Y-130376300D01*
X228886368Y-130347688D01*
X228893235Y-130292752D01*
X228885795Y-130238961D01*
X228862333Y-130210349D01*
X228834293Y-130200620D01*
X228799386Y-130198904D01*
X228724994Y-130198904D01*
X228724994Y-130123367D01*
X228723278Y-130088460D01*
X228713549Y-130060419D01*
X228684365Y-130036958D01*
X228628857Y-130029519D01*
X228575066Y-130036386D01*
X228546454Y-130058703D01*
X228536725Y-130085028D01*
X228535009Y-130117645D01*
X228535009Y-130198904D01*
X228459472Y-130198904D01*
X228424565Y-130200620D01*
X228396525Y-130210349D01*
X228373063Y-130238961D01*
X228365624Y-130293896D01*
X228217603Y-130293896D01*
X228217603Y-129743396D01*
X228312977Y-129743396D01*
X228317984Y-129805198D01*
X228333006Y-129862423D01*
X228372491Y-129940247D01*
X228393092Y-129964283D01*
X228462906Y-130007773D01*
X228540731Y-129965427D01*
X228579644Y-129894469D01*
X228541876Y-129816643D01*
X228523564Y-129750263D01*
X228540731Y-129695327D01*
X228588800Y-129675871D01*
X228636296Y-129696472D01*
X228655180Y-129746829D01*
X228639157Y-129791464D01*
X228611690Y-129855556D01*
X228634579Y-129929948D01*
X228668914Y-129980878D01*
X228702104Y-129995184D01*
X229027140Y-129952838D01*
X229059186Y-129947115D01*
X229090660Y-129933954D01*
X229120989Y-129901908D01*
X229131289Y-129847545D01*
X229130144Y-129585456D01*
X229127856Y-129545971D01*
X229116983Y-129515070D01*
X229084937Y-129489319D01*
X229022562Y-129481307D01*
X228965338Y-129488746D01*
X228935008Y-129513353D01*
X228924708Y-129543110D01*
X228922991Y-129579733D01*
X228922991Y-129755985D01*
X228862333Y-129763997D01*
X228864622Y-129744540D01*
X228864622Y-129738818D01*
X228855657Y-129669259D01*
X228828762Y-129605548D01*
X228783936Y-129547688D01*
X228727283Y-129501908D01*
X228664909Y-129474440D01*
X228596811Y-129465284D01*
X228520957Y-129474186D01*
X228453622Y-129500891D01*
X228394809Y-129545399D01*
X228349347Y-129603005D01*
X228322069Y-129669004D01*
X228312977Y-129743396D01*
X228217603Y-129743396D01*
X228217603Y-129030377D01*
X228329000Y-129030377D01*
X228343306Y-129094469D01*
X228386225Y-129133381D01*
X228982506Y-129404626D01*
X229062047Y-129416071D01*
X229116411Y-129351978D01*
X229133578Y-129266143D01*
X229068342Y-129213496D01*
X228623133Y-129032666D01*
X229068342Y-128851836D01*
X229133005Y-128798045D01*
X229116411Y-128713354D01*
X229061475Y-128647545D01*
X228982506Y-128660706D01*
X228386225Y-128931951D01*
X228344451Y-128971436D01*
X228329000Y-129030377D01*
X228217603Y-129030377D01*
X228217603Y-128395184D01*
X228327856Y-128395184D01*
X228333578Y-128455270D01*
X228354179Y-128486743D01*
X228381647Y-128498188D01*
X228419415Y-128500477D01*
X228502246Y-128492466D01*
X228588227Y-128468432D01*
X228668485Y-128434812D01*
X228734150Y-128398045D01*
X228791661Y-128359705D01*
X228847455Y-128321364D01*
X228918413Y-128277301D01*
X228918413Y-128506200D01*
X228920702Y-128545113D01*
X228932147Y-128576586D01*
X228964193Y-128602337D01*
X229023707Y-128610349D01*
X229082647Y-128602337D01*
X229114122Y-128578302D01*
X229125567Y-128548546D01*
X229127856Y-128511922D01*
X229127856Y-128128517D01*
X229119844Y-128069005D01*
X229093521Y-128036958D01*
X229062047Y-128026085D01*
X229022562Y-128024369D01*
X228955896Y-128034812D01*
X228877212Y-128066143D01*
X228795810Y-128109776D01*
X228720989Y-128157130D01*
X228645881Y-128204483D01*
X228563621Y-128248118D01*
X228484079Y-128279447D01*
X228417126Y-128289891D01*
X228381074Y-128292180D01*
X228354179Y-128304197D01*
X228334149Y-128336243D01*
X228327856Y-128395184D01*
X228217603Y-128395184D01*
X228217603Y-127602051D01*
X228217603Y-127180878D01*
X228327856Y-127180878D01*
X228327856Y-127602051D01*
X228335867Y-127661565D01*
X228362190Y-127693610D01*
X228393664Y-127704483D01*
X228433149Y-127706200D01*
X229024851Y-127706200D01*
X229106682Y-127682738D01*
X229129000Y-127598618D01*
X229129000Y-127179733D01*
X229127283Y-127140248D01*
X229116411Y-127109347D01*
X229084365Y-127083595D01*
X229023707Y-127075585D01*
X228964193Y-127083596D01*
X228932147Y-127109919D01*
X228921275Y-127141393D01*
X228919558Y-127180878D01*
X228919558Y-127496758D01*
X228817698Y-127496758D01*
X228817698Y-127285028D01*
X228815981Y-127247831D01*
X228806825Y-127220363D01*
X228779358Y-127198618D01*
X228727283Y-127192323D01*
X228676353Y-127198618D01*
X228650030Y-127220935D01*
X228640874Y-127249547D01*
X228639157Y-127287316D01*
X228639156Y-127496758D01*
X228537298Y-127496758D01*
X228537298Y-127179733D01*
X228535582Y-127140248D01*
X228524708Y-127109347D01*
X228492662Y-127083596D01*
X228432004Y-127075585D01*
X228372491Y-127083595D01*
X228340446Y-127109919D01*
X228329572Y-127141393D01*
X228327856Y-127180878D01*
X228217603Y-127180878D01*
X228217603Y-126924512D01*
X228327855Y-126924512D01*
X228335867Y-126983454D01*
X228361618Y-127014354D01*
X228393092Y-127025227D01*
X228433149Y-127027516D01*
X229027140Y-127027516D01*
X229065481Y-127025227D01*
X229095810Y-127013782D01*
X229120416Y-126982309D01*
X229127856Y-126922223D01*
X229120989Y-126870148D01*
X229106682Y-126840964D01*
X229083220Y-126820363D01*
X228698671Y-126534240D01*
X229027140Y-126534240D01*
X229064908Y-126531951D01*
X229095237Y-126520506D01*
X229119844Y-126488460D01*
X229127856Y-126428947D01*
X229119844Y-126369432D01*
X229093521Y-126337387D01*
X229062047Y-126326515D01*
X229022562Y-126324798D01*
X228432004Y-126324798D01*
X228392519Y-126326515D01*
X228361618Y-126337387D01*
X228335867Y-126369433D01*
X228327856Y-126430091D01*
X228334150Y-126489032D01*
X228358757Y-126522795D01*
X228750174Y-126819218D01*
X228432004Y-126819218D01*
X228392519Y-126820935D01*
X228361618Y-126831808D01*
X228335867Y-126863853D01*
X228327855Y-126924512D01*
X228217603Y-126924512D01*
X228217603Y-126324798D01*
X228217603Y-126324702D01*
X228220065Y-126274577D01*
X228227429Y-126224934D01*
X228239623Y-126176252D01*
X228256531Y-126128998D01*
X228277988Y-126083631D01*
X228303789Y-126040585D01*
X228333685Y-126000275D01*
X228367388Y-125963090D01*
X228404573Y-125929387D01*
X228444883Y-125899491D01*
X228487929Y-125873690D01*
X228533297Y-125852233D01*
X228580549Y-125835326D01*
X228629231Y-125823132D01*
X228678874Y-125815768D01*
X228729000Y-125813305D01*
X228779126Y-125815768D01*
G37*
%TO.C,kibuzzard-68621440*%
G36*
X255674772Y-139443374D02*
G01*
X255704814Y-139518481D01*
X255704814Y-139671557D01*
X255495944Y-139671557D01*
X255495944Y-139517051D01*
X255521694Y-139446235D01*
X255600379Y-139412616D01*
X255674772Y-139443374D01*
G37*
G36*
X255536735Y-135916116D02*
G01*
X255597678Y-135925156D01*
X255657441Y-135940126D01*
X255715449Y-135960881D01*
X255771144Y-135987223D01*
X255823987Y-136018896D01*
X255873473Y-136055597D01*
X255919123Y-136096972D01*
X255960497Y-136142621D01*
X255997198Y-136192106D01*
X256028872Y-136244951D01*
X256055214Y-136300645D01*
X256075969Y-136358653D01*
X256090939Y-136418416D01*
X256099979Y-136479359D01*
X256103002Y-136540894D01*
X256103002Y-136660112D01*
X256103002Y-139933360D01*
X256103002Y-140052578D01*
X256099979Y-140114113D01*
X256090939Y-140175056D01*
X256075969Y-140234819D01*
X256055214Y-140292827D01*
X256028872Y-140348521D01*
X255997198Y-140401366D01*
X255960497Y-140450851D01*
X255919123Y-140496500D01*
X255873473Y-140537875D01*
X255823987Y-140574576D01*
X255771144Y-140606249D01*
X255715449Y-140632591D01*
X255657441Y-140653346D01*
X255597678Y-140668316D01*
X255536735Y-140677356D01*
X255475200Y-140680379D01*
X255413665Y-140677356D01*
X255352722Y-140668316D01*
X255292959Y-140653346D01*
X255234951Y-140632591D01*
X255179256Y-140606249D01*
X255126413Y-140574576D01*
X255076927Y-140537875D01*
X255031277Y-140496500D01*
X254989903Y-140450851D01*
X254953202Y-140401366D01*
X254921528Y-140348521D01*
X254895186Y-140292827D01*
X254874431Y-140234819D01*
X254859461Y-140175056D01*
X254850421Y-140114113D01*
X254847398Y-140052578D01*
X254847398Y-139933360D01*
X254847397Y-139803174D01*
X254966616Y-139803174D01*
X254976631Y-139877566D01*
X255009535Y-139917623D01*
X255048878Y-139931214D01*
X255098233Y-139933360D01*
X255836430Y-139933360D01*
X255884356Y-139931213D01*
X255923698Y-139917623D01*
X255956602Y-139877566D01*
X255966616Y-139801743D01*
X255966617Y-139517051D01*
X255960894Y-139458754D01*
X255943725Y-139398310D01*
X255915829Y-139338224D01*
X255877919Y-139280999D01*
X255827310Y-139230034D01*
X255761323Y-139188725D01*
X255683891Y-139161364D01*
X255598949Y-139152244D01*
X255514363Y-139161185D01*
X255438004Y-139188009D01*
X255373090Y-139228961D01*
X255322839Y-139280284D01*
X255284928Y-139338224D01*
X255257031Y-139399025D01*
X255239864Y-139460005D01*
X255234141Y-139518481D01*
X255234141Y-139671557D01*
X255096802Y-139671557D01*
X255047446Y-139673703D01*
X255008819Y-139687294D01*
X254976631Y-139727351D01*
X254966616Y-139803174D01*
X254847397Y-139803174D01*
X254847398Y-138717337D01*
X254847398Y-138193732D01*
X254966616Y-138193732D01*
X254979492Y-138254532D01*
X255011681Y-138294590D01*
X255041724Y-138313188D01*
X255062468Y-138321056D01*
X255503097Y-138455534D01*
X255063898Y-138590012D01*
X254990937Y-138636149D01*
X254966616Y-138717337D01*
X254987360Y-138788868D01*
X255024556Y-138827494D01*
X255055314Y-138840370D01*
X255793512Y-139097880D01*
X255899377Y-139104318D01*
X255959463Y-139014905D01*
X255965901Y-138908324D01*
X255877918Y-138850384D01*
X255443011Y-138701600D01*
X255870765Y-138584290D01*
X255942653Y-138540656D01*
X255966616Y-138458395D01*
X255963040Y-138416907D01*
X255950881Y-138385434D01*
X255935143Y-138363260D01*
X255916545Y-138347523D01*
X255898662Y-138338224D01*
X255880779Y-138331071D01*
X255869334Y-138326779D01*
X255440150Y-138209468D01*
X255877919Y-138060684D01*
X255966617Y-138002745D01*
X255960894Y-137894732D01*
X255897947Y-137805320D01*
X255793513Y-137813188D01*
X255055314Y-138069268D01*
X254988790Y-138113975D01*
X254966616Y-138193732D01*
X254847398Y-138193732D01*
X254847398Y-137608609D01*
X254847398Y-136791729D01*
X254966616Y-136791729D01*
X254976631Y-136866121D01*
X255009535Y-136906178D01*
X255048877Y-136919769D01*
X255098233Y-136921915D01*
X255504528Y-136921915D01*
X255277060Y-137089297D01*
X255265615Y-137097880D01*
X255249878Y-137111471D01*
X255235572Y-137130069D01*
X255222696Y-137160112D01*
X255218405Y-137199454D01*
X255233068Y-137263832D01*
X255277060Y-137311042D01*
X255503097Y-137476993D01*
X255095372Y-137476993D01*
X255047446Y-137479139D01*
X255008819Y-137492730D01*
X254976631Y-137532787D01*
X254966616Y-137608610D01*
X254976631Y-137682286D01*
X255008819Y-137720913D01*
X255048161Y-137734504D01*
X255098233Y-137737365D01*
X255836430Y-137737365D01*
X255884356Y-137735220D01*
X255922982Y-137721629D01*
X255955171Y-137681571D01*
X255965186Y-137605749D01*
X255963040Y-137567838D01*
X255959463Y-137542086D01*
X255953025Y-137523488D01*
X255945872Y-137511328D01*
X255935143Y-137500599D01*
X255925128Y-137491300D01*
X255550307Y-137199454D01*
X255923698Y-136909039D01*
X255956602Y-136866121D01*
X255965186Y-136790298D01*
X255955171Y-136715906D01*
X255922983Y-136676564D01*
X255883641Y-136662974D01*
X255833569Y-136660112D01*
X255095372Y-136660112D01*
X255046731Y-136662973D01*
X255008104Y-136677280D01*
X254976631Y-136716622D01*
X254966616Y-136791729D01*
X254847398Y-136791729D01*
X254847398Y-136660112D01*
X254847398Y-136540894D01*
X254850421Y-136479359D01*
X254859461Y-136418416D01*
X254874431Y-136358653D01*
X254895186Y-136300645D01*
X254921528Y-136244951D01*
X254953202Y-136192106D01*
X254989903Y-136142621D01*
X255031277Y-136096972D01*
X255076927Y-136055597D01*
X255126413Y-136018896D01*
X255179256Y-135987223D01*
X255234951Y-135960881D01*
X255292959Y-135940126D01*
X255352722Y-135925156D01*
X255413665Y-135916116D01*
X255475200Y-135913093D01*
X255536735Y-135916116D01*
G37*
%TO.C,kibuzzard-686202CD*%
G36*
X251916200Y-135771087D02*
G01*
X251977036Y-135774076D01*
X252037284Y-135783013D01*
X252096366Y-135797812D01*
X252153713Y-135818332D01*
X252208773Y-135844373D01*
X252261015Y-135875686D01*
X252309937Y-135911968D01*
X252355066Y-135952871D01*
X252395969Y-135998001D01*
X252432252Y-136046922D01*
X252463564Y-136099164D01*
X252489606Y-136154224D01*
X252510125Y-136211571D01*
X252524924Y-136270653D01*
X252533861Y-136330902D01*
X252536849Y-136391736D01*
X252533861Y-136452570D01*
X252524924Y-136512819D01*
X252510125Y-136571901D01*
X252489606Y-136629248D01*
X252463564Y-136684308D01*
X252432252Y-136736550D01*
X252395969Y-136785471D01*
X252355066Y-136830601D01*
X252309937Y-136871504D01*
X252261015Y-136907786D01*
X252208773Y-136939099D01*
X252153713Y-136965140D01*
X252096366Y-136985660D01*
X252037284Y-137000459D01*
X251977036Y-137009396D01*
X251916200Y-137012385D01*
X251796983Y-137012386D01*
X251362076Y-137012385D01*
X250718300Y-137012386D01*
X250060217Y-137012386D01*
X249941000Y-137012385D01*
X249880164Y-137009396D01*
X249819916Y-137000459D01*
X249760834Y-136985660D01*
X249703487Y-136965140D01*
X249648427Y-136939099D01*
X249596185Y-136907786D01*
X249547263Y-136871504D01*
X249502134Y-136830601D01*
X249461231Y-136785471D01*
X249424948Y-136736550D01*
X249393636Y-136684308D01*
X249367594Y-136629248D01*
X249347075Y-136571901D01*
X249332276Y-136512819D01*
X249323339Y-136452570D01*
X249320351Y-136391736D01*
X249323339Y-136330902D01*
X249332276Y-136270653D01*
X249347075Y-136211571D01*
X249367594Y-136154224D01*
X249393636Y-136099164D01*
X249424948Y-136046922D01*
X249442429Y-136023352D01*
X250060217Y-136023352D01*
X250070230Y-136097745D01*
X250103136Y-136137802D01*
X250142477Y-136151393D01*
X250191833Y-136153539D01*
X250586683Y-136153539D01*
X250586683Y-136280863D01*
X250322019Y-136280862D01*
X250275524Y-136283009D01*
X250241189Y-136294454D01*
X250214008Y-136328789D01*
X250206138Y-136393882D01*
X250214008Y-136457544D01*
X250241905Y-136490448D01*
X250277670Y-136501893D01*
X250324880Y-136504039D01*
X250586683Y-136504039D01*
X250586683Y-136631364D01*
X250190402Y-136631364D01*
X250141046Y-136633510D01*
X250102420Y-136647101D01*
X250070231Y-136687157D01*
X250060217Y-136762980D01*
X250070231Y-136837372D01*
X250103136Y-136877430D01*
X250142477Y-136891021D01*
X250191833Y-136893167D01*
X250718300Y-136893167D01*
X250792692Y-136883152D01*
X250832749Y-136850248D01*
X250846339Y-136810906D01*
X250848486Y-136761550D01*
X250848486Y-136021922D01*
X250842333Y-136000463D01*
X250924308Y-136000463D01*
X250932891Y-136063410D01*
X250960789Y-136097029D01*
X250993693Y-136108474D01*
X251034467Y-136110620D01*
X251231889Y-136110620D01*
X251231890Y-136765841D01*
X251234036Y-136813767D01*
X251247627Y-136851679D01*
X251287684Y-136883152D01*
X251362076Y-136893167D01*
X251435753Y-136883152D01*
X251474380Y-136850963D01*
X251487255Y-136812337D01*
X251489401Y-136764411D01*
X251489401Y-136110620D01*
X251688258Y-136110620D01*
X251729029Y-136108474D01*
X251761218Y-136097029D01*
X251788400Y-136063410D01*
X251796983Y-135999032D01*
X251788400Y-135936800D01*
X251760503Y-135903896D01*
X251727599Y-135892451D01*
X251686826Y-135890305D01*
X251033035Y-135890305D01*
X250992262Y-135892451D01*
X250960074Y-135903897D01*
X250932892Y-135937516D01*
X250924308Y-136000463D01*
X250842333Y-136000463D01*
X250819158Y-135919633D01*
X250714008Y-135891736D01*
X250190403Y-135891737D01*
X250141046Y-135893882D01*
X250102420Y-135907473D01*
X250070231Y-135947529D01*
X250060217Y-136023352D01*
X249442429Y-136023352D01*
X249461231Y-135998001D01*
X249502134Y-135952871D01*
X249547263Y-135911968D01*
X249596185Y-135875686D01*
X249648427Y-135844373D01*
X249703487Y-135818332D01*
X249760834Y-135797812D01*
X249819916Y-135783013D01*
X249880164Y-135774076D01*
X249941000Y-135771087D01*
X250060217Y-135771086D01*
X251796983Y-135771086D01*
X251916200Y-135771087D01*
G37*
%TO.C,kibuzzard-685CA724*%
G36*
X244154018Y-116142239D02*
G01*
X244154018Y-116144527D01*
X244149440Y-116138805D01*
X244150585Y-116137660D01*
X244154018Y-116142239D01*
G37*
G36*
X244027552Y-116289305D02*
G01*
X244045291Y-116351680D01*
X244026979Y-116413483D01*
X243976622Y-116435228D01*
X243924547Y-116412338D01*
X243905662Y-116349391D01*
X243924547Y-116288733D01*
X243976622Y-116266988D01*
X244027552Y-116289305D01*
G37*
G36*
X244157452Y-116554256D02*
G01*
X244150585Y-116563410D01*
X244149440Y-116562267D01*
X244148296Y-116563411D01*
X244143718Y-116557689D01*
X244144862Y-116557689D01*
X244149440Y-116562267D01*
X244157452Y-116553111D01*
X244157452Y-116554256D01*
G37*
G36*
X244322258Y-116305901D02*
G01*
X244334848Y-116350537D01*
X244322831Y-116395171D01*
X244286780Y-116410049D01*
X244251300Y-116394026D01*
X244238710Y-116349391D01*
X244250728Y-116304756D01*
X244286779Y-116289878D01*
X244322258Y-116305901D01*
G37*
G36*
X244196793Y-115186587D02*
G01*
X244262174Y-115227789D01*
X244306378Y-115288161D01*
X244321114Y-115359406D01*
X244306379Y-115431509D01*
X244262173Y-115492167D01*
X244196793Y-115533368D01*
X244118539Y-115547101D01*
X244041858Y-115533225D01*
X243976622Y-115491594D01*
X243931987Y-115431079D01*
X243917108Y-115360550D01*
X243931557Y-115287732D01*
X243974905Y-115227217D01*
X244039712Y-115186444D01*
X244118539Y-115172852D01*
X244196793Y-115186587D01*
G37*
G36*
X244171525Y-112950519D02*
G01*
X244221169Y-112957882D01*
X244269851Y-112970077D01*
X244317103Y-112986985D01*
X244362471Y-113008441D01*
X244405517Y-113034242D01*
X244445827Y-113064138D01*
X244483012Y-113097841D01*
X244516715Y-113135026D01*
X244546611Y-113175336D01*
X244572412Y-113218382D01*
X244593869Y-113263750D01*
X244610777Y-113311002D01*
X244622971Y-113359685D01*
X244630334Y-113409328D01*
X244632797Y-113459453D01*
X244632797Y-113459549D01*
X244632797Y-117921923D01*
X244632797Y-117922019D01*
X244630334Y-117972144D01*
X244622971Y-118021787D01*
X244610777Y-118070470D01*
X244593869Y-118117722D01*
X244572412Y-118163090D01*
X244546611Y-118206136D01*
X244516715Y-118246446D01*
X244483012Y-118283631D01*
X244445827Y-118317334D01*
X244405517Y-118347230D01*
X244362471Y-118373031D01*
X244317103Y-118394487D01*
X244269851Y-118411395D01*
X244221169Y-118423590D01*
X244171525Y-118430953D01*
X244121400Y-118433417D01*
X244071275Y-118430953D01*
X244021631Y-118423590D01*
X243972949Y-118411395D01*
X243925697Y-118394487D01*
X243880329Y-118373031D01*
X243837283Y-118347230D01*
X243796973Y-118317334D01*
X243759788Y-118283631D01*
X243726085Y-118246446D01*
X243696189Y-118206136D01*
X243670388Y-118163090D01*
X243648931Y-118117722D01*
X243632023Y-118070470D01*
X243619829Y-118021787D01*
X243612466Y-117972144D01*
X243610003Y-117922019D01*
X243610003Y-117921923D01*
X243610003Y-117631222D01*
X243717967Y-117631222D01*
X243740856Y-117711337D01*
X243822115Y-117734227D01*
X244208954Y-117734227D01*
X244198653Y-117745672D01*
X244165463Y-117816058D01*
X244205520Y-117884155D01*
X244281057Y-117919633D01*
X244317680Y-117906473D01*
X244356593Y-117871566D01*
X244487065Y-117726215D01*
X244501944Y-117707903D01*
X244521400Y-117630078D01*
X244497939Y-117549963D01*
X244416107Y-117527074D01*
X243820972Y-117527074D01*
X243740856Y-117549963D01*
X243717967Y-117631222D01*
X243610003Y-117631222D01*
X243610003Y-117074999D01*
X243721400Y-117074999D01*
X243735706Y-117139091D01*
X243778625Y-117178004D01*
X244374905Y-117449248D01*
X244454447Y-117460693D01*
X244508811Y-117396601D01*
X244525978Y-117310765D01*
X244460742Y-117258117D01*
X244015534Y-117077288D01*
X244460742Y-116896458D01*
X244525406Y-116842667D01*
X244508811Y-116757975D01*
X244453875Y-116692167D01*
X244374905Y-116705328D01*
X243778625Y-116976574D01*
X243736851Y-117016058D01*
X243721400Y-117074999D01*
X243610003Y-117074999D01*
X243610003Y-116348247D01*
X243705377Y-116348247D01*
X243714152Y-116427662D01*
X243740475Y-116498048D01*
X243784347Y-116559406D01*
X243841317Y-116606775D01*
X243906935Y-116635196D01*
X243981200Y-116644670D01*
X244041476Y-116635641D01*
X244097175Y-116608555D01*
X244148296Y-116563411D01*
X244149440Y-116564556D01*
X244150585Y-116563410D01*
X244211815Y-116607187D01*
X244285635Y-116621780D01*
X244352269Y-116612880D01*
X244411783Y-116586174D01*
X244464175Y-116541666D01*
X244504868Y-116484568D01*
X244529284Y-116420095D01*
X244537423Y-116348247D01*
X244529157Y-116277288D01*
X244504360Y-116213960D01*
X244463031Y-116158262D01*
X244409748Y-116115025D01*
X244349090Y-116089083D01*
X244281057Y-116080436D01*
X244215821Y-116094742D01*
X244150585Y-116137660D01*
X244149440Y-116136516D01*
X244148296Y-116137660D01*
X244095649Y-116093152D01*
X244039950Y-116066447D01*
X243981200Y-116057546D01*
X243904074Y-116067592D01*
X243837502Y-116097730D01*
X243781486Y-116147960D01*
X243739203Y-116210399D01*
X243713834Y-116277161D01*
X243705377Y-116348247D01*
X243610003Y-116348247D01*
X243610003Y-115354828D01*
X243707666Y-115354828D01*
X243715105Y-115434799D01*
X243737423Y-115508762D01*
X243774619Y-115576716D01*
X243826693Y-115638662D01*
X243889283Y-115690235D01*
X243958024Y-115727074D01*
X244032915Y-115749177D01*
X244113961Y-115756544D01*
X244197652Y-115749391D01*
X244274762Y-115727932D01*
X244345291Y-115692167D01*
X244409240Y-115642095D01*
X244462316Y-115581795D01*
X244500228Y-115515343D01*
X244522974Y-115442739D01*
X244530556Y-115363983D01*
X244523081Y-115283583D01*
X244500656Y-115209477D01*
X244463280Y-115141666D01*
X244410957Y-115080149D01*
X244347831Y-115029076D01*
X244278052Y-114992596D01*
X244201622Y-114970707D01*
X244118539Y-114963412D01*
X244036887Y-114970600D01*
X243961314Y-114992167D01*
X243891822Y-115028111D01*
X243828410Y-115078433D01*
X243775584Y-115138840D01*
X243737852Y-115205042D01*
X243715213Y-115277038D01*
X243707666Y-115354828D01*
X243610003Y-115354828D01*
X243610003Y-114562839D01*
X243610003Y-114562838D01*
X243707666Y-114562838D01*
X243716393Y-114642667D01*
X243742573Y-114715056D01*
X243783060Y-114777288D01*
X243834705Y-114826644D01*
X243894504Y-114864556D01*
X243959454Y-114892453D01*
X244027552Y-114909620D01*
X244096793Y-114915343D01*
X244417251Y-114915343D01*
X244456736Y-114913626D01*
X244488210Y-114902753D01*
X244514533Y-114870707D01*
X244522544Y-114810049D01*
X244514533Y-114749963D01*
X244488782Y-114718490D01*
X244456736Y-114707045D01*
X244416107Y-114704756D01*
X244096793Y-114704756D01*
X244016108Y-114693311D01*
X243948582Y-114647531D01*
X243925835Y-114608333D01*
X243918252Y-114559406D01*
X243930556Y-114500750D01*
X243967466Y-114455257D01*
X244024690Y-114426072D01*
X244097938Y-114416344D01*
X244422974Y-114416344D01*
X244460170Y-114414055D01*
X244489926Y-114402610D01*
X244514533Y-114370563D01*
X244522544Y-114311051D01*
X244514533Y-114251538D01*
X244487637Y-114219491D01*
X244455591Y-114208619D01*
X244416107Y-114206902D01*
X244094504Y-114206902D01*
X244025263Y-114212767D01*
X243957165Y-114230364D01*
X243892359Y-114258833D01*
X243832988Y-114297317D01*
X243781914Y-114347245D01*
X243742001Y-114410049D01*
X243716250Y-114482868D01*
X243707666Y-114562838D01*
X243610003Y-114562838D01*
X243610003Y-113809763D01*
X243720256Y-113809763D01*
X243728267Y-113868706D01*
X243754018Y-113899606D01*
X243784919Y-113909906D01*
X243823260Y-113911623D01*
X244346292Y-113911623D01*
X244346293Y-114070707D01*
X244348009Y-114103325D01*
X244357165Y-114129077D01*
X244384061Y-114150822D01*
X244435563Y-114157689D01*
X244485348Y-114150821D01*
X244511672Y-114128504D01*
X244520828Y-114102181D01*
X244522544Y-114069563D01*
X244522544Y-113546530D01*
X244520828Y-113513912D01*
X244511672Y-113488161D01*
X244484776Y-113466416D01*
X244434418Y-113459549D01*
X244384061Y-113466416D01*
X244357165Y-113488733D01*
X244348009Y-113515056D01*
X244346293Y-113547674D01*
X244346293Y-113705614D01*
X243822115Y-113705614D01*
X243783775Y-113707331D01*
X243753446Y-113718204D01*
X243728267Y-113750250D01*
X243720256Y-113809763D01*
X243610003Y-113809763D01*
X243610003Y-113459549D01*
X243610003Y-113459453D01*
X243612466Y-113409328D01*
X243619829Y-113359685D01*
X243632023Y-113311002D01*
X243648931Y-113263750D01*
X243670388Y-113218382D01*
X243696189Y-113175336D01*
X243726085Y-113135026D01*
X243759788Y-113097841D01*
X243796973Y-113064138D01*
X243837283Y-113034242D01*
X243880329Y-113008441D01*
X243925697Y-112986985D01*
X243972949Y-112970077D01*
X244021631Y-112957882D01*
X244071275Y-112950519D01*
X244121400Y-112948055D01*
X244171525Y-112950519D01*
G37*
%TO.C,kibuzzard-685CA5E3*%
G36*
X229172940Y-139086776D02*
G01*
X229199835Y-139137706D01*
X229071652Y-139137706D01*
X229040752Y-139110238D01*
X229059063Y-139076476D01*
X229108276Y-139064459D01*
X229172940Y-139086776D01*
G37*
G36*
X229821296Y-139125117D02*
G01*
X229845329Y-139183486D01*
X229820150Y-139241282D01*
X229761781Y-139265889D01*
X229704556Y-139241282D01*
X229680522Y-139183486D01*
X229704556Y-139125117D01*
X229762926Y-139101082D01*
X229821296Y-139125117D01*
G37*
G36*
X230457060Y-139115388D02*
G01*
X230483956Y-139182341D01*
X230454199Y-139252155D01*
X230391252Y-139275045D01*
X230327160Y-139252155D01*
X230296258Y-139181197D01*
X230322582Y-139113672D01*
X230392396Y-139088493D01*
X230457060Y-139115388D01*
G37*
G36*
X232233312Y-139125117D02*
G01*
X232257918Y-139183486D01*
X232232167Y-139240139D01*
X232172082Y-139264745D01*
X232116574Y-139240138D01*
X232093112Y-139182341D01*
X232116574Y-139123972D01*
X232174371Y-139099938D01*
X232233312Y-139125117D01*
G37*
G36*
X233239789Y-138537842D02*
G01*
X233290599Y-138545379D01*
X233340425Y-138557860D01*
X233388789Y-138575164D01*
X233435222Y-138597126D01*
X233479278Y-138623533D01*
X233520536Y-138654132D01*
X233558596Y-138688626D01*
X233593091Y-138726685D01*
X233623689Y-138767943D01*
X233650096Y-138812000D01*
X233672058Y-138858434D01*
X233689362Y-138906796D01*
X233701843Y-138956623D01*
X233709380Y-139007432D01*
X233711900Y-139058736D01*
X233709380Y-139110040D01*
X233701843Y-139160849D01*
X233689362Y-139210676D01*
X233672058Y-139259038D01*
X233650096Y-139305472D01*
X233623689Y-139349529D01*
X233593091Y-139390787D01*
X233558596Y-139428846D01*
X233520536Y-139463340D01*
X233479278Y-139493939D01*
X233435222Y-139520346D01*
X233388789Y-139542308D01*
X233340425Y-139559612D01*
X233290599Y-139572093D01*
X233239789Y-139579630D01*
X233188486Y-139582150D01*
X233188391Y-139582150D01*
X232774084Y-139582150D01*
X231983240Y-139582151D01*
X231499120Y-139582150D01*
X230845615Y-139582150D01*
X230388963Y-139582151D01*
X229574084Y-139582150D01*
X229107132Y-139582150D01*
X228841609Y-139582150D01*
X228841514Y-139582150D01*
X228790210Y-139579630D01*
X228739401Y-139572093D01*
X228689575Y-139559612D01*
X228641211Y-139542308D01*
X228594778Y-139520346D01*
X228550722Y-139493939D01*
X228509463Y-139463341D01*
X228471404Y-139428846D01*
X228436909Y-139390787D01*
X228406311Y-139349529D01*
X228379904Y-139305472D01*
X228357942Y-139259038D01*
X228340638Y-139210676D01*
X228328157Y-139160849D01*
X228320819Y-139111384D01*
X228841609Y-139111384D01*
X228849478Y-139168178D01*
X228873083Y-139210381D01*
X228909564Y-139236561D01*
X228956059Y-139245288D01*
X229199835Y-139245288D01*
X229165501Y-139288779D01*
X229097976Y-139304802D01*
X229005272Y-139289923D01*
X228952625Y-139275045D01*
X228914858Y-139288779D01*
X228883956Y-139329981D01*
X228869077Y-139382627D01*
X228883956Y-139428192D01*
X228928591Y-139460739D01*
X229002984Y-139480267D01*
X229107133Y-139486776D01*
X229183813Y-139479766D01*
X229251338Y-139458736D01*
X229307275Y-139426260D01*
X229349192Y-139384916D01*
X229379807Y-139337992D01*
X229401838Y-139288779D01*
X229415143Y-139237849D01*
X229419578Y-139185775D01*
X229409850Y-139101273D01*
X229380665Y-139027835D01*
X229332024Y-138965460D01*
X229267997Y-138918091D01*
X229192651Y-138889669D01*
X229105987Y-138880194D01*
X229027208Y-138888461D01*
X228961780Y-138913258D01*
X228909708Y-138954587D01*
X228858634Y-139030982D01*
X228841609Y-139111384D01*
X228320819Y-139111384D01*
X228320620Y-139110040D01*
X228318100Y-139058736D01*
X228320620Y-139007432D01*
X228328157Y-138956623D01*
X228340638Y-138906796D01*
X228357942Y-138858434D01*
X228379904Y-138812000D01*
X228406311Y-138767943D01*
X228431706Y-138733700D01*
X229471080Y-138733700D01*
X229471080Y-139368893D01*
X229472797Y-139407234D01*
X229483670Y-139438707D01*
X229515143Y-139465031D01*
X229574084Y-139473042D01*
X229635315Y-139462456D01*
X229667933Y-139430696D01*
X229723441Y-139461597D01*
X229789249Y-139471898D01*
X229855439Y-139462106D01*
X229916669Y-139432731D01*
X229972940Y-139383772D01*
X230017766Y-139322097D01*
X230044661Y-139254571D01*
X230053488Y-139182340D01*
X230086817Y-139182340D01*
X230097308Y-139266652D01*
X230128782Y-139339518D01*
X230181237Y-139400940D01*
X230246283Y-139447355D01*
X230315525Y-139475204D01*
X230388963Y-139484486D01*
X230463100Y-139475013D01*
X230532914Y-139446592D01*
X230598405Y-139399222D01*
X230651179Y-139337356D01*
X230682843Y-139265444D01*
X230693398Y-139183487D01*
X230693398Y-139183486D01*
X230741466Y-139183486D01*
X230741466Y-139371182D01*
X230743182Y-139409523D01*
X230754056Y-139440424D01*
X230786102Y-139466175D01*
X230845615Y-139474187D01*
X230904556Y-139466175D01*
X230936030Y-139440996D01*
X230947475Y-139409522D01*
X230949764Y-139368893D01*
X230949764Y-139182341D01*
X230970365Y-139123400D01*
X231026445Y-139101082D01*
X231083670Y-139120539D01*
X231114571Y-139165174D01*
X231114571Y-139371182D01*
X231116288Y-139410095D01*
X231127160Y-139440424D01*
X231159206Y-139466175D01*
X231218720Y-139474187D01*
X231277660Y-139466175D01*
X231309134Y-139440424D01*
X231320007Y-139409522D01*
X231321724Y-139370038D01*
X231321724Y-138999222D01*
X231365215Y-138999222D01*
X231373798Y-139055874D01*
X231398977Y-139087348D01*
X231430451Y-139099365D01*
X231469363Y-139102227D01*
X231528877Y-139101082D01*
X231528877Y-139233843D01*
X231522582Y-139268178D01*
X231497976Y-139277335D01*
X231455629Y-139279623D01*
X231424728Y-139290497D01*
X231401838Y-139318536D01*
X231394971Y-139371182D01*
X231403555Y-139430124D01*
X231430451Y-139461597D01*
X231461924Y-139472470D01*
X231499120Y-139474187D01*
X231572940Y-139467956D01*
X231632644Y-139449262D01*
X231678233Y-139418107D01*
X231710343Y-139373853D01*
X231729608Y-139315865D01*
X231736030Y-139244144D01*
X231736030Y-139098793D01*
X231764642Y-139098794D01*
X231817861Y-139073614D01*
X231833312Y-138998078D01*
X231833028Y-138996933D01*
X231879092Y-138996933D01*
X231879092Y-139368893D01*
X231880808Y-139407806D01*
X231891681Y-139438136D01*
X231923727Y-139463886D01*
X231983240Y-139471898D01*
X232048190Y-139461597D01*
X232080522Y-139430696D01*
X232135172Y-139461597D01*
X232200694Y-139471898D01*
X232266884Y-139462106D01*
X232328114Y-139432731D01*
X232384385Y-139383772D01*
X232429211Y-139322096D01*
X232456106Y-139254571D01*
X232465072Y-139181197D01*
X232456043Y-139109729D01*
X232428956Y-139043349D01*
X232383813Y-138982055D01*
X232327351Y-138933096D01*
X232266311Y-138903721D01*
X232200694Y-138893929D01*
X232133455Y-138905374D01*
X232080522Y-138939709D01*
X232051339Y-138904516D01*
X231982096Y-138892785D01*
X231923154Y-138900796D01*
X231891681Y-138927119D01*
X231880808Y-138958593D01*
X231879092Y-138996933D01*
X231833028Y-138996933D01*
X231815000Y-138924258D01*
X231760064Y-138899652D01*
X231736030Y-138899652D01*
X231736030Y-138809238D01*
X232497117Y-138809238D01*
X232522296Y-138873328D01*
X232565215Y-138919680D01*
X232604700Y-138935131D01*
X232666502Y-138908808D01*
X232673941Y-138903657D01*
X232683670Y-138897363D01*
X232694542Y-138891068D01*
X232709993Y-138885345D01*
X232728305Y-138880766D01*
X232751195Y-138876762D01*
X232778662Y-138875617D01*
X232843898Y-138887062D01*
X232908562Y-138920825D01*
X232959491Y-138983200D01*
X232974084Y-139026118D01*
X232978948Y-139074759D01*
X232970222Y-139137277D01*
X232944041Y-139189780D01*
X232906989Y-139229981D01*
X232865644Y-139255589D01*
X232778662Y-139273901D01*
X232718289Y-139264458D01*
X232660780Y-139236132D01*
X232603555Y-139213242D01*
X232564642Y-139229551D01*
X232523441Y-139278478D01*
X232498262Y-139344859D01*
X232514285Y-139386633D01*
X232561209Y-139421540D01*
X232629115Y-139457146D01*
X232700074Y-139478510D01*
X232774084Y-139485632D01*
X232822582Y-139482198D01*
X232874227Y-139471898D01*
X232928305Y-139453443D01*
X232984099Y-139425546D01*
X233037747Y-139389494D01*
X233085386Y-139346577D01*
X233126159Y-139293786D01*
X233159206Y-139228121D01*
X233181094Y-139152298D01*
X233188391Y-139069036D01*
X233181237Y-138988922D01*
X233159778Y-138915674D01*
X233127160Y-138852012D01*
X233086531Y-138800653D01*
X233038891Y-138758879D01*
X232985243Y-138723972D01*
X232929163Y-138696933D01*
X232874227Y-138678765D01*
X232821152Y-138668464D01*
X232770651Y-138665031D01*
X232702490Y-138672152D01*
X232632295Y-138693516D01*
X232560064Y-138729122D01*
X232529162Y-138750868D01*
X232507990Y-138774902D01*
X232497117Y-138809238D01*
X231736030Y-138809238D01*
X231736030Y-138800081D01*
X231734313Y-138761740D01*
X231723441Y-138731983D01*
X231691967Y-138707949D01*
X231631881Y-138700510D01*
X231574084Y-138708522D01*
X231542611Y-138734272D01*
X231531166Y-138766318D01*
X231528876Y-138804659D01*
X231528876Y-138896218D01*
X231468219Y-138893929D01*
X231437890Y-138894501D01*
X231410994Y-138900797D01*
X231386388Y-138916820D01*
X231371509Y-138948293D01*
X231365215Y-138999222D01*
X231321724Y-138999222D01*
X231321724Y-138733700D01*
X231320007Y-138695360D01*
X231309134Y-138664458D01*
X231277661Y-138638707D01*
X231217575Y-138630696D01*
X231158634Y-138638707D01*
X231127160Y-138664458D01*
X231116288Y-138695360D01*
X231114571Y-138734845D01*
X231114571Y-138943142D01*
X231060207Y-138906232D01*
X231000122Y-138893929D01*
X230930816Y-138903212D01*
X230869395Y-138931062D01*
X230815858Y-138977477D01*
X230774529Y-139037499D01*
X230749732Y-139106169D01*
X230741466Y-139183486D01*
X230693398Y-139183486D01*
X230683479Y-139104198D01*
X230653721Y-139032667D01*
X230604127Y-138968892D01*
X230540799Y-138918981D01*
X230469840Y-138889033D01*
X230391252Y-138879051D01*
X230310819Y-138888843D01*
X230238907Y-138918218D01*
X230175514Y-138967177D01*
X230126237Y-139030251D01*
X230096673Y-139101972D01*
X230086817Y-139182340D01*
X230053488Y-139182340D01*
X230053628Y-139181197D01*
X230044598Y-139109729D01*
X230017512Y-139043349D01*
X229972368Y-138982055D01*
X229915906Y-138933096D01*
X229854866Y-138903721D01*
X229789249Y-138893929D01*
X229726588Y-138903370D01*
X229673655Y-138931697D01*
X229673654Y-138734845D01*
X229674227Y-138705088D01*
X229669649Y-138676476D01*
X229654771Y-138652441D01*
X229625014Y-138636419D01*
X229575229Y-138630696D01*
X229515143Y-138638708D01*
X229483670Y-138664458D01*
X229472797Y-138695360D01*
X229471080Y-138733700D01*
X228431706Y-138733700D01*
X228436909Y-138726685D01*
X228471404Y-138688626D01*
X228509463Y-138654131D01*
X228550722Y-138623533D01*
X228594778Y-138597126D01*
X228641211Y-138575164D01*
X228689575Y-138557860D01*
X228739401Y-138545379D01*
X228790210Y-138537842D01*
X228841514Y-138535322D01*
X228841609Y-138535322D01*
X233188391Y-138535322D01*
X233188486Y-138535322D01*
X233239789Y-138537842D01*
G37*
%TO.C,kibuzzard-685CA6CA*%
G36*
X233528793Y-125062012D02*
G01*
X233594173Y-125103214D01*
X233638379Y-125163586D01*
X233653114Y-125234831D01*
X233638379Y-125306934D01*
X233594174Y-125367592D01*
X233528793Y-125408794D01*
X233450539Y-125422527D01*
X233373858Y-125408650D01*
X233308622Y-125367020D01*
X233263987Y-125306505D01*
X233249108Y-125235975D01*
X233263557Y-125163157D01*
X233306904Y-125102642D01*
X233371712Y-125061869D01*
X233450539Y-125048278D01*
X233528793Y-125062012D01*
G37*
G36*
X233503526Y-123184170D02*
G01*
X233553169Y-123191534D01*
X233601851Y-123203728D01*
X233649103Y-123220635D01*
X233694470Y-123242092D01*
X233737517Y-123267894D01*
X233777827Y-123297789D01*
X233815012Y-123331492D01*
X233848715Y-123368677D01*
X233878611Y-123408988D01*
X233904412Y-123452033D01*
X233925869Y-123497401D01*
X233942777Y-123544654D01*
X233954971Y-123593336D01*
X233962335Y-123642979D01*
X233964797Y-123693104D01*
X233964797Y-123693200D01*
X233964797Y-128363872D01*
X233964797Y-128363968D01*
X233962335Y-128414093D01*
X233954971Y-128463736D01*
X233942777Y-128512418D01*
X233925869Y-128559671D01*
X233904412Y-128605039D01*
X233878611Y-128648084D01*
X233848715Y-128688395D01*
X233815012Y-128725580D01*
X233777827Y-128759283D01*
X233737517Y-128789178D01*
X233694470Y-128814980D01*
X233649103Y-128836437D01*
X233601851Y-128853344D01*
X233553169Y-128865538D01*
X233503526Y-128872902D01*
X233453400Y-128875365D01*
X233403274Y-128872902D01*
X233353631Y-128865538D01*
X233304949Y-128853344D01*
X233257697Y-128836437D01*
X233212330Y-128814980D01*
X233169283Y-128789178D01*
X233128973Y-128759283D01*
X233091788Y-128725580D01*
X233058085Y-128688395D01*
X233028189Y-128648084D01*
X233002388Y-128605039D01*
X232980931Y-128559671D01*
X232964023Y-128512418D01*
X232951829Y-128463736D01*
X232944465Y-128414093D01*
X232942003Y-128363968D01*
X232942003Y-128363872D01*
X232942003Y-128281469D01*
X233427649Y-128281469D01*
X233437377Y-128332684D01*
X233466562Y-128358150D01*
X233519208Y-128363872D01*
X233570710Y-128357005D01*
X233598178Y-128335260D01*
X233608479Y-128280324D01*
X233608479Y-128007935D01*
X233599036Y-127957005D01*
X233570710Y-127932399D01*
X233518064Y-127925532D01*
X233465989Y-127931826D01*
X233437949Y-127951854D01*
X233427649Y-128009080D01*
X233427649Y-128281469D01*
X232942003Y-128281469D01*
X232942003Y-128009080D01*
X232942003Y-127641698D01*
X233037377Y-127641698D01*
X233042384Y-127703500D01*
X233057406Y-127760726D01*
X233096891Y-127838550D01*
X233117492Y-127862585D01*
X233187307Y-127906075D01*
X233265131Y-127863729D01*
X233304044Y-127792771D01*
X233266276Y-127714945D01*
X233247964Y-127648565D01*
X233265131Y-127593629D01*
X233313200Y-127574173D01*
X233360696Y-127594773D01*
X233379580Y-127645131D01*
X233363556Y-127689766D01*
X233336090Y-127753858D01*
X233358979Y-127828250D01*
X233393314Y-127879180D01*
X233426504Y-127893486D01*
X233751540Y-127851140D01*
X233783586Y-127845417D01*
X233815060Y-127832256D01*
X233845389Y-127800210D01*
X233855689Y-127745846D01*
X233854544Y-127483758D01*
X233852256Y-127444273D01*
X233841383Y-127413371D01*
X233809337Y-127387620D01*
X233746962Y-127379609D01*
X233689738Y-127387048D01*
X233659409Y-127411655D01*
X233649108Y-127441412D01*
X233647391Y-127478035D01*
X233647391Y-127654287D01*
X233586733Y-127662299D01*
X233589022Y-127642842D01*
X233589022Y-127637120D01*
X233580057Y-127567560D01*
X233553162Y-127503850D01*
X233508336Y-127445990D01*
X233451683Y-127400210D01*
X233389308Y-127372742D01*
X233321211Y-127363586D01*
X233245357Y-127372488D01*
X233178022Y-127399192D01*
X233119208Y-127443701D01*
X233073747Y-127501307D01*
X233046469Y-127567306D01*
X233037377Y-127641698D01*
X232942003Y-127641698D01*
X232942003Y-126928679D01*
X233053400Y-126928679D01*
X233067706Y-126992771D01*
X233110625Y-127031684D01*
X233706905Y-127302928D01*
X233786447Y-127314373D01*
X233840811Y-127250281D01*
X233857978Y-127164444D01*
X233792742Y-127111798D01*
X233347534Y-126930968D01*
X233792742Y-126750138D01*
X233857406Y-126696347D01*
X233840811Y-126611654D01*
X233785875Y-126545846D01*
X233706905Y-126559008D01*
X233110625Y-126830253D01*
X233068851Y-126869738D01*
X233053400Y-126928679D01*
X232942003Y-126928679D01*
X232942003Y-126293486D01*
X233052255Y-126293486D01*
X233057978Y-126353572D01*
X233078579Y-126385044D01*
X233106047Y-126396490D01*
X233143815Y-126398779D01*
X233226647Y-126390768D01*
X233312627Y-126366733D01*
X233392885Y-126333114D01*
X233458551Y-126296347D01*
X233516062Y-126258007D01*
X233571855Y-126219666D01*
X233642813Y-126175603D01*
X233642813Y-126404502D01*
X233645102Y-126443414D01*
X233656547Y-126474888D01*
X233688593Y-126500639D01*
X233748107Y-126508650D01*
X233807048Y-126500639D01*
X233838522Y-126476605D01*
X233849967Y-126446848D01*
X233852256Y-126410224D01*
X233852256Y-126026819D01*
X233844244Y-125967306D01*
X233817921Y-125935260D01*
X233786447Y-125924387D01*
X233746962Y-125922670D01*
X233680296Y-125933114D01*
X233601612Y-125964444D01*
X233520210Y-126008078D01*
X233445389Y-126055432D01*
X233370281Y-126102785D01*
X233288021Y-126146418D01*
X233208479Y-126177749D01*
X233141526Y-126188193D01*
X233105474Y-126190482D01*
X233078579Y-126202499D01*
X233058550Y-126234544D01*
X233052255Y-126293486D01*
X232942003Y-126293486D01*
X232942003Y-125230253D01*
X233039666Y-125230253D01*
X233047105Y-125310224D01*
X233069423Y-125384187D01*
X233106619Y-125452141D01*
X233158693Y-125514087D01*
X233221283Y-125565660D01*
X233290024Y-125602499D01*
X233364916Y-125624602D01*
X233445961Y-125631969D01*
X233529652Y-125624816D01*
X233606762Y-125603357D01*
X233677291Y-125567592D01*
X233741240Y-125517521D01*
X233794316Y-125457221D01*
X233832227Y-125390768D01*
X233854974Y-125318164D01*
X233862556Y-125239409D01*
X233855081Y-125159007D01*
X233832655Y-125084902D01*
X233795281Y-125017091D01*
X233742957Y-124955575D01*
X233679831Y-124904502D01*
X233610052Y-124868021D01*
X233533622Y-124846133D01*
X233450539Y-124838836D01*
X233368886Y-124846025D01*
X233293314Y-124867593D01*
X233223822Y-124903536D01*
X233160410Y-124953858D01*
X233107585Y-125014266D01*
X233069853Y-125080467D01*
X233047213Y-125152463D01*
X233039666Y-125230253D01*
X232942003Y-125230253D01*
X232942003Y-124311226D01*
X233053400Y-124311226D01*
X233066848Y-124379609D01*
X233107191Y-124410796D01*
X233067706Y-124466590D01*
X233054544Y-124528679D01*
X233063828Y-124598620D01*
X233091677Y-124660423D01*
X233138092Y-124714087D01*
X233198115Y-124755416D01*
X233266784Y-124780213D01*
X233344101Y-124788479D01*
X233530653Y-124788479D01*
X233570138Y-124786762D01*
X233601039Y-124775889D01*
X233626791Y-124743845D01*
X233634802Y-124684330D01*
X233626791Y-124624816D01*
X233600467Y-124592771D01*
X233568994Y-124581898D01*
X233529509Y-124580181D01*
X233344101Y-124580180D01*
X233283443Y-124558436D01*
X233261698Y-124497778D01*
X233284015Y-124437692D01*
X233344101Y-124415374D01*
X233531798Y-124415374D01*
X233570138Y-124413658D01*
X233601039Y-124402785D01*
X233626791Y-124371311D01*
X233634802Y-124311226D01*
X233626791Y-124251712D01*
X233600467Y-124219666D01*
X233568994Y-124208794D01*
X233530653Y-124207077D01*
X233154116Y-124207077D01*
X233123786Y-124207649D01*
X233097463Y-124213944D01*
X233074001Y-124229967D01*
X233059695Y-124260867D01*
X233053400Y-124311226D01*
X232942003Y-124311226D01*
X232942003Y-123827105D01*
X233052256Y-123827105D01*
X233058487Y-123900925D01*
X233077180Y-123960629D01*
X233108336Y-124006218D01*
X233152589Y-124038328D01*
X233210577Y-124057593D01*
X233282298Y-124064014D01*
X233427649Y-124064015D01*
X233427649Y-124092628D01*
X233452828Y-124145847D01*
X233528364Y-124161297D01*
X233602184Y-124142985D01*
X233626791Y-124088050D01*
X233626791Y-124064015D01*
X233726361Y-124064014D01*
X233764702Y-124062299D01*
X233794459Y-124051426D01*
X233818493Y-124019952D01*
X233825931Y-123959866D01*
X233817921Y-123902070D01*
X233792171Y-123870596D01*
X233760124Y-123859151D01*
X233721783Y-123856862D01*
X233630224Y-123856862D01*
X233632513Y-123796204D01*
X233631941Y-123765876D01*
X233625646Y-123738979D01*
X233609623Y-123714373D01*
X233578150Y-123699495D01*
X233527221Y-123693200D01*
X233470567Y-123701784D01*
X233439095Y-123726962D01*
X233427077Y-123758436D01*
X233424216Y-123797349D01*
X233425360Y-123856862D01*
X233292599Y-123856862D01*
X233258264Y-123850567D01*
X233249108Y-123825961D01*
X233246819Y-123783615D01*
X233235946Y-123752713D01*
X233207906Y-123729824D01*
X233155260Y-123722957D01*
X233096317Y-123731540D01*
X233064845Y-123758436D01*
X233053972Y-123789909D01*
X233052256Y-123827105D01*
X232942003Y-123827105D01*
X232942003Y-123693200D01*
X232942003Y-123693104D01*
X232944465Y-123642979D01*
X232951829Y-123593336D01*
X232964023Y-123544654D01*
X232980931Y-123497401D01*
X233002388Y-123452033D01*
X233028189Y-123408988D01*
X233058085Y-123368677D01*
X233091788Y-123331492D01*
X233128973Y-123297789D01*
X233169283Y-123267894D01*
X233212330Y-123242092D01*
X233257697Y-123220635D01*
X233304949Y-123203728D01*
X233353631Y-123191534D01*
X233403274Y-123184170D01*
X233453400Y-123181707D01*
X233503526Y-123184170D01*
G37*
%TO.C,kibuzzard-686202AB*%
G36*
X252682125Y-132693649D02*
G01*
X252566246Y-132693649D01*
X252475760Y-132676303D01*
X252398864Y-132624263D01*
X252346289Y-132547547D01*
X252328764Y-132456167D01*
X252346289Y-132364607D01*
X252398864Y-132287354D01*
X252476117Y-132234779D01*
X252567677Y-132217254D01*
X252682126Y-132217253D01*
X252682125Y-132693649D01*
G37*
G36*
X255040257Y-131819066D02*
G01*
X255102563Y-131822127D01*
X255164270Y-131831280D01*
X255224782Y-131846438D01*
X255283517Y-131867453D01*
X255339909Y-131894125D01*
X255393416Y-131926196D01*
X255443521Y-131963355D01*
X255489743Y-132005249D01*
X255531636Y-132051471D01*
X255568797Y-132101577D01*
X255600867Y-132155083D01*
X255627539Y-132211476D01*
X255648555Y-132270212D01*
X255663713Y-132330723D01*
X255672866Y-132392429D01*
X255675926Y-132454736D01*
X255672866Y-132517043D01*
X255663713Y-132578749D01*
X255648555Y-132639260D01*
X255627539Y-132697996D01*
X255600867Y-132754389D01*
X255568797Y-132807895D01*
X255531636Y-132858001D01*
X255489743Y-132904223D01*
X255443521Y-132946117D01*
X255393416Y-132983276D01*
X255339909Y-133015347D01*
X255283517Y-133042019D01*
X255224782Y-133063034D01*
X255164270Y-133078192D01*
X255102563Y-133087345D01*
X255040257Y-133090406D01*
X254921039Y-133090407D01*
X254417462Y-133090406D01*
X253773685Y-133090406D01*
X252813742Y-133090407D01*
X252066961Y-133090407D01*
X251947743Y-133090406D01*
X251885437Y-133087345D01*
X251823730Y-133078192D01*
X251763218Y-133063034D01*
X251704482Y-133042018D01*
X251648091Y-133015347D01*
X251594584Y-132983276D01*
X251544479Y-132946117D01*
X251498257Y-132904223D01*
X251456364Y-132858001D01*
X251419203Y-132807895D01*
X251387133Y-132754389D01*
X251360461Y-132697996D01*
X251339445Y-132639260D01*
X251324287Y-132578749D01*
X251315134Y-132517043D01*
X251312074Y-132454736D01*
X251312285Y-132450444D01*
X252066961Y-132450444D01*
X252076171Y-132551079D01*
X252103800Y-132644114D01*
X252149848Y-132729547D01*
X252214315Y-132807383D01*
X252291836Y-132872163D01*
X252377047Y-132918434D01*
X252469947Y-132946197D01*
X252570538Y-132955451D01*
X252813742Y-132955451D01*
X252885989Y-132945437D01*
X252925330Y-132914679D01*
X252940352Y-132874622D01*
X252943928Y-132823835D01*
X252943928Y-132088499D01*
X253024043Y-132088499D01*
X253024043Y-132826696D01*
X253026189Y-132876052D01*
X253039780Y-132914679D01*
X253079837Y-132946867D01*
X253155659Y-132956882D01*
X253229336Y-132949014D01*
X253271539Y-132918255D01*
X253642069Y-132428985D01*
X253642069Y-132826696D01*
X253644215Y-132876051D01*
X253657805Y-132914679D01*
X253697863Y-132946868D01*
X253773685Y-132956882D01*
X253847362Y-132946868D01*
X253885989Y-132914679D01*
X253899579Y-132875337D01*
X253902441Y-132825265D01*
X253902441Y-132467612D01*
X254006876Y-132467612D01*
X254006876Y-132760888D01*
X254041210Y-132843148D01*
X254081625Y-132882311D01*
X254134200Y-132915394D01*
X254213361Y-132946392D01*
X254307782Y-132964989D01*
X254417462Y-132971188D01*
X254516890Y-132961442D01*
X254609165Y-132932204D01*
X254694286Y-132883473D01*
X254772255Y-132815251D01*
X254837348Y-132733439D01*
X254883843Y-132643934D01*
X254911741Y-132546742D01*
X254921039Y-132441860D01*
X254911605Y-132341852D01*
X254883306Y-132249264D01*
X254836141Y-132164098D01*
X254770109Y-132086353D01*
X254690844Y-132021573D01*
X254603979Y-131975301D01*
X254509513Y-131947538D01*
X254407448Y-131938284D01*
X254333235Y-131943470D01*
X254253657Y-131959028D01*
X254178370Y-131983885D01*
X254117033Y-132016968D01*
X254076976Y-132045580D01*
X254050509Y-132075623D01*
X254036918Y-132117111D01*
X254069823Y-132197225D01*
X254122755Y-132254092D01*
X254175688Y-132273048D01*
X254252941Y-132240144D01*
X254326260Y-132210101D01*
X254414601Y-132200087D01*
X254508664Y-132217790D01*
X254587705Y-132270902D01*
X254641353Y-132349765D01*
X254659236Y-132444722D01*
X254640638Y-132542719D01*
X254584844Y-132627840D01*
X254504371Y-132686853D01*
X254411740Y-132706524D01*
X254329479Y-132701875D01*
X254268678Y-132687926D01*
X254268678Y-132564893D01*
X254374544Y-132564893D01*
X254413170Y-132562747D01*
X254443213Y-132551303D01*
X254467534Y-132517683D01*
X254474687Y-132453306D01*
X254466818Y-132390358D01*
X254440352Y-132356739D01*
X254408878Y-132345294D01*
X254370252Y-132343148D01*
X254119894Y-132343147D01*
X254064815Y-132353162D01*
X254031196Y-132371760D01*
X254014029Y-132400374D01*
X254007591Y-132431846D01*
X254006876Y-132467612D01*
X253902441Y-132467612D01*
X253902441Y-132082776D01*
X253899579Y-132034850D01*
X253885273Y-131996939D01*
X253845931Y-131966181D01*
X253770824Y-131956882D01*
X253705731Y-131965465D01*
X253669250Y-131983348D01*
X253643499Y-132012676D01*
X253285845Y-132493363D01*
X253285845Y-132082776D01*
X253282984Y-132035566D01*
X253268678Y-131997654D01*
X253228621Y-131966896D01*
X253154230Y-131956882D01*
X253079838Y-131966896D01*
X253039780Y-131999800D01*
X253026189Y-132039142D01*
X253024043Y-132088499D01*
X252943928Y-132088499D01*
X252943928Y-132084207D01*
X252941783Y-132036281D01*
X252928192Y-131996939D01*
X252888134Y-131964751D01*
X252812312Y-131955451D01*
X252566246Y-131955451D01*
X252467534Y-131964571D01*
X252375974Y-131991932D01*
X252291568Y-132037533D01*
X252214315Y-132101374D01*
X252149848Y-132177912D01*
X252103800Y-132261603D01*
X252076171Y-132352447D01*
X252066961Y-132450444D01*
X251312285Y-132450444D01*
X251315134Y-132392429D01*
X251324287Y-132330723D01*
X251339445Y-132270212D01*
X251360461Y-132211476D01*
X251387133Y-132155083D01*
X251419203Y-132101577D01*
X251456364Y-132051471D01*
X251498257Y-132005249D01*
X251544479Y-131963355D01*
X251594584Y-131926196D01*
X251648091Y-131894125D01*
X251704482Y-131867454D01*
X251763218Y-131846438D01*
X251823730Y-131831280D01*
X251885437Y-131822127D01*
X251947743Y-131819066D01*
X252066961Y-131819065D01*
X254921039Y-131819065D01*
X255040257Y-131819066D01*
G37*
%TO.C,kibuzzard-685CA68D*%
G36*
X221362326Y-125811320D02*
G01*
X221411969Y-125818684D01*
X221460651Y-125830878D01*
X221507903Y-125847785D01*
X221553270Y-125869242D01*
X221596318Y-125895043D01*
X221636627Y-125924939D01*
X221673812Y-125958642D01*
X221707515Y-125995828D01*
X221737412Y-126036137D01*
X221763212Y-126079183D01*
X221784669Y-126124551D01*
X221801577Y-126171804D01*
X221813771Y-126220486D01*
X221821135Y-126270129D01*
X221823597Y-126320254D01*
X221823597Y-126320350D01*
X221823597Y-130461122D01*
X221823597Y-130461218D01*
X221821135Y-130511343D01*
X221813771Y-130560986D01*
X221801577Y-130609668D01*
X221784669Y-130656921D01*
X221763212Y-130702289D01*
X221737412Y-130745335D01*
X221707515Y-130785644D01*
X221673812Y-130822830D01*
X221636627Y-130856533D01*
X221596318Y-130886429D01*
X221553270Y-130912230D01*
X221507903Y-130933687D01*
X221460651Y-130950594D01*
X221411969Y-130962788D01*
X221362326Y-130970152D01*
X221312200Y-130972615D01*
X221262074Y-130970152D01*
X221212431Y-130962788D01*
X221163749Y-130950594D01*
X221116497Y-130933687D01*
X221071130Y-130912230D01*
X221028082Y-130886429D01*
X220987773Y-130856533D01*
X220950588Y-130822830D01*
X220916885Y-130785644D01*
X220886988Y-130745335D01*
X220861188Y-130702289D01*
X220839731Y-130656921D01*
X220822823Y-130609668D01*
X220810629Y-130560986D01*
X220803265Y-130511343D01*
X220800803Y-130461218D01*
X220800803Y-130461122D01*
X220800803Y-130378719D01*
X221286449Y-130378719D01*
X221296177Y-130429934D01*
X221325362Y-130455400D01*
X221378008Y-130461122D01*
X221429510Y-130454255D01*
X221456978Y-130432510D01*
X221467279Y-130377574D01*
X221467279Y-130105185D01*
X221457836Y-130054255D01*
X221429510Y-130029649D01*
X221376864Y-130022782D01*
X221324789Y-130029076D01*
X221296749Y-130049104D01*
X221286449Y-130106330D01*
X221286449Y-130378719D01*
X220800803Y-130378719D01*
X220800803Y-130106330D01*
X220800803Y-129738948D01*
X220896177Y-129738948D01*
X220901184Y-129800750D01*
X220916206Y-129857975D01*
X220955691Y-129935800D01*
X220976292Y-129959835D01*
X221046107Y-130003325D01*
X221123931Y-129960979D01*
X221162844Y-129890021D01*
X221125076Y-129812195D01*
X221106764Y-129745815D01*
X221123931Y-129690879D01*
X221172000Y-129671423D01*
X221219496Y-129692024D01*
X221238380Y-129742381D01*
X221222356Y-129787016D01*
X221194890Y-129851108D01*
X221217779Y-129925500D01*
X221252114Y-129976430D01*
X221285304Y-129990736D01*
X221610340Y-129948390D01*
X221642386Y-129942667D01*
X221673860Y-129929506D01*
X221704189Y-129897460D01*
X221714489Y-129843096D01*
X221713344Y-129581008D01*
X221711056Y-129541523D01*
X221700182Y-129510622D01*
X221668137Y-129484870D01*
X221605762Y-129476859D01*
X221548538Y-129484298D01*
X221518208Y-129508905D01*
X221507908Y-129538662D01*
X221506191Y-129575285D01*
X221506191Y-129751537D01*
X221445533Y-129759549D01*
X221447822Y-129740092D01*
X221447822Y-129734370D01*
X221438857Y-129664809D01*
X221411962Y-129601100D01*
X221367136Y-129543240D01*
X221310483Y-129497460D01*
X221248108Y-129469992D01*
X221180011Y-129460836D01*
X221104157Y-129469738D01*
X221036822Y-129496443D01*
X220978008Y-129540951D01*
X220932547Y-129598557D01*
X220905269Y-129664556D01*
X220896177Y-129738948D01*
X220800803Y-129738948D01*
X220800803Y-129025929D01*
X220912200Y-129025929D01*
X220926506Y-129090021D01*
X220969425Y-129128934D01*
X221565705Y-129400178D01*
X221645247Y-129411623D01*
X221699611Y-129347531D01*
X221716778Y-129261694D01*
X221651542Y-129209048D01*
X221206334Y-129028218D01*
X221651542Y-128847388D01*
X221716206Y-128793597D01*
X221699610Y-128708905D01*
X221644675Y-128643096D01*
X221565706Y-128656258D01*
X220969425Y-128927503D01*
X220927651Y-128966988D01*
X220912200Y-129025929D01*
X220800803Y-129025929D01*
X220800803Y-128390736D01*
X220911055Y-128390736D01*
X220916778Y-128450822D01*
X220937380Y-128482295D01*
X220964847Y-128493740D01*
X221002615Y-128496029D01*
X221085447Y-128488018D01*
X221171427Y-128463983D01*
X221251685Y-128430364D01*
X221317351Y-128393597D01*
X221374861Y-128355258D01*
X221430655Y-128316916D01*
X221501613Y-128272853D01*
X221501613Y-128501752D01*
X221503902Y-128540664D01*
X221515347Y-128572138D01*
X221547393Y-128597889D01*
X221606907Y-128605900D01*
X221665848Y-128597889D01*
X221697322Y-128573855D01*
X221708767Y-128544098D01*
X221711056Y-128507474D01*
X221711056Y-128124069D01*
X221703044Y-128064555D01*
X221676721Y-128032510D01*
X221645247Y-128021637D01*
X221605762Y-128019921D01*
X221539096Y-128030364D01*
X221460412Y-128061694D01*
X221379010Y-128105328D01*
X221304189Y-128152682D01*
X221229081Y-128200035D01*
X221146820Y-128243669D01*
X221067279Y-128274999D01*
X221000326Y-128285443D01*
X220964274Y-128287732D01*
X220937379Y-128299749D01*
X220917349Y-128331795D01*
X220911055Y-128390736D01*
X220800803Y-128390736D01*
X220800803Y-127597603D01*
X220800803Y-127176430D01*
X220911055Y-127176430D01*
X220911056Y-127597603D01*
X220919067Y-127657117D01*
X220945390Y-127689162D01*
X220976864Y-127700035D01*
X221016349Y-127701752D01*
X221608051Y-127701752D01*
X221689882Y-127678290D01*
X221712200Y-127594169D01*
X221712200Y-127175285D01*
X221710483Y-127135800D01*
X221699611Y-127104899D01*
X221667565Y-127079148D01*
X221606907Y-127071137D01*
X221547393Y-127079148D01*
X221515347Y-127105471D01*
X221504475Y-127136945D01*
X221502758Y-127176430D01*
X221502758Y-127492310D01*
X221400898Y-127492310D01*
X221400898Y-127280578D01*
X221399181Y-127243383D01*
X221390025Y-127215916D01*
X221362558Y-127194169D01*
X221310483Y-127187875D01*
X221259553Y-127194168D01*
X221233230Y-127216487D01*
X221224074Y-127245099D01*
X221222356Y-127282868D01*
X221222357Y-127492309D01*
X221120498Y-127492310D01*
X221120498Y-127175285D01*
X221118781Y-127135800D01*
X221107908Y-127104899D01*
X221075862Y-127079148D01*
X221015205Y-127071137D01*
X220955691Y-127079148D01*
X220923646Y-127105471D01*
X220912772Y-127136945D01*
X220911055Y-127176430D01*
X220800803Y-127176430D01*
X220800803Y-126920064D01*
X220800803Y-126425643D01*
X220911056Y-126425643D01*
X220917350Y-126484584D01*
X220941957Y-126518347D01*
X221333373Y-126814770D01*
X221015204Y-126814770D01*
X220975719Y-126816487D01*
X220944818Y-126827360D01*
X220919067Y-126859406D01*
X220911056Y-126920063D01*
X220919067Y-126979004D01*
X220944818Y-127009906D01*
X220976292Y-127020779D01*
X221016349Y-127023068D01*
X221610340Y-127023068D01*
X221648681Y-127020779D01*
X221679010Y-127009334D01*
X221703616Y-126977860D01*
X221711056Y-126917775D01*
X221704189Y-126865700D01*
X221689882Y-126836516D01*
X221666420Y-126815915D01*
X221281871Y-126529792D01*
X221610340Y-126529792D01*
X221648108Y-126527503D01*
X221678437Y-126516058D01*
X221703044Y-126484012D01*
X221711056Y-126424498D01*
X221703044Y-126364985D01*
X221676721Y-126332939D01*
X221645247Y-126322066D01*
X221605762Y-126320350D01*
X221015204Y-126320350D01*
X220975719Y-126322065D01*
X220944818Y-126332939D01*
X220919067Y-126364985D01*
X220911056Y-126425643D01*
X220800803Y-126425643D01*
X220800803Y-126320350D01*
X220800803Y-126320254D01*
X220803265Y-126270129D01*
X220810629Y-126220486D01*
X220822823Y-126171804D01*
X220839731Y-126124551D01*
X220861188Y-126079183D01*
X220886988Y-126036137D01*
X220916885Y-125995828D01*
X220950588Y-125958642D01*
X220987773Y-125924939D01*
X221028082Y-125895043D01*
X221071130Y-125869242D01*
X221116497Y-125847785D01*
X221163749Y-125830878D01*
X221212431Y-125818684D01*
X221262074Y-125811320D01*
X221312200Y-125808857D01*
X221362326Y-125811320D01*
G37*
%TO.C,kibuzzard-68620294*%
G36*
X247147137Y-132419686D02*
G01*
X247145707Y-132418256D01*
X247151429Y-132413964D01*
X247154291Y-132413963D01*
X247147137Y-132419686D01*
G37*
G36*
X247467595Y-132202948D02*
G01*
X247486193Y-132248013D01*
X247466165Y-132292361D01*
X247410371Y-132308098D01*
X247354577Y-132293076D01*
X247335979Y-132248012D01*
X247356007Y-132203664D01*
X247411801Y-132187926D01*
X247467595Y-132202948D01*
G37*
G36*
X247490484Y-132572762D02*
G01*
X247517667Y-132635709D01*
X247489055Y-132700802D01*
X247410371Y-132724407D01*
X247334548Y-132700802D01*
X247307367Y-132635709D01*
X247335264Y-132572046D01*
X247413232Y-132549872D01*
X247490484Y-132572762D01*
G37*
G36*
X247677896Y-132418255D02*
G01*
X247676465Y-132419686D01*
X247677896Y-132421117D01*
X247670743Y-132426839D01*
X247670743Y-132425408D01*
X247676465Y-132419686D01*
X247665020Y-132409672D01*
X247666451Y-132409672D01*
X247677896Y-132418255D01*
G37*
G36*
X249557911Y-131818568D02*
G01*
X249619966Y-131827772D01*
X249680817Y-131843015D01*
X249739883Y-131864149D01*
X249796593Y-131890971D01*
X249850400Y-131923222D01*
X249900788Y-131960591D01*
X249947270Y-132002720D01*
X249989398Y-132049202D01*
X250026768Y-132099590D01*
X250059019Y-132153397D01*
X250085841Y-132210107D01*
X250106975Y-132269173D01*
X250122219Y-132330025D01*
X250131422Y-132392079D01*
X250134501Y-132454736D01*
X250131422Y-132517393D01*
X250122219Y-132579447D01*
X250106975Y-132640299D01*
X250085841Y-132699365D01*
X250059019Y-132756075D01*
X250026768Y-132809882D01*
X249989398Y-132860270D01*
X249947270Y-132906752D01*
X249900788Y-132948881D01*
X249850400Y-132986250D01*
X249796593Y-133018501D01*
X249739883Y-133045323D01*
X249680817Y-133066457D01*
X249619966Y-133081700D01*
X249557911Y-133090904D01*
X249495254Y-133093983D01*
X249376036Y-133093983D01*
X249012661Y-133093983D01*
X248317381Y-133093983D01*
X247408939Y-133093983D01*
X247045564Y-133093983D01*
X246926346Y-133093983D01*
X246863689Y-133090904D01*
X246801634Y-133081700D01*
X246740783Y-133066457D01*
X246681717Y-133045323D01*
X246625007Y-133018501D01*
X246571200Y-132986250D01*
X246520812Y-132948881D01*
X246474330Y-132906752D01*
X246432202Y-132860270D01*
X246394832Y-132809882D01*
X246362581Y-132756075D01*
X246335759Y-132699365D01*
X246314625Y-132640299D01*
X246312041Y-132629986D01*
X247045564Y-132629986D01*
X247058122Y-132726394D01*
X247095794Y-132809608D01*
X247158583Y-132879629D01*
X247236631Y-132932482D01*
X247320083Y-132964194D01*
X247408939Y-132974765D01*
X247508210Y-132963797D01*
X247596192Y-132930893D01*
X247672889Y-132876052D01*
X247732100Y-132804839D01*
X247767626Y-132722817D01*
X247779470Y-132629986D01*
X247768184Y-132554641D01*
X247734326Y-132485017D01*
X247677896Y-132421117D01*
X247679326Y-132419686D01*
X247677896Y-132418255D01*
X247732617Y-132341717D01*
X247750857Y-132249443D01*
X247739730Y-132166149D01*
X247706349Y-132091757D01*
X247661652Y-132039142D01*
X247838840Y-132039142D01*
X247855292Y-132137855D01*
X248194348Y-132883205D01*
X248243705Y-132935423D01*
X248317381Y-132954736D01*
X248397495Y-132936853D01*
X248446136Y-132883205D01*
X248785192Y-132137855D01*
X248792602Y-132086353D01*
X248882474Y-132086353D01*
X248882474Y-132830272D01*
X248911086Y-132930417D01*
X249012660Y-132959028D01*
X249112803Y-132930416D01*
X249141415Y-132828842D01*
X249141415Y-132345294D01*
X249155721Y-132358169D01*
X249243704Y-132399657D01*
X249328826Y-132349586D01*
X249373175Y-132255165D01*
X249356723Y-132209386D01*
X249313089Y-132160745D01*
X249131401Y-131997654D01*
X249108511Y-131979056D01*
X249011229Y-131954736D01*
X248911086Y-131984065D01*
X248882474Y-132086353D01*
X248792602Y-132086353D01*
X248799498Y-132038427D01*
X248719384Y-131970473D01*
X248612088Y-131949014D01*
X248546279Y-132030559D01*
X248320242Y-132587068D01*
X248094204Y-132030559D01*
X248026966Y-131949729D01*
X247921100Y-131970473D01*
X247838840Y-132039142D01*
X247661652Y-132039142D01*
X247650714Y-132026267D01*
X247579342Y-131975400D01*
X247498751Y-131944881D01*
X247408939Y-131934707D01*
X247320242Y-131945040D01*
X247241081Y-131976036D01*
X247171458Y-132027697D01*
X247117413Y-132094300D01*
X247084985Y-132170123D01*
X247074175Y-132255165D01*
X247092059Y-132336710D01*
X247145707Y-132418256D01*
X247144276Y-132419686D01*
X247145707Y-132421117D01*
X247090073Y-132486925D01*
X247056691Y-132556548D01*
X247045564Y-132629986D01*
X246312041Y-132629986D01*
X246299381Y-132579447D01*
X246290178Y-132517393D01*
X246287099Y-132454736D01*
X246290178Y-132392079D01*
X246299381Y-132330025D01*
X246314625Y-132269173D01*
X246335759Y-132210107D01*
X246362581Y-132153397D01*
X246394832Y-132099590D01*
X246432202Y-132049202D01*
X246474330Y-132002720D01*
X246520812Y-131960591D01*
X246571200Y-131923222D01*
X246625007Y-131890971D01*
X246681717Y-131864149D01*
X246740783Y-131843015D01*
X246801634Y-131827772D01*
X246863689Y-131818568D01*
X246926346Y-131815489D01*
X247045564Y-131815489D01*
X249376036Y-131815489D01*
X249495254Y-131815489D01*
X249557911Y-131818568D01*
G37*
%TO.C,kibuzzard-68622B0B*%
G36*
X235258401Y-118930598D02*
G01*
X235295830Y-119007480D01*
X235274587Y-119076268D01*
X235161289Y-118962970D01*
X235158254Y-118911378D01*
X235204281Y-118897721D01*
X235258401Y-118930598D01*
G37*
G36*
X240423619Y-124095816D02*
G01*
X240461048Y-124172698D01*
X240439805Y-124241486D01*
X240326506Y-124128187D01*
X240323471Y-124076595D01*
X240369499Y-124062939D01*
X240423619Y-124095816D01*
G37*
G36*
X235804665Y-119541603D02*
G01*
X235835012Y-119614438D01*
X235804664Y-119687273D01*
X235731323Y-119716104D01*
X235657983Y-119686262D01*
X235629152Y-119613933D01*
X235658994Y-119541604D01*
X235731830Y-119511255D01*
X235804665Y-119541603D01*
G37*
G36*
X237324084Y-121048884D02*
G01*
X237352410Y-121119695D01*
X237323072Y-121191518D01*
X237251755Y-121219337D01*
X237179426Y-121189495D01*
X237151607Y-121119189D01*
X237180438Y-121048884D01*
X237252261Y-121019547D01*
X237324084Y-121048884D01*
G37*
G36*
X238451005Y-122165687D02*
G01*
X238484386Y-122246615D01*
X238448981Y-122329566D01*
X238360972Y-122364972D01*
X238285102Y-122329566D01*
X238248685Y-122252685D01*
X238284091Y-122162653D01*
X238367041Y-122126235D01*
X238451005Y-122165687D01*
G37*
G36*
X235004665Y-117997423D02*
G01*
X235082064Y-118008904D01*
X235157966Y-118027916D01*
X235231638Y-118054277D01*
X235302372Y-118087731D01*
X235369486Y-118127958D01*
X235432334Y-118174570D01*
X235490311Y-118227116D01*
X235490395Y-118227200D01*
X245294800Y-128031605D01*
X245294884Y-128031689D01*
X245347430Y-128089666D01*
X245394042Y-128152514D01*
X245434269Y-128219628D01*
X245467723Y-128290362D01*
X245494084Y-128364034D01*
X245513096Y-128439936D01*
X245524577Y-128517335D01*
X245528416Y-128595486D01*
X245524576Y-128673639D01*
X245513096Y-128751038D01*
X245494084Y-128826939D01*
X245467723Y-128900612D01*
X245434269Y-128971345D01*
X245394041Y-129038459D01*
X245347430Y-129101307D01*
X245294884Y-129159284D01*
X245236907Y-129211830D01*
X245174059Y-129258441D01*
X245106945Y-129298669D01*
X245036212Y-129332123D01*
X244962539Y-129358484D01*
X244886638Y-129377496D01*
X244809239Y-129388976D01*
X244731086Y-129392816D01*
X244652935Y-129388977D01*
X244575536Y-129377496D01*
X244499634Y-129358484D01*
X244425962Y-129332123D01*
X244355228Y-129298669D01*
X244288114Y-129258442D01*
X244225266Y-129211830D01*
X244167289Y-129159284D01*
X244167205Y-129159200D01*
X243859679Y-128851674D01*
X243451668Y-128443663D01*
X244105835Y-128443663D01*
X244111905Y-128494242D01*
X244157426Y-128553927D01*
X244216605Y-128598943D01*
X244266679Y-128603495D01*
X244303097Y-128585286D01*
X244338503Y-128552915D01*
X244800803Y-128090615D01*
X244941415Y-128231227D01*
X244971763Y-128258540D01*
X245002617Y-128273208D01*
X245045609Y-128268656D01*
X245097201Y-128229204D01*
X245135135Y-128179130D01*
X245138676Y-128136136D01*
X245123502Y-128104777D01*
X245096189Y-128074430D01*
X244633889Y-127612130D01*
X244603541Y-127584816D01*
X244572687Y-127570148D01*
X244529695Y-127574701D01*
X244479115Y-127613141D01*
X244440674Y-127663721D01*
X244436628Y-127707220D01*
X244451802Y-127738579D01*
X244479115Y-127768927D01*
X244618715Y-127908527D01*
X244155403Y-128371839D01*
X244123032Y-128407245D01*
X244105835Y-128443663D01*
X243451668Y-128443663D01*
X243085807Y-128077802D01*
X242838977Y-127830972D01*
X242677290Y-127669285D01*
X243332468Y-127669285D01*
X243338032Y-127720370D01*
X243383554Y-127780054D01*
X243442733Y-127825070D01*
X243492807Y-127830635D01*
X243530742Y-127812931D01*
X243568676Y-127779043D01*
X243733567Y-127614152D01*
X243803874Y-127580264D01*
X243873168Y-127610106D01*
X243906550Y-127677883D01*
X243894411Y-127744649D01*
X243712324Y-127926736D01*
X243679447Y-127962648D01*
X243662249Y-127999066D01*
X243667814Y-128050151D01*
X243713335Y-128109836D01*
X243772514Y-128154851D01*
X243823093Y-128159910D01*
X243860016Y-128142206D01*
X243896434Y-128108824D01*
X244458882Y-127546375D01*
X244491254Y-127510969D01*
X244508957Y-127474047D01*
X244503899Y-127423467D01*
X244457871Y-127363276D01*
X244398693Y-127318261D01*
X244348112Y-127313203D01*
X244311189Y-127330905D01*
X244274772Y-127364288D01*
X244090661Y-127548398D01*
X244075234Y-127467724D01*
X244033000Y-127403741D01*
X243963537Y-127350688D01*
X243884632Y-127321013D01*
X243796286Y-127314720D01*
X243706703Y-127331242D01*
X243624090Y-127370021D01*
X243548445Y-127431054D01*
X243382543Y-127596956D01*
X243350171Y-127632361D01*
X243332468Y-127669285D01*
X242677290Y-127669285D01*
X242489976Y-127481971D01*
X242430460Y-127422455D01*
X243085638Y-127422455D01*
X243090697Y-127473034D01*
X243136724Y-127533225D01*
X243195903Y-127578241D01*
X243246483Y-127583299D01*
X243283406Y-127565596D01*
X243319824Y-127532214D01*
X243649605Y-127202432D01*
X243681975Y-127167027D01*
X243699679Y-127130103D01*
X243694115Y-127079017D01*
X243649468Y-127020480D01*
X243648593Y-127019333D01*
X243589414Y-126974317D01*
X243538329Y-126969765D01*
X243500900Y-126987973D01*
X243464482Y-127021356D01*
X243135713Y-127350125D01*
X243102836Y-127386037D01*
X243085638Y-127422455D01*
X242430460Y-127422455D01*
X241948838Y-126940833D01*
X242652128Y-126940833D01*
X242662245Y-127020952D01*
X242704408Y-127105116D01*
X242778619Y-127193328D01*
X242852339Y-127253392D01*
X242941992Y-127302075D01*
X243025322Y-127324204D01*
X243080076Y-127304604D01*
X243106629Y-127259335D01*
X243125597Y-127184224D01*
X243106376Y-127124540D01*
X243011286Y-127079017D01*
X242911138Y-127028437D01*
X242888883Y-126973811D01*
X242921254Y-126970776D01*
X242985490Y-127006688D01*
X243053774Y-127047658D01*
X243132804Y-127077500D01*
X243207031Y-127081041D01*
X243276451Y-127058279D01*
X243341067Y-127009217D01*
X243396200Y-126927025D01*
X243403293Y-126860007D01*
X243648087Y-126860007D01*
X243653145Y-126910586D01*
X243699172Y-126970776D01*
X243758351Y-127015792D01*
X243809437Y-127020345D01*
X243846866Y-127002136D01*
X243882272Y-126969765D01*
X243914643Y-126934359D01*
X243932346Y-126897436D01*
X243926782Y-126846350D01*
X243881261Y-126786666D01*
X243822082Y-126741650D01*
X243770996Y-126737097D01*
X243733567Y-126755306D01*
X243698161Y-126787677D01*
X243665284Y-126823589D01*
X243648087Y-126860007D01*
X243403293Y-126860007D01*
X243405809Y-126836234D01*
X243386814Y-126771717D01*
X243347361Y-126704951D01*
X243287452Y-126635937D01*
X243209053Y-126574230D01*
X243113458Y-126528708D01*
X243032277Y-126531491D01*
X242991054Y-126616717D01*
X243003193Y-126705738D01*
X243077040Y-126743167D01*
X243157968Y-126787677D01*
X243175165Y-126845338D01*
X243164544Y-126852925D01*
X243152910Y-126855454D01*
X243140771Y-126854442D01*
X243126608Y-126849385D01*
X243111941Y-126841798D01*
X243095249Y-126832188D01*
X243078052Y-126821060D01*
X243059337Y-126807404D01*
X243040623Y-126793747D01*
X242972340Y-126751766D01*
X242900516Y-126726475D01*
X242814530Y-126733557D01*
X242728039Y-126792735D01*
X242674060Y-126864761D01*
X242652128Y-126940833D01*
X241948838Y-126940833D01*
X241885040Y-126877035D01*
X241536039Y-126528034D01*
X241476523Y-126468518D01*
X242131702Y-126468518D01*
X242136760Y-126519098D01*
X242182787Y-126579288D01*
X242241967Y-126624304D01*
X242292546Y-126629363D01*
X242329470Y-126611659D01*
X242365887Y-126578277D01*
X242695668Y-126248496D01*
X242728039Y-126213090D01*
X242745742Y-126176167D01*
X242740179Y-126125081D01*
X242695532Y-126066544D01*
X242694656Y-126065397D01*
X242635478Y-126020380D01*
X242584392Y-126015828D01*
X242546963Y-126034037D01*
X242510546Y-126067419D01*
X242181776Y-126396189D01*
X242148899Y-126432100D01*
X242131702Y-126468518D01*
X241476523Y-126468518D01*
X240994902Y-125986897D01*
X241698192Y-125986897D01*
X241708308Y-126067015D01*
X241750472Y-126151180D01*
X241824682Y-126239391D01*
X241898402Y-126299455D01*
X241988055Y-126348138D01*
X242071386Y-126370267D01*
X242126139Y-126350667D01*
X242152692Y-126305398D01*
X242171660Y-126230287D01*
X242152440Y-126170603D01*
X242057350Y-126125081D01*
X241957201Y-126074501D01*
X241934947Y-126019875D01*
X241967318Y-126016840D01*
X242031554Y-126052752D01*
X242099837Y-126093721D01*
X242178867Y-126123563D01*
X242253094Y-126127104D01*
X242322515Y-126104343D01*
X242387131Y-126055280D01*
X242442263Y-125973088D01*
X242449357Y-125906070D01*
X242694150Y-125906070D01*
X242699209Y-125956650D01*
X242745236Y-126016840D01*
X242804415Y-126061856D01*
X242855501Y-126066408D01*
X242892930Y-126048199D01*
X242928335Y-126015829D01*
X242960707Y-125980422D01*
X242978409Y-125943499D01*
X242972846Y-125892414D01*
X242927324Y-125832729D01*
X242868145Y-125787713D01*
X242817059Y-125783161D01*
X242779630Y-125801370D01*
X242744225Y-125833740D01*
X242711348Y-125869652D01*
X242694150Y-125906070D01*
X242449357Y-125906070D01*
X242451873Y-125882297D01*
X242432878Y-125817780D01*
X242393425Y-125751014D01*
X242333516Y-125682001D01*
X242255117Y-125620294D01*
X242159522Y-125574772D01*
X242078340Y-125577553D01*
X242037118Y-125662780D01*
X242049257Y-125751801D01*
X242123103Y-125789231D01*
X242204031Y-125833741D01*
X242221229Y-125891402D01*
X242210607Y-125898988D01*
X242198973Y-125901518D01*
X242186834Y-125900506D01*
X242172672Y-125895448D01*
X242158004Y-125887861D01*
X242141313Y-125878251D01*
X242124115Y-125867123D01*
X242105400Y-125853467D01*
X242086686Y-125839810D01*
X242018404Y-125797829D01*
X241946580Y-125772539D01*
X241860594Y-125779620D01*
X241774102Y-125838799D01*
X241720123Y-125910825D01*
X241698192Y-125986897D01*
X240994902Y-125986897D01*
X240752051Y-125744046D01*
X240382480Y-125374475D01*
X241000230Y-125374475D01*
X241018439Y-125411904D01*
X241049798Y-125446299D01*
X241120554Y-125506039D01*
X241189848Y-125542288D01*
X241257682Y-125555046D01*
X241325177Y-125544312D01*
X241393460Y-125510085D01*
X241462531Y-125452369D01*
X241591003Y-125323896D01*
X241616293Y-125349185D01*
X241685588Y-125373969D01*
X241766010Y-125320861D01*
X241815072Y-125239427D01*
X241788265Y-125169121D01*
X241767021Y-125147878D01*
X241855031Y-125059868D01*
X241887401Y-125024463D01*
X241904093Y-124988551D01*
X241897517Y-124939488D01*
X241850984Y-124879804D01*
X241792817Y-124835800D01*
X241742237Y-124830742D01*
X241703797Y-124848950D01*
X241667884Y-124880816D01*
X241586957Y-124961743D01*
X241535365Y-124906106D01*
X241508052Y-124879804D01*
X241478716Y-124861596D01*
X241442804Y-124854008D01*
X241401835Y-124868677D01*
X241351255Y-124908128D01*
X241308767Y-124965790D01*
X241303203Y-125015864D01*
X241320401Y-125054304D01*
X241352266Y-125091228D01*
X241405881Y-125142819D01*
X241288535Y-125260165D01*
X241252624Y-125284949D01*
X241222782Y-125271293D01*
X241183330Y-125235886D01*
X241146406Y-125218183D01*
X241101390Y-125222736D01*
X241048787Y-125263199D01*
X241004277Y-125322884D01*
X241000230Y-125374475D01*
X240382480Y-125374475D01*
X240174429Y-125166424D01*
X239765912Y-124757907D01*
X240421090Y-124757907D01*
X240426655Y-124808992D01*
X240472176Y-124868677D01*
X240531355Y-124913692D01*
X240581429Y-124919257D01*
X240619364Y-124901554D01*
X240657299Y-124867665D01*
X240822189Y-124702775D01*
X240892495Y-124668886D01*
X240961789Y-124698728D01*
X240995172Y-124766505D01*
X240983033Y-124833271D01*
X240800946Y-125015358D01*
X240768069Y-125051270D01*
X240750871Y-125087687D01*
X240756436Y-125138773D01*
X240801957Y-125198458D01*
X240861136Y-125243473D01*
X240911715Y-125248532D01*
X240948639Y-125230828D01*
X240985056Y-125197446D01*
X241547504Y-124634998D01*
X241579876Y-124599591D01*
X241597578Y-124562668D01*
X241592520Y-124512088D01*
X241546493Y-124451898D01*
X241487314Y-124406882D01*
X241436734Y-124401824D01*
X241399812Y-124419527D01*
X241363394Y-124452910D01*
X241179283Y-124637021D01*
X241163856Y-124556345D01*
X241121622Y-124492362D01*
X241052158Y-124439309D01*
X240973254Y-124409636D01*
X240884908Y-124403342D01*
X240795325Y-124419865D01*
X240712711Y-124458642D01*
X240637066Y-124519676D01*
X240471165Y-124685577D01*
X240438793Y-124720983D01*
X240421090Y-124757907D01*
X239765912Y-124757907D01*
X239762709Y-124754704D01*
X239227046Y-124219041D01*
X239903848Y-124219041D01*
X239914533Y-124287261D01*
X239963027Y-124370275D01*
X240049328Y-124468084D01*
X240123301Y-124529665D01*
X240201574Y-124570761D01*
X240279719Y-124591499D01*
X240353313Y-124592005D01*
X240421849Y-124577590D01*
X240484821Y-124553564D01*
X240541597Y-124520308D01*
X240591545Y-124478200D01*
X240657635Y-124394912D01*
X240696751Y-124304205D01*
X240708891Y-124206080D01*
X240694166Y-124107618D01*
X240652690Y-124015899D01*
X240584463Y-123930926D01*
X240507526Y-123868600D01*
X240427779Y-123832688D01*
X240345221Y-123823191D01*
X240232554Y-123845572D01*
X240146442Y-123901589D01*
X240103196Y-123958744D01*
X240086758Y-124016911D01*
X240095862Y-124072296D01*
X240129244Y-124121106D01*
X240344714Y-124336576D01*
X240275926Y-124344669D01*
X240202080Y-124299147D01*
X240133291Y-124204057D01*
X240099908Y-124144373D01*
X240054386Y-124123129D01*
X239990656Y-124132233D01*
X239930971Y-124165617D01*
X239903848Y-124219041D01*
X239227046Y-124219041D01*
X239037393Y-124029388D01*
X238408179Y-123400174D01*
X238397726Y-123389721D01*
X239023568Y-123389721D01*
X239026603Y-123406918D01*
X239033178Y-123425633D01*
X239044306Y-123443842D01*
X239059985Y-123462556D01*
X239105002Y-123496444D01*
X239149512Y-123503526D01*
X239184918Y-123495433D01*
X239221841Y-123480765D01*
X239392801Y-123402871D01*
X239314908Y-123573831D01*
X239306816Y-123592041D01*
X239298723Y-123610249D01*
X239292147Y-123625929D01*
X239288606Y-123642620D01*
X239288607Y-123657794D01*
X239291136Y-123675497D01*
X239299734Y-123693200D01*
X239312885Y-123713432D01*
X239332106Y-123734676D01*
X239377627Y-123767047D01*
X239426690Y-123772610D01*
X239461590Y-123765023D01*
X239492950Y-123751873D01*
X239958285Y-123555623D01*
X240028085Y-123492904D01*
X240015945Y-123398825D01*
X239974695Y-123330823D01*
X239922429Y-123303510D01*
X239859148Y-123316886D01*
X239653794Y-123412988D01*
X239736745Y-123234947D01*
X239752425Y-123151995D01*
X239716512Y-123083207D01*
X239643677Y-123043754D01*
X239558704Y-123058928D01*
X239382686Y-123141879D01*
X239468671Y-122958780D01*
X239487892Y-122882685D01*
X239467322Y-122824350D01*
X239406963Y-122783774D01*
X239330195Y-122767925D01*
X239273882Y-122786471D01*
X239238027Y-122839412D01*
X239044812Y-123303735D01*
X239040259Y-123314357D01*
X239035202Y-123327508D01*
X239030649Y-123341164D01*
X239026097Y-123356844D01*
X239023569Y-123372524D01*
X239023568Y-123389721D01*
X238397726Y-123389721D01*
X237998651Y-122990646D01*
X238653829Y-122990646D01*
X238659393Y-123041731D01*
X238705926Y-123102427D01*
X238765106Y-123147443D01*
X238816191Y-123151995D01*
X238853620Y-123133786D01*
X238890037Y-123100403D01*
X239219818Y-122770623D01*
X239252695Y-122734711D01*
X239269893Y-122698294D01*
X239264834Y-122647714D01*
X239218807Y-122587523D01*
X239149765Y-122539220D01*
X239090333Y-122542002D01*
X239074148Y-122456016D01*
X239031661Y-122390262D01*
X238998784Y-122362443D01*
X238953263Y-122335130D01*
X238897625Y-122325014D01*
X238846538Y-122350810D01*
X238804684Y-122403793D01*
X238782302Y-122459557D01*
X238804052Y-122551106D01*
X238850585Y-122582466D01*
X238882956Y-122599663D01*
X238918362Y-122664405D01*
X238901165Y-122721054D01*
X238703903Y-122918316D01*
X238671026Y-122954227D01*
X238653829Y-122990646D01*
X237998651Y-122990646D01*
X237809314Y-122801309D01*
X237263219Y-122255214D01*
X237988198Y-122255214D01*
X238004665Y-122353733D01*
X238041251Y-122439549D01*
X238097957Y-122512665D01*
X238171859Y-122569821D01*
X238258688Y-122606407D01*
X238358443Y-122622423D01*
X238459771Y-122614388D01*
X238551321Y-122578812D01*
X238633091Y-122515700D01*
X238694406Y-122436852D01*
X238731329Y-122347325D01*
X238743861Y-122247121D01*
X238732004Y-122147029D01*
X238695755Y-122057840D01*
X238635115Y-121979554D01*
X238555367Y-121917116D01*
X238465840Y-121879518D01*
X238366536Y-121866760D01*
X238267230Y-121878956D01*
X238177704Y-121916217D01*
X238097956Y-121978542D01*
X238032708Y-122062336D01*
X237996122Y-122154560D01*
X237988198Y-122255214D01*
X237263219Y-122255214D01*
X237075905Y-122067900D01*
X236687452Y-121679447D01*
X236358851Y-121350846D01*
X236665028Y-121350846D01*
X236681158Y-121443407D01*
X236716733Y-121524840D01*
X236771752Y-121595147D01*
X236851162Y-121656854D01*
X236947770Y-121700352D01*
X237035778Y-121717044D01*
X237089394Y-121698329D01*
X237105377Y-121658372D01*
X237323579Y-121658372D01*
X237328636Y-121708951D01*
X237374664Y-121769141D01*
X237435360Y-121815675D01*
X237486951Y-121820733D01*
X237524380Y-121802524D01*
X237559786Y-121770152D01*
X237724676Y-121605262D01*
X237797006Y-121570362D01*
X237869335Y-121604251D01*
X237903224Y-121677592D01*
X237870347Y-121750933D01*
X237704445Y-121916835D01*
X237672074Y-121952240D01*
X237654371Y-121989164D01*
X237659935Y-122040250D01*
X237705457Y-122099934D01*
X237764635Y-122144950D01*
X237815215Y-122150008D01*
X237852138Y-122132304D01*
X237888556Y-122098922D01*
X238221371Y-121766106D01*
X238252730Y-121730701D01*
X238269422Y-121694789D01*
X238263353Y-121645220D01*
X238217325Y-121586042D01*
X238163710Y-121544566D01*
X238119706Y-121533945D01*
X238089358Y-121542038D01*
X238065585Y-121559740D01*
X238054963Y-121462121D01*
X238000843Y-121369560D01*
X237932392Y-121317069D01*
X237857871Y-121290431D01*
X237777280Y-121289644D01*
X237695116Y-121312236D01*
X237615874Y-121355735D01*
X237539555Y-121420140D01*
X237373652Y-121586042D01*
X237341282Y-121621448D01*
X237323579Y-121658372D01*
X237105377Y-121658372D01*
X237129858Y-121597169D01*
X237130869Y-121556706D01*
X237125811Y-121529392D01*
X237109625Y-121502080D01*
X237036285Y-121474260D01*
X236938666Y-121422163D01*
X236912364Y-121346294D01*
X236951816Y-121263342D01*
X236963955Y-121251203D01*
X236977865Y-121324291D01*
X237025663Y-121391816D01*
X237091361Y-121440540D01*
X237169760Y-121468022D01*
X237260860Y-121474261D01*
X237352971Y-121459705D01*
X237434404Y-121424805D01*
X237505160Y-121369560D01*
X237558662Y-121300434D01*
X237592382Y-121219844D01*
X237606320Y-121127788D01*
X237599913Y-121036519D01*
X237572600Y-120958290D01*
X237524381Y-120893097D01*
X237454075Y-120845047D01*
X237376687Y-120834425D01*
X237384021Y-120771959D01*
X237335212Y-120699883D01*
X237277551Y-120656384D01*
X237228488Y-120651832D01*
X237192577Y-120669534D01*
X237157170Y-120701906D01*
X236767705Y-121091371D01*
X236706391Y-121170107D01*
X236672166Y-121256598D01*
X236665028Y-121350846D01*
X236358851Y-121350846D01*
X235943927Y-120935922D01*
X235576717Y-120568712D01*
X235402790Y-120394785D01*
X236106080Y-120394785D01*
X236116196Y-120474903D01*
X236158360Y-120559068D01*
X236232570Y-120647279D01*
X236306290Y-120707343D01*
X236395943Y-120756026D01*
X236479273Y-120778155D01*
X236534027Y-120758555D01*
X236560581Y-120713287D01*
X236579548Y-120638175D01*
X236560328Y-120578491D01*
X236465237Y-120532969D01*
X236365090Y-120482389D01*
X236342834Y-120427762D01*
X236375206Y-120424728D01*
X236439442Y-120460640D01*
X236507725Y-120501609D01*
X236586756Y-120531452D01*
X236660982Y-120534992D01*
X236730403Y-120512231D01*
X236795018Y-120463168D01*
X236850151Y-120380976D01*
X236859761Y-120290186D01*
X236840765Y-120225668D01*
X236801313Y-120158903D01*
X236741404Y-120089889D01*
X236663005Y-120028182D01*
X236567409Y-119982659D01*
X236486228Y-119985442D01*
X236445006Y-120070669D01*
X236457144Y-120159689D01*
X236530991Y-120197118D01*
X236611919Y-120241629D01*
X236629116Y-120299290D01*
X236618495Y-120306876D01*
X236606861Y-120309406D01*
X236594722Y-120308394D01*
X236580560Y-120303336D01*
X236565892Y-120295749D01*
X236549201Y-120286139D01*
X236532003Y-120275011D01*
X236513288Y-120261355D01*
X236494574Y-120247698D01*
X236426291Y-120205717D01*
X236354468Y-120180427D01*
X236268482Y-120187509D01*
X236181990Y-120246687D01*
X236128011Y-120318712D01*
X236106080Y-120394785D01*
X235402790Y-120394785D01*
X235168200Y-120160195D01*
X235823379Y-120160195D01*
X235828437Y-120210775D01*
X235874464Y-120270965D01*
X235933644Y-120315981D01*
X235984223Y-120321040D01*
X236021147Y-120303336D01*
X236057563Y-120269953D01*
X236387345Y-119940172D01*
X236419716Y-119904767D01*
X236437419Y-119867844D01*
X236431855Y-119816757D01*
X236387209Y-119758221D01*
X236386333Y-119757074D01*
X236327155Y-119712057D01*
X236276069Y-119707505D01*
X236238640Y-119725714D01*
X236202223Y-119759096D01*
X235873453Y-120087865D01*
X235840576Y-120123777D01*
X235823379Y-120160195D01*
X235168200Y-120160195D01*
X235010223Y-120002218D01*
X234601200Y-119593195D01*
X235259413Y-119593195D01*
X235263965Y-119644280D01*
X235308982Y-119703459D01*
X235372460Y-119748222D01*
X235429362Y-119748980D01*
X235451111Y-119825356D01*
X235500173Y-119892628D01*
X235567333Y-119942477D01*
X235647417Y-119970633D01*
X235740428Y-119977096D01*
X235834562Y-119962203D01*
X235918019Y-119926292D01*
X235990798Y-119869360D01*
X236045987Y-119798211D01*
X236080718Y-119715598D01*
X236094993Y-119621519D01*
X236093301Y-119597747D01*
X236385827Y-119597747D01*
X236390886Y-119648326D01*
X236436913Y-119708517D01*
X236496092Y-119753533D01*
X236547178Y-119758085D01*
X236584607Y-119739876D01*
X236620012Y-119707505D01*
X236652384Y-119672099D01*
X236670086Y-119635176D01*
X236664522Y-119584090D01*
X236619001Y-119524406D01*
X236559822Y-119479390D01*
X236508736Y-119474838D01*
X236471307Y-119493047D01*
X236435902Y-119525417D01*
X236403025Y-119561329D01*
X236385827Y-119597747D01*
X236093301Y-119597747D01*
X236088361Y-119528340D01*
X236060373Y-119448424D01*
X236011030Y-119381771D01*
X235947300Y-119334731D01*
X235875476Y-119312982D01*
X236049471Y-119138987D01*
X236076278Y-119113191D01*
X236097522Y-119083855D01*
X236105615Y-119049461D01*
X236093476Y-119008997D01*
X236054529Y-118959934D01*
X235994339Y-118913907D01*
X235943759Y-118908849D01*
X235906836Y-118926551D01*
X235871430Y-118958923D01*
X235309993Y-119520359D01*
X235277622Y-119555765D01*
X235259413Y-119593195D01*
X234601200Y-119593195D01*
X234597491Y-119589486D01*
X234362800Y-119354795D01*
X234362716Y-119354711D01*
X234310170Y-119296734D01*
X234263558Y-119233886D01*
X234223331Y-119166772D01*
X234189877Y-119096038D01*
X234174772Y-119053824D01*
X234738630Y-119053824D01*
X234749315Y-119122043D01*
X234797809Y-119205057D01*
X234884110Y-119302867D01*
X234958084Y-119364447D01*
X235036356Y-119405543D01*
X235114501Y-119426281D01*
X235188096Y-119426787D01*
X235256631Y-119412372D01*
X235319603Y-119388346D01*
X235376379Y-119355090D01*
X235426327Y-119312982D01*
X235492417Y-119229694D01*
X235531533Y-119138988D01*
X235543673Y-119040862D01*
X235528948Y-118942401D01*
X235487472Y-118850682D01*
X235419245Y-118765708D01*
X235342308Y-118703382D01*
X235262561Y-118667470D01*
X235180003Y-118657973D01*
X235067336Y-118680354D01*
X234981224Y-118736372D01*
X234937978Y-118793526D01*
X234921540Y-118851694D01*
X234930644Y-118907078D01*
X234964026Y-118955888D01*
X235179497Y-119171358D01*
X235110708Y-119179451D01*
X235036862Y-119133930D01*
X234968073Y-119038839D01*
X234934691Y-118979155D01*
X234889168Y-118957911D01*
X234825438Y-118967016D01*
X234765754Y-119000399D01*
X234738630Y-119053824D01*
X234174772Y-119053824D01*
X234163516Y-119022366D01*
X234144504Y-118946464D01*
X234133023Y-118869065D01*
X234129184Y-118790914D01*
X234133024Y-118712761D01*
X234144504Y-118635362D01*
X234163516Y-118559461D01*
X234189877Y-118485788D01*
X234223331Y-118415055D01*
X234263559Y-118347941D01*
X234310170Y-118285093D01*
X234362716Y-118227116D01*
X234420693Y-118174570D01*
X234483541Y-118127959D01*
X234550655Y-118087731D01*
X234621388Y-118054277D01*
X234695061Y-118027916D01*
X234770962Y-118008904D01*
X234848361Y-117997424D01*
X234926514Y-117993584D01*
X235004665Y-117997423D01*
G37*
%TO.C,kibuzzard-686202AB*%
G36*
X234952925Y-111332249D02*
G01*
X234837046Y-111332249D01*
X234746560Y-111314903D01*
X234669664Y-111262863D01*
X234617089Y-111186147D01*
X234599564Y-111094767D01*
X234617089Y-111003207D01*
X234669664Y-110925954D01*
X234746917Y-110873379D01*
X234838477Y-110855854D01*
X234952926Y-110855853D01*
X234952925Y-111332249D01*
G37*
G36*
X237311057Y-110457666D02*
G01*
X237373363Y-110460727D01*
X237435070Y-110469880D01*
X237495582Y-110485038D01*
X237554317Y-110506053D01*
X237610709Y-110532725D01*
X237664216Y-110564796D01*
X237714321Y-110601955D01*
X237760543Y-110643849D01*
X237802436Y-110690071D01*
X237839597Y-110740177D01*
X237871667Y-110793683D01*
X237898339Y-110850076D01*
X237919355Y-110908812D01*
X237934513Y-110969323D01*
X237943666Y-111031029D01*
X237946726Y-111093336D01*
X237943666Y-111155643D01*
X237934513Y-111217349D01*
X237919355Y-111277860D01*
X237898339Y-111336596D01*
X237871667Y-111392989D01*
X237839597Y-111446495D01*
X237802436Y-111496601D01*
X237760543Y-111542823D01*
X237714321Y-111584717D01*
X237664216Y-111621876D01*
X237610709Y-111653947D01*
X237554317Y-111680619D01*
X237495582Y-111701634D01*
X237435070Y-111716792D01*
X237373363Y-111725945D01*
X237311057Y-111729006D01*
X237191839Y-111729007D01*
X236688262Y-111729006D01*
X236044485Y-111729006D01*
X235084542Y-111729007D01*
X234337761Y-111729007D01*
X234218543Y-111729006D01*
X234156237Y-111725945D01*
X234094530Y-111716792D01*
X234034018Y-111701634D01*
X233975282Y-111680618D01*
X233918891Y-111653947D01*
X233865384Y-111621876D01*
X233815279Y-111584717D01*
X233769057Y-111542823D01*
X233727164Y-111496601D01*
X233690003Y-111446495D01*
X233657933Y-111392989D01*
X233631261Y-111336596D01*
X233610245Y-111277860D01*
X233595087Y-111217349D01*
X233585934Y-111155643D01*
X233582874Y-111093336D01*
X233583085Y-111089044D01*
X234337761Y-111089044D01*
X234346971Y-111189679D01*
X234374600Y-111282714D01*
X234420648Y-111368147D01*
X234485115Y-111445983D01*
X234562636Y-111510763D01*
X234647847Y-111557034D01*
X234740747Y-111584797D01*
X234841338Y-111594051D01*
X235084542Y-111594051D01*
X235156789Y-111584037D01*
X235196130Y-111553279D01*
X235211152Y-111513222D01*
X235214728Y-111462435D01*
X235214728Y-110727099D01*
X235294843Y-110727099D01*
X235294843Y-111465296D01*
X235296989Y-111514652D01*
X235310580Y-111553279D01*
X235350637Y-111585467D01*
X235426459Y-111595482D01*
X235500136Y-111587614D01*
X235542339Y-111556855D01*
X235912869Y-111067585D01*
X235912869Y-111465296D01*
X235915015Y-111514651D01*
X235928605Y-111553279D01*
X235968663Y-111585468D01*
X236044485Y-111595482D01*
X236118162Y-111585468D01*
X236156789Y-111553279D01*
X236170379Y-111513937D01*
X236173241Y-111463865D01*
X236173241Y-111106212D01*
X236277676Y-111106212D01*
X236277676Y-111399488D01*
X236312010Y-111481748D01*
X236352425Y-111520911D01*
X236405000Y-111553994D01*
X236484161Y-111584992D01*
X236578582Y-111603589D01*
X236688262Y-111609788D01*
X236787690Y-111600042D01*
X236879965Y-111570804D01*
X236965086Y-111522073D01*
X237043055Y-111453851D01*
X237108148Y-111372039D01*
X237154643Y-111282534D01*
X237182541Y-111185342D01*
X237191839Y-111080460D01*
X237182405Y-110980452D01*
X237154106Y-110887864D01*
X237106941Y-110802698D01*
X237040909Y-110724953D01*
X236961644Y-110660173D01*
X236874779Y-110613901D01*
X236780313Y-110586138D01*
X236678248Y-110576884D01*
X236604035Y-110582070D01*
X236524457Y-110597628D01*
X236449170Y-110622485D01*
X236387833Y-110655568D01*
X236347776Y-110684180D01*
X236321309Y-110714223D01*
X236307718Y-110755711D01*
X236340623Y-110835825D01*
X236393555Y-110892692D01*
X236446488Y-110911648D01*
X236523741Y-110878744D01*
X236597060Y-110848701D01*
X236685401Y-110838687D01*
X236779464Y-110856390D01*
X236858505Y-110909502D01*
X236912153Y-110988365D01*
X236930036Y-111083322D01*
X236911438Y-111181319D01*
X236855644Y-111266440D01*
X236775171Y-111325453D01*
X236682540Y-111345124D01*
X236600279Y-111340475D01*
X236539478Y-111326526D01*
X236539478Y-111203493D01*
X236645344Y-111203493D01*
X236683970Y-111201347D01*
X236714013Y-111189903D01*
X236738334Y-111156283D01*
X236745487Y-111091906D01*
X236737618Y-111028958D01*
X236711152Y-110995339D01*
X236679678Y-110983894D01*
X236641052Y-110981748D01*
X236390694Y-110981747D01*
X236335615Y-110991762D01*
X236301996Y-111010360D01*
X236284829Y-111038974D01*
X236278391Y-111070446D01*
X236277676Y-111106212D01*
X236173241Y-111106212D01*
X236173241Y-110721376D01*
X236170379Y-110673450D01*
X236156073Y-110635539D01*
X236116731Y-110604781D01*
X236041624Y-110595482D01*
X235976531Y-110604065D01*
X235940050Y-110621948D01*
X235914299Y-110651276D01*
X235556645Y-111131963D01*
X235556645Y-110721376D01*
X235553784Y-110674166D01*
X235539478Y-110636254D01*
X235499421Y-110605496D01*
X235425030Y-110595482D01*
X235350638Y-110605496D01*
X235310580Y-110638400D01*
X235296989Y-110677742D01*
X235294843Y-110727099D01*
X235214728Y-110727099D01*
X235214728Y-110722807D01*
X235212583Y-110674881D01*
X235198992Y-110635539D01*
X235158934Y-110603351D01*
X235083112Y-110594051D01*
X234837046Y-110594051D01*
X234738334Y-110603171D01*
X234646774Y-110630532D01*
X234562368Y-110676133D01*
X234485115Y-110739974D01*
X234420648Y-110816512D01*
X234374600Y-110900203D01*
X234346971Y-110991047D01*
X234337761Y-111089044D01*
X233583085Y-111089044D01*
X233585934Y-111031029D01*
X233595087Y-110969323D01*
X233610245Y-110908812D01*
X233631261Y-110850076D01*
X233657933Y-110793683D01*
X233690003Y-110740177D01*
X233727164Y-110690071D01*
X233769057Y-110643849D01*
X233815279Y-110601955D01*
X233865384Y-110564796D01*
X233918891Y-110532725D01*
X233975282Y-110506054D01*
X234034018Y-110485038D01*
X234094530Y-110469880D01*
X234156237Y-110460727D01*
X234218543Y-110457666D01*
X234337761Y-110457665D01*
X237191839Y-110457665D01*
X237311057Y-110457666D01*
G37*
%TO.C,kibuzzard-685CA646*%
G36*
X223362112Y-144948545D02*
G01*
X223386146Y-145005769D01*
X223361539Y-145061850D01*
X223303742Y-145085883D01*
X223248235Y-145061850D01*
X223224773Y-145005769D01*
X223248807Y-144948545D01*
X223306031Y-144924511D01*
X223362112Y-144948545D01*
G37*
G36*
X225799308Y-144955412D02*
G01*
X225823914Y-145013781D01*
X225798163Y-145070433D01*
X225738077Y-145095040D01*
X225682569Y-145070433D01*
X225659107Y-145012636D01*
X225682570Y-144954267D01*
X225740366Y-144930233D01*
X225799308Y-144955412D01*
G37*
G36*
X226501454Y-145093895D02*
G01*
X226337792Y-145093895D01*
X226321769Y-145092751D01*
X226304029Y-145086456D01*
X226286861Y-145067000D01*
X226280567Y-145030948D01*
X226295444Y-144983452D01*
X226343514Y-144972579D01*
X226358392Y-144972579D01*
X226423628Y-144952551D01*
X226443084Y-144884453D01*
X226422484Y-144818645D01*
X226352670Y-144799761D01*
X226338936Y-144799761D01*
X226311468Y-144791749D01*
X226303456Y-144756270D01*
X226315474Y-144720792D01*
X226362970Y-144711635D01*
X226501454Y-144711635D01*
X226501454Y-145093895D01*
G37*
G36*
X226773625Y-144366405D02*
G01*
X226835656Y-144375606D01*
X226896485Y-144390843D01*
X226955529Y-144411969D01*
X227012217Y-144438781D01*
X227066005Y-144471020D01*
X227116373Y-144508376D01*
X227162838Y-144550489D01*
X227204951Y-144596954D01*
X227242307Y-144647322D01*
X227274545Y-144701110D01*
X227301357Y-144757798D01*
X227322485Y-144816842D01*
X227337721Y-144877672D01*
X227346922Y-144939702D01*
X227349999Y-145002336D01*
X227346922Y-145064970D01*
X227337721Y-145127000D01*
X227322485Y-145187830D01*
X227301357Y-145246874D01*
X227274545Y-145303562D01*
X227242307Y-145357350D01*
X227204951Y-145407718D01*
X227162838Y-145454183D01*
X227116373Y-145496296D01*
X227066005Y-145533652D01*
X227012217Y-145565891D01*
X226955529Y-145592703D01*
X226896485Y-145613829D01*
X226835656Y-145629066D01*
X226773625Y-145638267D01*
X226710991Y-145641344D01*
X226710897Y-145641344D01*
X226606747Y-145641344D01*
X225549236Y-145641344D01*
X225082283Y-145641344D01*
X224373843Y-145641343D01*
X223972126Y-145641344D01*
X223750094Y-145641343D01*
X223302598Y-145641344D01*
X222472841Y-145641344D01*
X221991010Y-145641344D01*
X221857103Y-145641344D01*
X221857009Y-145641344D01*
X221794375Y-145638267D01*
X221732344Y-145629066D01*
X221671515Y-145613829D01*
X221612471Y-145592703D01*
X221555783Y-145565891D01*
X221501995Y-145533652D01*
X221451627Y-145496296D01*
X221405162Y-145454183D01*
X221363049Y-145407718D01*
X221325693Y-145357350D01*
X221293455Y-145303562D01*
X221266643Y-145246874D01*
X221245515Y-145187830D01*
X221230279Y-145127000D01*
X221221078Y-145064970D01*
X221218001Y-145002336D01*
X221221078Y-144939702D01*
X221230279Y-144877672D01*
X221242340Y-144829518D01*
X221857104Y-144829518D01*
X221865688Y-144886170D01*
X221890867Y-144917644D01*
X221922340Y-144929661D01*
X221961253Y-144932522D01*
X222020767Y-144931377D01*
X222020767Y-145064139D01*
X222014471Y-145098473D01*
X221989866Y-145107629D01*
X221947518Y-145109918D01*
X221916618Y-145120791D01*
X221893728Y-145148831D01*
X221886861Y-145201478D01*
X221895445Y-145260419D01*
X221922340Y-145291893D01*
X221953814Y-145302765D01*
X221991010Y-145304482D01*
X222064830Y-145298251D01*
X222124534Y-145279557D01*
X222170123Y-145248402D01*
X222202232Y-145204148D01*
X222221498Y-145146161D01*
X222227919Y-145074439D01*
X222227919Y-145013781D01*
X222368692Y-145013781D01*
X222368692Y-145201478D01*
X222370409Y-145239818D01*
X222381282Y-145270719D01*
X222413328Y-145296470D01*
X222472841Y-145304482D01*
X222531783Y-145296471D01*
X222563256Y-145271292D01*
X222574701Y-145239818D01*
X222576990Y-145199189D01*
X222576990Y-145012636D01*
X222597591Y-144953695D01*
X222653671Y-144931377D01*
X222710896Y-144950834D01*
X222741797Y-144995469D01*
X222741797Y-145201478D01*
X222743514Y-145240391D01*
X222754386Y-145270719D01*
X222786432Y-145296471D01*
X222845946Y-145304482D01*
X222904887Y-145296470D01*
X222936361Y-145270719D01*
X222947233Y-145239818D01*
X222948950Y-145200333D01*
X222948950Y-144822651D01*
X223015330Y-144822651D01*
X223015330Y-145263280D01*
X223025186Y-145342504D01*
X223054752Y-145410793D01*
X223104029Y-145468143D01*
X223165513Y-145511381D01*
X223231703Y-145537322D01*
X223302598Y-145545970D01*
X223382426Y-145535956D01*
X223461682Y-145505913D01*
X223520910Y-145465569D01*
X223540653Y-145424654D01*
X223506318Y-145344539D01*
X223484000Y-145321076D01*
X223465688Y-145308488D01*
X223441082Y-145302193D01*
X223383857Y-145327944D01*
X223299165Y-145353695D01*
X223241368Y-145325655D01*
X223216761Y-145256414D01*
X223216761Y-145242679D01*
X223265974Y-145276156D01*
X223331210Y-145287315D01*
X223395938Y-145277714D01*
X223455833Y-145248910D01*
X223510895Y-145200905D01*
X223554768Y-145140565D01*
X223581091Y-145074757D01*
X223589866Y-145003480D01*
X223581028Y-144934112D01*
X223554513Y-144869448D01*
X223525084Y-144829518D01*
X223645946Y-144829518D01*
X223645946Y-145201478D01*
X223647662Y-145240391D01*
X223658535Y-145270719D01*
X223690009Y-145296470D01*
X223750094Y-145304482D01*
X223809036Y-145296470D01*
X223840509Y-145270719D01*
X223851382Y-145239818D01*
X223853049Y-145201478D01*
X223898878Y-145201478D01*
X223905173Y-145260991D01*
X223924629Y-145292465D01*
X223946947Y-145302765D01*
X223972126Y-145304482D01*
X224036217Y-145302622D01*
X224084286Y-145297043D01*
X224155245Y-145264997D01*
X224197591Y-145194038D01*
X224198587Y-145187744D01*
X224260538Y-145187744D01*
X224298306Y-145264425D01*
X224339508Y-145299618D01*
X224373843Y-145311349D01*
X224447090Y-145270147D01*
X224587863Y-145138531D01*
X224587863Y-145201478D01*
X224589579Y-145240391D01*
X224600452Y-145270719D01*
X224631926Y-145296470D01*
X224692011Y-145304482D01*
X224750953Y-145296471D01*
X224782425Y-145270147D01*
X224793299Y-145238674D01*
X224795016Y-145200333D01*
X224795016Y-144840963D01*
X224863685Y-144840963D01*
X224887720Y-144906198D01*
X224928921Y-144953408D01*
X224970123Y-144969146D01*
X225026775Y-144948545D01*
X225084572Y-144927944D01*
X225144086Y-144952551D01*
X225169265Y-145012636D01*
X225144659Y-145073295D01*
X225086861Y-145098474D01*
X225036504Y-145083595D01*
X224976989Y-145058416D01*
X224937219Y-145073581D01*
X224891153Y-145119074D01*
X224865084Y-145171974D01*
X224876911Y-145220807D01*
X224926632Y-145265569D01*
X225004458Y-145299046D01*
X225082283Y-145310204D01*
X225131926Y-145305340D01*
X225182426Y-145290748D01*
X225232069Y-145267286D01*
X225279136Y-145235812D01*
X225320624Y-145194468D01*
X225353528Y-145141392D01*
X225374987Y-145079446D01*
X225382140Y-145011492D01*
X225374987Y-144944539D01*
X225353528Y-144883309D01*
X225320767Y-144830805D01*
X225317166Y-144827229D01*
X225445087Y-144827229D01*
X225445087Y-145199190D01*
X225446805Y-145238101D01*
X225457677Y-145268430D01*
X225489722Y-145294181D01*
X225549236Y-145302193D01*
X225614186Y-145291893D01*
X225646518Y-145260991D01*
X225701167Y-145291893D01*
X225766690Y-145302193D01*
X225832879Y-145292401D01*
X225894110Y-145263026D01*
X225950381Y-145214067D01*
X225995206Y-145152392D01*
X226022102Y-145084867D01*
X226027152Y-145043538D01*
X226071124Y-145043538D01*
X226080090Y-145112334D01*
X226105459Y-145173756D01*
X226147233Y-145227801D01*
X226200452Y-145269766D01*
X226260156Y-145294944D01*
X226326346Y-145303337D01*
X226606747Y-145303337D01*
X226666260Y-145295326D01*
X226698306Y-145269003D01*
X226709179Y-145236958D01*
X226710896Y-145196900D01*
X226710897Y-144606342D01*
X226709179Y-144568001D01*
X226698306Y-144536528D01*
X226666260Y-144510204D01*
X226605602Y-144502193D01*
X226337791Y-144502193D01*
X226273318Y-144510268D01*
X226215712Y-144534493D01*
X226164973Y-144574868D01*
X226125551Y-144626307D01*
X226101899Y-144683722D01*
X226094014Y-144747114D01*
X226103456Y-144814067D01*
X226131783Y-144875297D01*
X226086289Y-144955698D01*
X226071124Y-145043538D01*
X226027152Y-145043538D01*
X226031067Y-145011492D01*
X226022038Y-144940025D01*
X225994952Y-144873644D01*
X225949809Y-144812350D01*
X225893347Y-144763391D01*
X225832306Y-144734016D01*
X225766690Y-144724224D01*
X225699451Y-144735669D01*
X225646518Y-144770004D01*
X225617333Y-144734811D01*
X225548092Y-144723080D01*
X225489150Y-144731091D01*
X225457677Y-144757415D01*
X225446804Y-144788888D01*
X225445087Y-144827229D01*
X225317166Y-144827229D01*
X225279708Y-144790033D01*
X225233070Y-144758988D01*
X225183571Y-144735669D01*
X225133356Y-144721076D01*
X225084571Y-144716213D01*
X225002741Y-144727658D01*
X224926632Y-144761993D01*
X224896303Y-144782021D01*
X224874558Y-144806628D01*
X224863685Y-144840963D01*
X224795016Y-144840963D01*
X224795016Y-144562851D01*
X224793299Y-144523366D01*
X224782426Y-144492465D01*
X224750381Y-144466714D01*
X224690867Y-144458702D01*
X224631926Y-144466714D01*
X224600452Y-144493037D01*
X224589579Y-144524511D01*
X224587863Y-144563996D01*
X224587864Y-144879875D01*
X224490581Y-144784882D01*
X224415617Y-144744253D01*
X224341797Y-144784882D01*
X224298878Y-144862708D01*
X224341797Y-144933666D01*
X224434501Y-145014925D01*
X224305173Y-145115641D01*
X224260538Y-145187744D01*
X224198587Y-145187744D01*
X224206175Y-145139818D01*
X224209036Y-145069861D01*
X224209036Y-144562851D01*
X224207319Y-144523366D01*
X224196446Y-144492465D01*
X224164401Y-144466714D01*
X224104887Y-144458702D01*
X224045945Y-144466714D01*
X224015044Y-144493037D01*
X224004172Y-144525083D01*
X224001883Y-144563996D01*
X224001883Y-145057272D01*
X223997877Y-145097901D01*
X223970981Y-145104196D01*
X223946948Y-145105913D01*
X223924629Y-145115641D01*
X223905173Y-145145398D01*
X223898878Y-145201478D01*
X223853049Y-145201478D01*
X223853099Y-145200333D01*
X223853099Y-144827229D01*
X223851381Y-144788888D01*
X223840509Y-144757987D01*
X223808464Y-144732236D01*
X223750093Y-144724378D01*
X223748950Y-144724225D01*
X223690008Y-144732236D01*
X223658535Y-144758559D01*
X223647662Y-144790033D01*
X223645946Y-144829518D01*
X223525084Y-144829518D01*
X223510323Y-144809489D01*
X223455070Y-144761484D01*
X223395365Y-144732681D01*
X223331210Y-144723080D01*
X223264258Y-144735668D01*
X223214472Y-144773438D01*
X223183285Y-144733954D01*
X223114901Y-144720791D01*
X223057677Y-144728802D01*
X223027348Y-144753981D01*
X223017047Y-144784310D01*
X223015330Y-144822651D01*
X222948950Y-144822651D01*
X222948950Y-144565140D01*
X223645946Y-144565140D01*
X223647662Y-144604052D01*
X223658535Y-144634382D01*
X223690009Y-144660133D01*
X223750094Y-144668144D01*
X223809036Y-144660133D01*
X223840509Y-144633810D01*
X223851382Y-144602336D01*
X223853099Y-144563996D01*
X223851382Y-144525656D01*
X223840509Y-144494754D01*
X223808464Y-144469003D01*
X223748950Y-144460991D01*
X223690009Y-144469004D01*
X223658535Y-144495326D01*
X223647662Y-144526800D01*
X223645946Y-144565140D01*
X222948950Y-144565140D01*
X222948950Y-144563996D01*
X222947233Y-144525656D01*
X222936361Y-144494754D01*
X222904887Y-144469003D01*
X222844801Y-144460991D01*
X222785860Y-144469004D01*
X222754386Y-144494754D01*
X222743514Y-144525656D01*
X222741797Y-144565140D01*
X222741797Y-144773438D01*
X222687433Y-144736528D01*
X222627348Y-144724224D01*
X222558041Y-144733508D01*
X222496621Y-144761357D01*
X222443084Y-144807772D01*
X222401756Y-144867795D01*
X222376958Y-144936464D01*
X222368692Y-145013781D01*
X222227919Y-145013781D01*
X222227919Y-144929089D01*
X222256532Y-144929089D01*
X222309751Y-144903910D01*
X222325202Y-144828373D01*
X222306890Y-144754553D01*
X222251954Y-144729946D01*
X222227920Y-144729947D01*
X222227919Y-144630376D01*
X222226203Y-144592036D01*
X222215330Y-144562279D01*
X222183857Y-144538244D01*
X222123771Y-144530805D01*
X222065974Y-144538817D01*
X222034501Y-144564568D01*
X222023056Y-144596614D01*
X222020767Y-144634954D01*
X222020767Y-144726513D01*
X221960109Y-144724224D01*
X221929780Y-144724797D01*
X221902884Y-144731091D01*
X221878278Y-144747114D01*
X221863399Y-144778588D01*
X221857104Y-144829518D01*
X221242340Y-144829518D01*
X221245515Y-144816842D01*
X221266643Y-144757798D01*
X221293455Y-144701110D01*
X221325693Y-144647322D01*
X221363049Y-144596954D01*
X221405162Y-144550489D01*
X221451627Y-144508376D01*
X221501995Y-144471020D01*
X221555783Y-144438781D01*
X221612471Y-144411969D01*
X221671515Y-144390843D01*
X221732344Y-144375606D01*
X221794375Y-144366405D01*
X221857009Y-144363328D01*
X221857103Y-144363328D01*
X226710897Y-144363328D01*
X226710991Y-144363328D01*
X226773625Y-144366405D01*
G37*
%TD*%
%LPC*%
D11*
%TO.C,H1*%
X104300000Y-87300000D03*
D12*
X104300000Y-87300000D03*
%TD*%
D11*
%TO.C,H4*%
X164300000Y-137300000D03*
D12*
X164300000Y-137300000D03*
%TD*%
D13*
%TO.C,TP201*%
X104360000Y-125850000D03*
%TD*%
D11*
%TO.C,H2*%
X164300000Y-87300000D03*
D12*
X164300000Y-87300000D03*
%TD*%
D11*
%TO.C,H3*%
X104300000Y-137300000D03*
D12*
X104300000Y-137300000D03*
%TD*%
%LPD*%
M02*
