%TF.GenerationSoftware,KiCad,Pcbnew,10.0.0-rc1.1*%
%TF.CreationDate,2026-02-23T16:24:08-05:00*%
%TF.ProjectId,cm4-VS035ZSM-driver,636d342d-5653-4303-9335-5a534d2d6472,rev?*%
%TF.SameCoordinates,Original*%
%TF.FileFunction,Paste,Top*%
%TF.FilePolarity,Positive*%
%FSLAX46Y46*%
G04 Gerber Fmt 4.6, Leading zero omitted, Abs format (unit mm)*
G04 Created by KiCad (PCBNEW 10.0.0-rc1.1) date 2026-02-23 16:24:08*
%MOMM*%
%LPD*%
G01*
G04 APERTURE LIST*
G04 Aperture macros list*
%AMRoundRect*
0 Rectangle with rounded corners*
0 $1 Rounding radius*
0 $2 $3 $4 $5 $6 $7 $8 $9 X,Y pos of 4 corners*
0 Add a 4 corners polygon primitive as box body*
4,1,4,$2,$3,$4,$5,$6,$7,$8,$9,$2,$3,0*
0 Add four circle primitives for the rounded corners*
1,1,$1+$1,$2,$3*
1,1,$1+$1,$4,$5*
1,1,$1+$1,$6,$7*
1,1,$1+$1,$8,$9*
0 Add four rect primitives between the rounded corners*
20,1,$1+$1,$2,$3,$4,$5,0*
20,1,$1+$1,$4,$5,$6,$7,0*
20,1,$1+$1,$6,$7,$8,$9,0*
20,1,$1+$1,$8,$9,$2,$3,0*%
G04 Aperture macros list end*
%ADD10R,0.955600X0.508000*%
%ADD11R,0.254000X0.812800*%
%ADD12R,1.524000X1.701800*%
%ADD13RoundRect,0.225000X0.225000X0.250000X-0.225000X0.250000X-0.225000X-0.250000X0.225000X-0.250000X0*%
%ADD14RoundRect,0.200000X-0.200000X-0.275000X0.200000X-0.275000X0.200000X0.275000X-0.200000X0.275000X0*%
%ADD15O,0.900000X0.300000*%
%ADD16O,0.300000X0.900000*%
%ADD17R,1.600000X2.600000*%
%ADD18R,1.524003X2.286005*%
%ADD19RoundRect,0.135000X-0.185000X0.135000X-0.185000X-0.135000X0.185000X-0.135000X0.185000X0.135000X0*%
%ADD20RoundRect,0.250000X-0.250000X-0.475000X0.250000X-0.475000X0.250000X0.475000X-0.250000X0.475000X0*%
%ADD21R,2.500000X1.500000*%
%ADD22RoundRect,0.225000X-0.250000X0.225000X-0.250000X-0.225000X0.250000X-0.225000X0.250000X0.225000X0*%
%ADD23RoundRect,0.225000X-0.225000X-0.250000X0.225000X-0.250000X0.225000X0.250000X-0.225000X0.250000X0*%
%ADD24RoundRect,0.250000X-0.475000X0.250000X-0.475000X-0.250000X0.475000X-0.250000X0.475000X0.250000X0*%
%ADD25R,0.532004X1.072009*%
%ADD26R,1.019990X3.170003*%
%ADD27R,1.500000X2.500000*%
%ADD28RoundRect,0.225000X0.250000X-0.225000X0.250000X0.225000X-0.250000X0.225000X-0.250000X-0.225000X0*%
%ADD29R,0.467000X0.180000*%
%ADD30R,0.350000X0.800000*%
%ADD31R,0.500000X0.780010*%
%ADD32RoundRect,0.250000X-0.450000X0.262500X-0.450000X-0.262500X0.450000X-0.262500X0.450000X0.262500X0*%
G04 APERTURE END LIST*
D10*
%TO.C,U204*%
X110422200Y-126800001D03*
X110422200Y-124899999D03*
X112977800Y-124899999D03*
X112977800Y-125850000D03*
X112977800Y-126800001D03*
%TD*%
D11*
%TO.C,J1*%
X122900000Y-87700000D03*
X122400001Y-87700000D03*
X121899999Y-87700000D03*
X121400000Y-87700000D03*
X120899999Y-87700000D03*
X120400000Y-87700000D03*
X119900001Y-87700000D03*
X119399999Y-87700000D03*
X118900000Y-87700000D03*
X118399998Y-87700000D03*
X117900000Y-87700000D03*
X117400000Y-87700000D03*
X116899999Y-87700000D03*
X116400000Y-87700000D03*
X115899998Y-87700000D03*
X115399999Y-87700000D03*
X114900000Y-87700000D03*
X114399999Y-87700000D03*
X113900000Y-87700000D03*
X113400001Y-87700000D03*
X112899999Y-87700000D03*
X112400000Y-87700000D03*
D12*
X110741200Y-83686800D03*
X124558800Y-83686800D03*
%TD*%
D13*
%TO.C,C216*%
X89095000Y-84042500D03*
X87545000Y-84042500D03*
%TD*%
D14*
%TO.C,R4*%
X271728800Y-96893200D03*
X273378800Y-96893200D03*
%TD*%
D15*
%TO.C,U202*%
X138999873Y-119149936D03*
X138999873Y-118650064D03*
X138999873Y-118149936D03*
X138999873Y-117650064D03*
X138999873Y-117149936D03*
X138999873Y-116650064D03*
D16*
X138249809Y-115900000D03*
X137749937Y-115900000D03*
X137249809Y-115900000D03*
X136749937Y-115900000D03*
D15*
X135999873Y-116650064D03*
X135999873Y-117149936D03*
X135999873Y-117650064D03*
X135999873Y-118149936D03*
X135999873Y-118650064D03*
X135999873Y-119149936D03*
D16*
X136749937Y-119900000D03*
X137249809Y-119900000D03*
X137749937Y-119900000D03*
X138249809Y-119900000D03*
D17*
X137500000Y-117900000D03*
%TD*%
D18*
%TO.C,U2*%
X155900000Y-130424968D03*
X153359995Y-130424968D03*
X150819989Y-130424968D03*
X148279984Y-130424968D03*
X148279984Y-139175032D03*
X150819989Y-139175032D03*
X153359995Y-139175032D03*
X155900000Y-139175032D03*
%TD*%
D13*
%TO.C,C222*%
X137431820Y-121929007D03*
X135881820Y-121929007D03*
%TD*%
D19*
%TO.C,R3*%
X270553800Y-96183200D03*
X270553800Y-97203200D03*
%TD*%
D18*
%TO.C,U3*%
X142910008Y-130424968D03*
X140370003Y-130424968D03*
X137829997Y-130424968D03*
X135289992Y-130424968D03*
X135289992Y-139175032D03*
X137829997Y-139175032D03*
X140370003Y-139175032D03*
X142910008Y-139175032D03*
%TD*%
D20*
%TO.C,C215*%
X86570000Y-95242500D03*
X88470000Y-95242500D03*
%TD*%
D21*
%TO.C,L204*%
X83420000Y-87873996D03*
X83420000Y-89811004D03*
%TD*%
D22*
%TO.C,C221*%
X134156820Y-118954007D03*
X134156820Y-120504007D03*
%TD*%
D21*
%TO.C,L206*%
X107677800Y-126768505D03*
X107677800Y-124831497D03*
%TD*%
D23*
%TO.C,C212*%
X110702800Y-123100001D03*
X112252800Y-123100001D03*
%TD*%
D24*
%TO.C,C213*%
X132156820Y-113179007D03*
X132156820Y-115079007D03*
%TD*%
D25*
%TO.C,U203*%
X86220076Y-90140696D03*
X87170038Y-90140696D03*
X88120000Y-90140696D03*
X88120000Y-87842500D03*
X87170038Y-87842500D03*
X86220076Y-87842500D03*
%TD*%
D26*
%TO.C,U1*%
X147640005Y-94500000D03*
X147640005Y-99950088D03*
X145100000Y-94500000D03*
X145100000Y-99950088D03*
X142559995Y-94500000D03*
X142559995Y-99950088D03*
X140019990Y-94500000D03*
X140019990Y-99950088D03*
X137479984Y-94500000D03*
X137479984Y-99950088D03*
X134939979Y-94500000D03*
X134939979Y-99950088D03*
X132399974Y-94500000D03*
X132399974Y-99950088D03*
X129859969Y-94500000D03*
X129859969Y-99950088D03*
%TD*%
D27*
%TO.C,L207*%
X141925324Y-122129007D03*
X139988316Y-122129007D03*
%TD*%
D22*
%TO.C,C214*%
X114700000Y-125115000D03*
X114700000Y-126665000D03*
%TD*%
D28*
%TO.C,C220*%
X137256820Y-114304007D03*
X137256820Y-112754007D03*
%TD*%
D29*
%TO.C,J3*%
X107408000Y-116500000D03*
X105400000Y-116500000D03*
X107408000Y-116150000D03*
X105400000Y-116150000D03*
X107408000Y-115800000D03*
X105400000Y-115800000D03*
X107408000Y-115450000D03*
X105400000Y-115450000D03*
X107408000Y-115100000D03*
X105400000Y-115100000D03*
X107408000Y-114750000D03*
X105400000Y-114750000D03*
X107408000Y-114400000D03*
X105400000Y-114400000D03*
X107408000Y-114050000D03*
X105400000Y-114050000D03*
X107408000Y-113700000D03*
X105400000Y-113700000D03*
X107408000Y-113350000D03*
X105400000Y-113350000D03*
X107408000Y-113000000D03*
X105400000Y-113000000D03*
X107408000Y-112650000D03*
X105400000Y-112650000D03*
X107408000Y-112300000D03*
X105400000Y-112300000D03*
X107408000Y-111950000D03*
X105400000Y-111950000D03*
X107408000Y-111600000D03*
X105400000Y-111600000D03*
X107408000Y-111250000D03*
X105400000Y-111250000D03*
X107408000Y-110900000D03*
X105400000Y-110900000D03*
X107408000Y-110550000D03*
X105400000Y-110550000D03*
X107408000Y-110200000D03*
X105400000Y-110200000D03*
X107408000Y-109850000D03*
X105400000Y-109850000D03*
X107408000Y-109500000D03*
X105400000Y-109500000D03*
X107408000Y-109150000D03*
X105400000Y-109150000D03*
X107408000Y-108800000D03*
X105400000Y-108800000D03*
X107408000Y-108450000D03*
X105400000Y-108450000D03*
X107408000Y-108100000D03*
X105400000Y-108100000D03*
D30*
X105469000Y-117200000D03*
X105469000Y-107400000D03*
X107339000Y-107400000D03*
X107339000Y-117200000D03*
%TD*%
D22*
%TO.C,C223*%
X140899873Y-117625000D03*
X140899873Y-119175000D03*
%TD*%
D31*
%TO.C,D403*%
X86320000Y-91602622D03*
X86320000Y-93682378D03*
%TD*%
D19*
%TO.C,R209*%
X89720000Y-87032500D03*
X89720000Y-88052500D03*
%TD*%
D32*
%TO.C,R206*%
X90320000Y-90430000D03*
X90320000Y-92255000D03*
%TD*%
M02*
